<svg id="Camada_2" xmlns="http://www.w3.org/2000/svg" viewBox="0 0 315.44 86.03">
    <g id="Camada_1-2">
        <path fill="#ffffff" d="M30.84 2.5c12.15 0 25.07 6.55 27.83 21.45H46.18c-2.67-6.81-8.1-9.82-15.34-9.82-10.68 0-17.83 7.75-17.83 19.21 0 10.34 6.98 18.95 17.75 18.95 7.5 0 13.61-3.53 15.68-10.86h12.41C56.27 57.37 43.43 64 30.85 64 14.99 64.01 0 53.33 0 33.34S14.99 2.24 30.84 2.5ZM87.02 64.36c-11.03 0-21.97-7.32-21.97-21.88s10.94-21.8 21.97-21.8 22.06 7.32 22.06 21.8-11.03 21.88-22.06 21.88Zm.09-10.6c5.08 0 9.99-3.79 9.99-11.29s-5-11.2-9.99-11.2-10.08 3.71-10.08 11.2 5 11.29 10.08 11.29ZM137.26 64.36c-11.03 0-21.97-7.32-21.97-21.88s10.94-21.8 21.97-21.8 22.06 7.32 22.06 21.8-11.03 21.88-22.06 21.88Zm.09-10.6c5.08 0 9.99-3.79 9.99-11.29s-5-11.2-9.99-11.2-10.08 3.71-10.08 11.2 5 11.29 10.08 11.29ZM207.4 0v50.06c0 3.53-.17 5.43 3.96 5.17v7.75c-5.6 1.21-13.7 1.64-13.7-6.89-2.33 5.17-7.67 8.01-13.18 8.01-12.84-.26-18.78-10.17-18.78-21.97-.26-11.29 6.03-21.71 18.18-21.71 5.26 0 10.17 1.64 12.32 6.37V0h11.2Zm-20.33 53.42c5.86 0 8.79-4.83 8.79-11.37s-3.1-11.63-8.96-11.63c-6.29 0-9.13 5.08-9.13 11.72s3.1 11.37 9.31 11.29ZM259.27 50.06c0 3.53-.17 5.43 3.96 5.17v7.75c-5.6 1.21-13.7 1.64-13.7-6.89-2.33 5.17-7.67 8.01-13.18 8.01-12.84-.26-18.78-10.17-18.78-21.97.43-14.04 9.99-21.45 24.04-21.19 6.12.09 12.15 1.55 17.66 3.88v25.24ZM247.55 31.8c-2.33-.95-4.82-1.21-6.89-1.21-6.55 0-10.77 3.62-11.03 11.54 0 6.55 3.1 11.37 9.31 11.29 5.77 0 8.36-4.57 8.62-10.86V31.79ZM274.7 72.37c9.65 5.17 26.79 7.15 26.79-8.19v-7.06c-1.81 4.83-6.03 6.89-11.2 6.89-12.66.26-17.66-7.84-17.66-20.51v-9.22c0-3.7-.6-5.26-4.74-5v-7.32c8.7-2.07 16.71-.86 16.71 9.91v11.46c0 6.29 2.07 10.77 8.01 10.77 8.18 0 8.18-9.99 8.18-15.59v-5.26h11.89v30.93c0 22.4-21.54 26.45-38.51 17.23l.52-9.05Z"/>
        <path fill="#ffffff" d="M46.44 41.44h12.41v30.27H46.44z"/>
        <rect fill="#f7c006" x="300.43" y="9.82" width="15.02" height="15.02" rx="6.96" ry="6.96"/>
    </g>
</svg>
