<?xml version="1.0" encoding="UTF-8" standalone="no"?>
<svg
   xmlns:dc="http://purl.org/dc/elements/1.1/"
   xmlns:cc="http://creativecommons.org/ns#"
   xmlns:rdf="http://www.w3.org/1999/02/22-rdf-syntax-ns#"
   xmlns:svg="http://www.w3.org/2000/svg"
   xmlns="http://www.w3.org/2000/svg"
   id="svg8"
   version="1.1"
   viewBox="0 0 210 210"
   height="210mm"
   width="210mm">
  <defs
     id="defs2" />
  <metadata
     id="metadata5">
    <rdf:RDF>
      <cc:Work
         rdf:about="">
        <dc:format>image/svg+xml</dc:format>
        <dc:type
           rdf:resource="http://purl.org/dc/dcmitype/StillImage" />
        <dc:title></dc:title>
      </cc:Work>
    </rdf:RDF>
  </metadata>
  <g
     transform="translate(0,-87)"
     id="layer1">
    <path
       id="path85"
       d="m 113.56884,267.66567 c 7.72775,-3.99619 12.34613,-15.67949 7.93981,-20.08579 -3.77101,-3.77103 -8.18236,-2.22136 -11.18705,3.92992 -2.17904,4.46093 -3.33667,5.38695 -6.28614,5.02841 -2.69962,-0.3282 -4.02441,-1.71301 -5.230885,-5.4679 -2.8573,-8.89276 -12.39083,-7.18413 -12.39083,2.22072 0,5.17438 5.52919,12.98947 10.65799,15.0643 4.689695,1.89718 12.093215,1.58767 16.497105,-0.68966 z m 40.06735,-36.57228 c 12.59893,-6.46839 13.75793,-20.2841 2.57784,-30.72877 l -4.93121,-4.60682 -0.51526,-18.67696 c -0.44135,-15.99826 -0.98107,-19.56198 -3.76299,-24.84763 -6.58083,-12.50355 -18.08686,-21.74859 -30.04369,-24.13995 -3.74464,-0.74894 -4.49369,-1.66756 -5.25819,-6.44845 -0.71757,-4.48755 -1.63295,-5.76118 -4.69244,-6.52908 -5.11361,-1.28343 -8.235835,0.963 -9.103005,6.54961 -0.63538,4.09345 -1.57871,4.9182 -8.16859,7.14181 -10.899146,3.67768 -18.470977,9.25535 -24.125589,17.77183 -5.987521,9.01786 -7.933077,18.04379 -7.933135,36.80387 l -4.3e-5,13.81164 -4.976694,3.9709 c -7.101407,5.66623 -9.197277,13.36196 -5.624581,20.65268 1.484765,3.02992 4.896335,6.97214 7.581271,8.76047 4.807421,3.20203 5.557029,3.25151 49.263836,3.25151 40.81961,0 44.80997,-0.21967 49.71247,-2.73666 z M 61.630868,219.34808 c -3.991188,-2.32465 -2.973198,-5.5523 3.587428,-11.37434 l 6.101637,-5.41473 0.80054,-20.64087 c 0.897086,-23.13028 1.900185,-26.23637 11.180799,-34.62083 14.194473,-12.82386 37.947838,-9.42698 49.080888,7.01889 3.28986,4.85979 3.64589,6.96827 4.31009,25.52454 0.77659,21.69616 1.61605,24.57426 8.62282,29.56351 4.5248,3.22196 5.49116,6.86936 2.58897,9.77157 -2.22435,2.22434 -82.474852,2.38456 -86.273172,0.17224 z M 44.368985,162.26134 c 0.975834,-0.61981 3.020434,-4.74905 4.543555,-9.17608 3.915072,-11.37934 5.380904,-13.74946 14.264603,-23.06443 7.240275,-7.59176 7.752757,-8.56306 6.253894,-11.85269 -2.81698,-6.18261 -8.272568,-4.78176 -17.175747,4.41026 -11.773273,12.15523 -20.597113,33.31108 -16.13574,38.6867 1.955564,2.35632 5.444767,2.77768 8.249435,0.99624 z m 128.885995,-1.61577 c 2.393,-2.64422 2.3961,-3.17684 0.0607,-10.41598 -3.43633,-10.65179 -8.65947,-19.29699 -16.97829,-28.1021 -7.69572,-8.14555 -11.78885,-9.37527 -15.93958,-4.78875 -3.07708,3.40012 -1.96769,5.78163 6.41364,13.76806 5.32265,5.07188 14.30597,20.42999 14.30905,24.46321 0.004,2.84348 4.49824,7.86228 7.04338,7.86228 1.41308,0 3.70411,-1.25403 5.09117,-2.78672 z"
       style="fill:#000000;stroke-width:1.4366889" />
  </g>
</svg>
