<svg id="Camada_1-2" xmlns="http://www.w3.org/2000/svg" width="24.31" height="27.005" viewBox="0 0 24.31 27.005">
  <path id="Caminho_800" data-name="Caminho 800" d="M46.425,0a1.171,1.171,0,0,1,.857,1.325c-.018.174.012.353-.006.527-.025.24.04.335.333.383A7.672,7.672,0,0,1,54,8.263a8.355,8.355,0,0,1,.111,1.283c.014,1.38.011,2.76,0,4.14a1.167,1.167,0,0,0,.674,1.147,3.031,3.031,0,0,1,1.48,3.566,3.4,3.4,0,0,1-3.262,2.277q-6.864,0-13.729,0A3.406,3.406,0,0,1,36.013,18.4a3.032,3.032,0,0,1,1.5-3.58,1.118,1.118,0,0,0,.648-1.08q-.005-2.149,0-4.3a7.57,7.57,0,0,1,6.619-7.222c.161-.025.231-.076.22-.235-.014-.219.015-.441-.007-.659A1.173,1.173,0,0,1,45.856,0Zm-.283,18.566q3.374,0,6.749,0a1.141,1.141,0,0,0,1.174-.781,1.014,1.014,0,0,0-.591-1.217,2.9,2.9,0,0,1-1.632-2.658c-.018-1.432,0-2.864-.009-4.3a5.925,5.925,0,0,0-.1-1.046A5.692,5.692,0,0,0,44.7,4.393a5.383,5.383,0,0,0-4.259,5.116c-.01,1.459,0,2.917,0,4.376a2.779,2.779,0,0,1-.034.472A2.992,2.992,0,0,1,38.755,16.6a.99.99,0,0,0-.52,1.265,1.186,1.186,0,0,0,1.186.7q3.36,0,6.721,0Z" transform="translate(-33.985)" />
  <path id="Caminho_801" data-name="Caminho 801" d="M321.634,7.648c-.024.044-.05.088-.071.134a1.065,1.065,0,0,1-1.122.654,1.088,1.088,0,0,1-.908-.839c-.123-.465-.23-.937-.4-1.388a9.4,9.4,0,0,0-3.13-4.245,1.027,1.027,0,0,1-.351-1.428A3.034,3.034,0,0,1,316.307,0h.527a3.664,3.664,0,0,1,.4.236,11.439,11.439,0,0,1,3.831,5.089c.223.586.38,1.2.567,1.8Z" transform="translate(-297.324)" />
  <path id="Caminho_802" data-name="Caminho 802" d="M5.308,0a1.1,1.1,0,0,1,.8,1.11,1.1,1.1,0,0,1-.493.857,9.008,9.008,0,0,0-2.8,3.47A16.367,16.367,0,0,0,2.1,7.493c-.164.55-.465.895-.929.942A1.067,1.067,0,0,1,.017,7.683c-.006-.014-.024-.024-.037-.035V7.12a.588.588,0,0,0,.053-.114A11.307,11.307,0,0,1,2.088,2.537,9.508,9.508,0,0,1,4.781,0Z" transform="translate(0.02)" />
  <path id="Caminho_803" data-name="Caminho 803" d="M158.727,436.208a7.716,7.716,0,0,1-1.244-.523,3,3,0,0,1-1.444-2.648,1.054,1.054,0,0,1,2.107-.031,1.068,1.068,0,0,0,.771,1.043,1,1,0,0,0,1.146-.427,1.489,1.489,0,0,0,.187-.617,1.059,1.059,0,0,1,1.09-1.016,1.039,1.039,0,0,1,1.026,1.048,3.17,3.17,0,0,1-2.549,3.117,1.015,1.015,0,0,0-.141.054h-.949Z" transform="translate(-147.046 -409.203)" />
</svg>
