<svg xmlns="http://www.w3.org/2000/svg" width="33.16" height="24.848" viewBox="0 0 33.16 24.848">
  <g id="b" transform="translate(0)">
    <g id="c" transform="translate(0 0)">
      <g id="Grupo_97" data-name="Grupo 97">
        <path id="Caminho_180" data-name="Caminho 180" d="M33.16,22.663a1.711,1.711,0,0,1-1.153,1.11,2.363,2.363,0,0,1-.51.052q-6.359,0-12.719,0a.544.544,0,0,0-.488.224,2.179,2.179,0,0,1-3.4,0,.546.546,0,0,0-.486-.229q-6.359.007-12.719,0a1.541,1.541,0,0,1-1.668-1.67C.014,16.733.029,11.31,0,5.887A1.628,1.628,0,0,1,1.753,4.158c.095.01.192,0,.332,0,0-.2,0-.374,0-.553A1.528,1.528,0,0,1,3.614,2.091q2.816-.007,5.632,0c.387,0,.6.188.607.512s-.215.521-.6.521q-2.7,0-5.405,0c-.558,0-.728.173-.728.738V19.97c0,.585.166.752.747.752,2.881,0,5.761.019,8.641-.008a5.441,5.441,0,0,1,3.535.894c.011-.144.023-.234.023-.324q0-8.216,0-16.431a1.6,1.6,0,0,0-.751-1.48,3.153,3.153,0,0,0-.286-.136v.39q0,4.059,0,8.119c0,.259-.015.5-.28.636a.618.618,0,0,1-.686-.124c-.293-.2-.6-.385-.883-.6a.327.327,0,0,0-.453.006,7.849,7.849,0,0,1-.972.636.74.74,0,0,1-.587.056.686.686,0,0,1-.271-.521Q10.877,6.7,10.892,1.553a1.491,1.491,0,0,1,.917-1.4c.083-.041.163-.086.246-.129h1.813a.525.525,0,0,0,.1.067,1.543,1.543,0,0,1,1.069,1.592v.448l.075-.078,1.554.989c.038-.041.118-.141.211-.228a2.472,2.472,0,0,1,1.746-.719q5.463,0,10.927,0a1.528,1.528,0,0,1,1.542,1.532c0,.169,0,.339,0,.517a6.841,6.841,0,0,1,.86.055A1.7,1.7,0,0,1,33.16,5.325ZM17.1,21.585a1.671,1.671,0,0,0,.151-.074,4.871,4.871,0,0,1,2.78-.8c3.086.016,6.171.006,9.257.005.6,0,.76-.163.76-.773V3.9c0-.627-.155-.782-.783-.782H18.88A1.6,1.6,0,0,0,17.1,4.9V21.585ZM2.086,5.215c-.887-.072-1.037.064-1.037.9V22c0,.645.15.793.8.793q6.473,0,12.947-.006a.8.8,0,0,1,.8.451,1.12,1.12,0,0,0,1.98-.014.766.766,0,0,1,.776-.437q6.473.015,12.947.006c.675,0,.82-.143.82-.81V6a2.144,2.144,0,0,0-.008-.323.52.52,0,0,0-.488-.479,5.111,5.111,0,0,0-.54,0v14.9a1.54,1.54,0,0,1-1.675,1.663c-3.075,0-6.15.012-9.224-.006a3.971,3.971,0,0,0-3.093,1.272c-.382.41-.63.414-1,.011a3.988,3.988,0,0,0-3.122-1.284c-3.064.02-6.128.006-9.192.006a1.544,1.544,0,0,1-1.691-1.679V5.216Zm11.859,5.748L14,10.878V1.87c0-.075,0-.151,0-.226a.546.546,0,0,0-.584-.588c-.258-.008-.517,0-.776,0-.534,0-.711.18-.711.722q0,4.426,0,8.853c0,.088.014.176.029.365a1.16,1.16,0,0,1,1.989-.03Z" transform="translate(0.001 -0.02)" />
        <path id="Caminho_181" data-name="Caminho 181" d="M84.456,207.436c1.282,0,2.565-.01,3.848.012a.69.69,0,0,1,.485.281.552.552,0,0,1-.026.5.627.627,0,0,1-.453.232c-2.565.014-5.131.011-7.7.008a.5.5,0,0,1-.556-.529c.006-.312.22-.5.582-.5,1.272,0,2.544,0,3.815,0Z" transform="translate(-74.864 -193.98)" />
        <path id="Caminho_182" data-name="Caminho 182" d="M84.786,240.4c-1.272,0-2.544.01-3.815-.012a.692.692,0,0,1-.486-.28.555.555,0,0,1,.024-.5.625.625,0,0,1,.452-.232c2.565-.014,5.131-.011,7.7-.008a.5.5,0,0,1,.558.527.509.509,0,0,1-.581.505q-1.924,0-3.848,0Z" transform="translate(-75.219 -223.84)" />
        <path id="Caminho_183" data-name="Caminho 183" d="M83.94,272.346H80.707c-.415,0-.635-.18-.637-.514s.218-.52.63-.52h6.5c.416,0,.636.18.638.513s-.22.52-.631.52Q85.573,272.348,83.94,272.346Z" transform="translate(-74.876 -253.715)" />
        <path id="Caminho_184" data-name="Caminho 184" d="M82.394,112.745c-.582,0-1.163,0-1.745,0-.361,0-.575-.191-.582-.5-.007-.33.208-.529.587-.529q1.745,0,3.49,0c.362,0,.575.191.582.5.008.328-.21.528-.588.53C83.557,112.747,82.976,112.745,82.394,112.745Z" transform="translate(-74.874 -104.465)" />
        <path id="Caminho_185" data-name="Caminho 185" d="M82.4,143.606c.582,0,1.163,0,1.745,0,.377,0,.594.2.585.532-.008.311-.222.5-.585.5q-1.745,0-3.49,0c-.376,0-.594-.2-.584-.533.008-.311.221-.5.584-.5.582,0,1.163,0,1.745,0Z" transform="translate(-74.872 -134.291)" />
        <path id="Caminho_186" data-name="Caminho 186" d="M82.426,175.536c.571,0,1.142,0,1.712,0,.379,0,.6.2.589.529a.509.509,0,0,1-.581.5q-1.745,0-3.49,0c-.379,0-.595-.2-.588-.529.007-.312.22-.5.581-.5.592,0,1.184,0,1.777,0Z" transform="translate(-74.874 -164.15)" />
        <path id="Caminho_187" data-name="Caminho 187" d="M97.84,80.811c-.409,0-.818,0-1.227,0a.508.508,0,0,1-.573-.511.5.5,0,0,1,.563-.521q1.243-.006,2.487,0A.518.518,0,1,1,99.1,80.81c-.42.005-.84,0-1.26,0Z" transform="translate(-89.81 -74.602)" />
        <path id="Caminho_188" data-name="Caminho 188" d="M284.358,107.541a2,2,0,0,1-.61,1.485q-3.805,3.81-7.62,7.61a.818.818,0,0,1-.413.226q-1.178.191-2.364.337c-.571.069-.788-.146-.719-.717.095-.789.21-1.578.337-2.362a.816.816,0,0,1,.226-.413q3.79-3.8,7.6-7.589a2,2,0,0,1,2.324-.446,1.962,1.962,0,0,1,1.245,1.87Zm-8.672,8,6.523-6.519-1.378-1.373-6.52,6.515,1.375,1.377Zm5.947-8.765,1.427,1.427a.99.99,0,0,0-.039-1.363A1,1,0,0,0,281.633,106.779Zm-7.872,9.3.677-.1-.582-.645Z" transform="translate(-254.937 -98.64)" />
        <path id="Caminho_189" data-name="Caminho 189" d="M315.535,79.782c1.1,0,2.2,0,3.3,0a.5.5,0,0,1,.547.437.5.5,0,0,1-.331.563.8.8,0,0,1-.285.031q-3.265,0-6.531,0c-.391,0-.608-.181-.615-.5-.008-.34.211-.529.62-.53q1.649,0,3.3,0Z" transform="translate(-291.404 -74.607)" />
        <path id="Caminho_190" data-name="Caminho 190" d="M298.268,111.706c.657,0,1.314,0,1.971,0,.363,0,.577.189.584.5.008.328-.21.531-.586.532q-2,0-4.007,0c-.363,0-.576-.19-.584-.5-.008-.329.208-.529.586-.531C296.911,111.7,297.589,111.706,298.268,111.706Z" transform="translate(-276.469 -104.46)" />
        <path id="Caminho_191" data-name="Caminho 191" d="M297.2,143.606c.333,0,.667,0,1,0a.517.517,0,1,1,0,1.031q-1,.008-2,0a.517.517,0,1,1,0-1.031C296.532,143.6,296.866,143.606,297.2,143.606Z" transform="translate(-276.469 -134.29)" />
        <path id="Caminho_192" data-name="Caminho 192" d="M312.715,157.786c-.176-.134-.375-.211-.433-.348a.97.97,0,0,1,.012-.543c.019-.09.135-.162.211-.237q2.434-2.434,4.87-4.867a1.418,1.418,0,0,1,.238-.217.519.519,0,0,1,.729.706,1.137,1.137,0,0,1-.191.217q-2.468,2.468-4.941,4.933A4.121,4.121,0,0,1,312.715,157.786Z" transform="translate(-291.993 -141.653)" />
      </g>
    </g>
  </g>
</svg>
