<svg id="b" xmlns="http://www.w3.org/2000/svg" width="33.681" height="32.592" viewBox="0 0 33.681 32.592">
  <g id="c" transform="translate(0 0)">
    <g id="Grupo_121" data-name="Grupo 121">
      <path id="Caminho_324" data-name="Caminho 324" d="M9.343,191.608a14.286,14.286,0,0,1-1.789-.374,6.05,6.05,0,0,1-3.86-3.8q-1.166-3.13-2.307-6.27a.621.621,0,0,0-.377-.4,1.672,1.672,0,0,1,.66-3.212,1.047,1.047,0,0,0,.889-.374c.37-.432.742-.862,1.1-1.307a14.291,14.291,0,0,1,9.122-5.287,23.44,23.44,0,0,1,9.162.211,14.409,14.409,0,0,1,8.584,5.7c.163.219.351.419.532.624a1.216,1.216,0,0,0,1,.439,1.567,1.567,0,0,1,1.488,1c.045.1.087.2.13.3v.789a1.849,1.849,0,0,1-.984,1.113.648.648,0,0,0-.41.453q-1.134,3.1-2.285,6.2a6.084,6.084,0,0,1-3.869,3.829,13.628,13.628,0,0,1-1.788.368H9.343ZM2.524,180.87a2.337,2.337,0,0,0,.053.248c.762,2.059,1.47,4.138,2.3,6.168a4.719,4.719,0,0,0,4.585,3.132q7.378.069,14.757,0a4.726,4.726,0,0,0,4.582-3.137c.744-1.805,1.37-3.66,2.047-5.492.1-.273.2-.547.339-.932a3.508,3.508,0,0,0-.586.219c-.445.277-.877.577-1.315.868a3.992,3.992,0,0,1-4.7,0c-.218-.146-.438-.29-.656-.436a.6.6,0,0,0-.733.007c-.326.221-.647.452-.989.646a3.828,3.828,0,0,1-4.05-.024c-.321-.186-.627-.4-.933-.612a.631.631,0,0,0-.789.008c-.306.212-.611.427-.933.613a3.834,3.834,0,0,1-4.079-.008c-.312-.18-.611-.386-.905-.595a.65.65,0,0,0-.844.009c-.238.174-.486.337-.737.492a3.871,3.871,0,0,1-4.414-.011c-.481-.3-.943-.638-1.425-.939a3.368,3.368,0,0,0-.578-.218Zm1.235-3.292q1.089.664,2.173,1.326c.14.086.277.177.41.273a.622.622,0,0,0,.789.008c.306-.21.614-.421.932-.613a3.874,3.874,0,0,1,3.027-.453,5.875,5.875,0,0,1,1.928,1.024.692.692,0,0,0,.9.007,10.7,10.7,0,0,1,.9-.6,3.887,3.887,0,0,1,3-.435,5.8,5.8,0,0,1,1.822.947c.544.362.59.361,1.141-.007.246-.164.488-.334.741-.486a3.885,3.885,0,0,1,3.059-.446,6.127,6.127,0,0,1,1.924,1.034.688.688,0,0,0,.847.013,9.969,9.969,0,0,1,2.637-1.506.954.954,0,0,0-.063-.109q-.488-.6-.977-1.2a13.192,13.192,0,0,0-8.717-4.741,24.426,24.426,0,0,0-5.536-.141,17.343,17.343,0,0,0-4.689,1.026,13.749,13.749,0,0,0-6.251,5.071Zm-1.482,1.084a6.246,6.246,0,0,0-.686.039.536.536,0,0,0-.455.557.555.555,0,0,0,.54.518,6.958,6.958,0,0,0,.723,0,2.2,2.2,0,0,1,1.474.445c.425.308.865.6,1.31.874a2.75,2.75,0,0,0,3.092.015c.327-.2.635-.428.963-.625a1.6,1.6,0,0,1,1.74,0c.3.179.585.385.879.574a2.784,2.784,0,0,0,3.233,0c.258-.165.508-.343.766-.509a1.679,1.679,0,0,1,1.968,0c.275.179.543.368.822.542a2.751,2.751,0,0,0,3.092.016c.308-.188.6-.4.905-.594a1.652,1.652,0,0,1,1.856,0c.279.172.545.366.822.542a2.807,2.807,0,0,0,3.237,0c.48-.306.928-.667,1.428-.933a3.824,3.824,0,0,1,1.107-.333,6.093,6.093,0,0,1,.885-.013.558.558,0,0,0,.561-.5.521.521,0,0,0-.462-.581,3.95,3.95,0,0,0-2.688.472c-.467.325-.947.631-1.42.948a1.7,1.7,0,0,1-2.052.007c-.282-.188-.559-.385-.85-.559a2.727,2.727,0,0,0-3.007.009c-.318.193-.617.416-.933.611a1.65,1.65,0,0,1-1.856-.007c-.3-.185-.58-.393-.877-.578a2.75,2.75,0,0,0-3.12.007c-.3.186-.578.4-.877.578a1.65,1.65,0,0,1-1.856-.006c-.325-.2-.633-.433-.962-.628a2.718,2.718,0,0,0-2.951,0c-.273.161-.53.348-.794.524a1.728,1.728,0,0,1-2.19,0c-.356-.235-.723-.457-1.063-.713a3.36,3.36,0,0,0-2.3-.706Z" transform="translate(0.011 -159.016)"/>
      <path id="Caminho_325" data-name="Caminho 325" d="M232.438,6.676a1.775,1.775,0,0,0-.634-1.2c-.2-.165-.42-.316-.625-.48a2.643,2.643,0,0,1-.615-3.532c.241-.391.5-.771.759-1.151A.557.557,0,0,1,232.136.1a.566.566,0,0,1,.124.859c-.225.35-.463.691-.689,1.04a1.542,1.542,0,0,0,.385,2.178,6.2,6.2,0,0,1,.983.862,2.6,2.6,0,0,1,.189,3.009c-.252.422-.532.829-.812,1.235a.551.551,0,0,1-.8.195.569.569,0,0,1-.14-.833c.229-.36.494-.7.7-1.071a7.239,7.239,0,0,0,.358-.893Z" transform="translate(-214.98 0.003)"/>
      <path id="Caminho_326" data-name="Caminho 326" d="M155.04,8.72c.569,0,.829.46.59.865-.2.339-.43.659-.647.988a1.551,1.551,0,0,0,.41,2.383,3.218,3.218,0,0,1,1.3,1.559,2.611,2.611,0,0,1-.256,2.268c-.244.4-.511.79-.776,1.178a.571.571,0,1,1-.932-.644c.226-.348.461-.691.686-1.041a1.545,1.545,0,0,0-.366-2.157,7.035,7.035,0,0,1-.985-.858,2.588,2.588,0,0,1-.271-2.918,15.145,15.145,0,0,1,.9-1.371,1.137,1.137,0,0,1,.349-.252Z" transform="translate(-143.353 -8.145)"/>
      <path id="Caminho_327" data-name="Caminho 327" d="M308.224,7.57c.188.136.41.217.472.364a.809.809,0,0,1-.011.608,12.4,12.4,0,0,1-.692,1.074,1.531,1.531,0,0,0,.362,2.177c.207.161.424.31.624.481a2.653,2.653,0,0,1,.57,3.389c-.256.432-.542.848-.829,1.261a.568.568,0,0,1-.8.175.549.549,0,0,1-.131-.807c.233-.37.484-.729.72-1.1a1.544,1.544,0,0,0-.374-2.154,5.538,5.538,0,0,1-1.078-.993,2.49,2.49,0,0,1-.123-2.866,13.372,13.372,0,0,1,.81-1.233,2.378,2.378,0,0,1,.483-.379Z" transform="translate(-286.341 -7.071)"/>
      <path id="Caminho_328" data-name="Caminho 328" d="M248.057,205.9c0,.263.012.526,0,.788a.57.57,0,0,1-.573.592.562.562,0,0,1-.573-.59c-.015-.547-.016-1.095,0-1.642a.577.577,0,0,1,.554-.584.6.6,0,0,1,.593.583c0,.022,0,.043,0,.066v.788h0Z" transform="translate(-230.63 -190.994)"/>
      <path id="Caminho_329" data-name="Caminho 329" d="M186.421,206.291a2.982,2.982,0,0,1,.291-.468c.329-.349.671-.687,1.016-1.021a.569.569,0,1,1,.812.791c-.349.361-.706.714-1.065,1.065a.5.5,0,0,1-.655.114,2.208,2.208,0,0,1-.4-.48Z" transform="translate(-174.138 -191.106)"/>
      <path id="Caminho_330" data-name="Caminho 330" d="M291.488,206.886a3.1,3.1,0,0,1-.485-.3c-.343-.321-.672-.657-1-.994a.572.572,0,1,1,.8-.8,12.488,12.488,0,0,1,1.051,1.08.77.77,0,0,1,.084.624C291.892,206.648,291.659,206.746,291.488,206.886Z" transform="translate(-270.689 -191.088)"/>
    </g>
  </g>
</svg>
