<svg width="210mm" height="210mm" version="1.1" viewBox="0 0 210 210" xmlns="http://www.w3.org/2000/svg">
 <defs>

   <g transform="matrix(.25 0 0 .25 -221.22 -881.21)">
    <path d="m76.2 2922h1440v3040h-1440z" clip-rule="evenodd"/>
   </g>

   <g transform="matrix(.25 0 0 .25 -6.2308 -1040.2)">
    <path d="m76.2 2922h1440v3040h-1440z" clip-rule="evenodd"/>
   </g>

   <g transform="matrix(.25 0 0 .25 -77.857 -1032.1)">
    <path d="m76.2 2922h1440v3040h-1440z" clip-rule="evenodd"/>
   </g>

   <g transform="matrix(.25 0 0 .25 65.131 -1033.2)">
    <path d="m76.2 2922h1440v3040h-1440z" clip-rule="evenodd"/>
   </g>

   <g transform="matrix(.25 0 0 .25 9.4206 -849.23)">
    <path d="m76.2 2922h1440v3040h-1440z" clip-rule="evenodd"/>
   </g>

   <g transform="matrix(.25 0 0 .25 -47.072 -849.12)">
    <path d="m76.2 2922h1440v3040h-1440z" clip-rule="evenodd"/>
   </g>

   <g transform="matrix(.25 0 0 .25 49.478 -849.13)">
    <path d="m76.2 2922h1440v3040h-1440z" clip-rule="evenodd"/>
   </g>

 </defs>
 <g transform="matrix(13.491 0 0 13.491 -1482.4 -1049.2)">
  <g transform="matrix(.35278 0 0 .35278 111.73 23.709)" clip-path="url(#clipPath80674)">
   <path d="m9.3433 191.61c-0.59751-0.12056-1.2161-0.17853-1.7886-0.37352-1.8861-0.64232-3.1654-1.9355-3.8598-3.7992-0.77736-2.0864-1.5429-4.1773-2.307-6.2696-0.072466-0.19829-0.17458-0.31819-0.37748-0.40317-0.74245-0.31094-1.1469-1.1041-0.98619-1.8775 0.1614-0.77472 0.84456-1.3551 1.6463-1.334 0.37616 0.01 0.6568-0.10474 0.88869-0.37418 0.37023-0.4315 0.74244-0.86235 1.0969-1.307 2.3512-2.954 5.4283-4.6609 9.1221-5.2867 3.0646-0.51912 6.124-0.47565 9.1617 0.2108 3.5811 0.80965 6.4047 2.7715 8.5839 5.6991 0.16272 0.21872 0.35113 0.41899 0.5323 0.62387 0.26351 0.29842 0.56721 0.4427 0.99607 0.43941 0.6937-6e-3 1.1931 0.36891 1.4882 1.0013 0.04546 0.0975 0.08696 0.19698 0.12978 0.29579v0.78922c-0.21476 0.47235-0.4651 0.92296-0.98422 1.1127-0.23584 0.0863-0.33071 0.23584-0.40976 0.45325-0.75628 2.0699-1.5211 4.1365-2.2853 6.2031-0.69436 1.8769-1.9763 3.1773-3.869 3.8288-0.5705 0.19632-1.1904 0.24968-1.7879 0.36826h-14.991zm-6.8197-10.738c0.030304 0.14493 0.034915 0.19894 0.053361 0.24835 0.76155 2.0587 1.4704 4.1385 2.3011 6.1682 0.82413 2.0132 2.4092 3.1114 4.5851 3.1318 4.9185 0.0461 9.8382 0.0455 14.757 0 2.1786-0.0204 3.7531-1.1258 4.5825-3.1371 0.74442-1.8051 1.3696-3.6595 2.0468-5.4923 0.10079-0.27274 0.19895-0.54678 0.33862-0.9315-0.25824 0.0935-0.44006 0.12779-0.58632 0.2187-0.44534 0.27736-0.8775 0.5771-1.3149 0.86827-1.5297 1.0185-3.1714 1.0172-4.6991-3e-3 -0.21806-0.14625-0.43809-0.28987-0.65614-0.43611-0.24638-0.16536-0.4875-0.15877-0.73322 7e-3 -0.3261 0.2207-0.64692 0.45194-0.98883 0.64562-1.3512 0.7655-2.7076 0.75561-4.0502-0.0244-0.32148-0.18643-0.6265-0.40185-0.93349-0.612-0.26878-0.18446-0.52307-0.17656-0.78856 8e-3 -0.30568 0.21213-0.61069 0.42689-0.93283 0.61265-1.3584 0.78264-2.7234 0.77605-4.0792-8e-3 -0.31226-0.1805-0.61069-0.38605-0.90516-0.59488-0.28986-0.20685-0.55865-0.1996-0.8439 9e-3 -0.23848 0.17392-0.48618 0.33662-0.73718 0.49209-1.473 0.9144-2.9474 0.91637-4.4138-0.0112-0.48091-0.30435-0.94271-0.63769-1.4249-0.93941-0.15415-0.0962-0.3452-0.13241-0.57775-0.21806l0.00132-1e-3zm1.2346-3.2919c0.72598 0.4427 1.45 0.88342 2.1727 1.3261 0.13966 0.0857 0.27735 0.17656 0.40976 0.27274 0.26285 0.19105 0.51978 0.19237 0.78856 8e-3 0.30633-0.21014 0.61398-0.42096 0.93217-0.61332 0.94403-0.57314 1.9533-0.70951 3.0271-0.45258 0.73454 0.1759 1.3255 0.61003 1.9276 1.0244 0.31094 0.21411 0.58829 0.23651 0.89989 7e-3 0.28986-0.2141 0.59356-0.4124 0.90385-0.59619 0.93876-0.55536 1.9381-0.69172 3.0007-0.43546 0.68908 0.16602 1.2484 0.56589 1.8215 0.94667 0.54415 0.36166 0.59027 0.36101 1.141-7e-3 0.24572-0.16403 0.48816-0.334 0.74113-0.48618 0.95655-0.57577 1.9757-0.71609 3.0594-0.446 0.73125 0.18248 1.3195 0.62256 1.9236 1.0336 0.2892 0.19698 0.54678 0.20357 0.84653 0.0125 0.85246-0.54415 1.6252-1.228 2.6371-1.506-0.0303-0.0527-0.04282-0.0837-0.06324-0.1087-0.32544-0.39856-0.65219-0.79581-0.97697-1.195-2.257-2.7728-5.2268-4.2379-8.717-4.7412-1.8387-0.26548-3.6852-0.29513-5.5357-0.14097-1.6087 0.13373-3.174 0.45785-4.6885 1.0264-2.6746 1.0033-4.6451 2.8664-6.2512 5.0706l-3.1e-6 -1e-5zm-1.4816 1.0837c-0.22926 0.0112-0.4618 3e-3 -0.68645 0.0389-0.28525 0.0461-0.47103 0.29513-0.45522 0.55734 0.017128 0.27997 0.24243 0.50397 0.53954 0.51779 0.24045 0.0112 0.48289 0.0152 0.72268 1e-3 0.5481-0.0329 1.029 0.12255 1.4737 0.44535 0.42491 0.3083 0.86498 0.59619 1.3103 0.8742 1.0244 0.63901 2.0607 0.64495 3.0923 0.0152 0.32676-0.19961 0.63506-0.4282 0.96314-0.62518 0.57577-0.3452 1.1641-0.33993 1.7398 6.6e-4 0.30106 0.17852 0.585 0.38539 0.87947 0.57379 1.0771 0.68974 2.1562 0.68909 3.2333-1e-3 0.25824-0.16536 0.50792-0.34256 0.7655-0.50924 0.65548-0.42492 1.3129-0.42294 1.9678 1e-3 0.27537 0.17852 0.54349 0.36825 0.82216 0.54217 1.0264 0.64034 2.0607 0.64429 3.0923 0.0165 0.30831-0.18775 0.59883-0.40448 0.90516-0.59421 0.61596-0.3821 1.2405-0.3788 1.8564 0 0.27932 0.17193 0.54481 0.36627 0.82216 0.54217 1.0784 0.68447 2.1615 0.68184 3.2366-3e-3 0.48025-0.30568 0.92822-0.66668 1.4282-0.93283 0.33466-0.17787 0.72927-0.26483 1.1074-0.33334 0.28657-0.052 0.58961-4e-3 0.8854-0.0132 0.30502-9e-3 0.52834-0.21476 0.56062-0.49605 0.03096-0.27143-0.16272-0.55931-0.46246-0.58106-0.93152-0.0665-1.863-0.1008-2.6878 0.47235-0.46707 0.32477-0.94732 0.63111-1.4197 0.94799-0.68315 0.45851-1.3657 0.46576-2.0521 7e-3 -0.28196-0.18842-0.5593-0.38474-0.85048-0.55866-1.002-0.59883-2.0086-0.59684-3.0067 9e-3 -0.31753 0.19302-0.61728 0.41635-0.93349 0.61134-0.61728 0.37945-1.2418 0.3755-1.8564-7e-3 -0.29711-0.18512-0.57972-0.39328-0.8775-0.57774-1.0396-0.64429-2.0831-0.64298-3.12 7e-3 -0.29645 0.18578-0.57841 0.39526-0.87684 0.5784-0.61662 0.37814-1.2411 0.37814-1.8564-6e-3 -0.32478-0.20291-0.63309-0.43282-0.96248-0.62782-0.98092-0.57907-1.9704-0.57775-2.9507 4e-3 -0.27273 0.16141-0.53032 0.34849-0.79449 0.52373-0.78658 0.52044-1.3992 0.52044-2.1898-2e-3 -0.35574-0.23519-0.72268-0.4572-1.0633-0.7128-0.68579-0.51451-1.4447-0.76155-2.3024-0.70622l6.551e-4 6.5e-4z"/>
  </g>
  <g transform="matrix(.35278 0 0 .35278 35.889 79.808)" clip-path="url(#clipPath80668)">
   <path d="m232.44 6.6765c-0.0738-0.5066-0.26483-0.8966-0.6344-1.197-0.20422-0.16535-0.4203-0.31556-0.62518-0.48025-1.1022-0.88804-1.3558-2.3294-0.61531-3.5324 0.24112-0.39132 0.50001-0.77143 0.75892-1.1509 0.2253-0.32939 0.52373-0.40515 0.81424-0.22069 0.29712 0.18841 0.34784 0.51055 0.12386 0.85905-0.22464 0.34981-0.46312 0.69106-0.68909 1.0402-0.50067 0.77341-0.34389 1.6068 0.38474 2.1779 0.34321 0.26878 0.70817 0.53098 0.98289 0.86234 0.70358 0.84851 0.76419 2.0488 0.18907 3.0093-0.25232 0.42228-0.5323 0.82874-0.81161 1.2346-0.21082 0.30633-0.51847 0.37353-0.79647 0.195-0.28063-0.18051-0.34323-0.51385-0.14031-0.83336 0.22924-0.35969 0.49407-0.69897 0.70094-1.0705 0.15414-0.27801 0.2411-0.59422 0.35771-0.89331z"/>
  </g>
  <g transform="matrix(.35278 0 0 .35278 61.157 76.933)" clip-path="url(#clipPath80662)">
   <path d="m155.04 8.72c0.56852-0.00132 0.8294 0.46049 0.59027 0.86498-0.20027 0.33861-0.43019 0.65944-0.64693 0.98817-0.61794 0.93481-0.49211 1.726 0.40976 2.3828 0.56787 0.41371 1.0712 0.86827 1.2998 1.5587 0.26287 0.79515 0.17656 1.5554-0.25625 2.2682-0.24376 0.40186-0.51056 0.78988-0.77605 1.1779-0.21673 0.31621-0.54547 0.39724-0.81886 0.21806-0.28922-0.19039-0.33533-0.51912-0.11331-0.86234 0.22595-0.3485 0.46115-0.69106 0.68579-1.0409 0.48816-0.76023 0.34059-1.5916-0.36563-2.1568-0.34058-0.27274-0.7049-0.53098-0.98487-0.85839-0.68712-0.80371-0.7912-1.9994-0.27142-2.9177 0.26878-0.47498 0.58038-0.92756 0.89923-1.3709 0.0975-0.13505 0.28394-0.2062 0.34915-0.25165z"/>
  </g>
  <g transform="matrix(.35278 0 0 .35278 10.715 77.312)" clip-path="url(#clipPath80656)">
   <path d="m308.22 7.57c0.18775 0.13637 0.40976 0.21674 0.47168 0.3643 0.0731 0.17458 0.0744 0.44138-0.0106 0.60805-0.19235 0.37748-0.46048 0.71609-0.69235 1.0738-0.50531 0.78197-0.36761 1.6068 0.36166 2.1773 0.20685 0.1614 0.42426 0.31028 0.62388 0.48091 0.99475 0.84983 1.2372 2.2636 0.57049 3.3888-0.25625 0.43216-0.54217 0.84785-0.82873 1.2609-0.20093 0.2892-0.53955 0.35179-0.80375 0.17458-0.27206-0.18314-0.32937-0.49145-0.13107-0.807 0.23255-0.37024 0.48355-0.72861 0.72003-1.0969 0.48816-0.75957 0.33072-1.5883-0.37417-2.1536-0.38144-0.30567-0.79779-0.6041-1.0778-0.99278-0.65286-0.90582-0.68118-1.8914-0.1232-2.8664 0.24374-0.42623 0.52109-0.83599 0.8103-1.2326 0.10672-0.14625 0.29248-0.23387 0.48288-0.3788l6.7e-4 -6.585e-4z"/>
  </g>
  <g transform="matrix(.35278 0 0 .35278 30.368 12.428)" clip-path="url(#clipPath80650)">
   <path d="m248.06 205.9c0 0.26285 0.0118 0.52572-3e-3 0.78791-0.0204 0.36232-0.25166 0.59092-0.57314 0.59158-0.32214 0-0.56326-0.22794-0.57315-0.58961-0.0152-0.54679-0.0158-1.0949 1e-3 -1.6417 0.0105-0.33927 0.25495-0.57379 0.55403-0.58434 0.30831-0.0112 0.556 0.23255 0.5929 0.58303 2e-3 0.0217 2e-3 0.0435 2e-3 0.0659v0.7879h-1e-3v-6.6e-4z"/>
  </g>
  <g transform="matrix(.35278 0 0 .35278 50.297 12.389)" clip-path="url(#clipPath80644)">
   <path d="m186.42 206.29c0.12254-0.20226 0.18446-0.35642 0.29053-0.4684 0.32939-0.34915 0.67129-0.6871 1.0165-1.0211 0.28394-0.27472 0.59883-0.28724 0.84192-0.0507 0.24374 0.2365 0.23914 0.56326-0.0297 0.84126-0.34915 0.36101-0.70621 0.71411-1.0652 1.0652-0.18908 0.18512-0.43348 0.26088-0.65482 0.11397-0.16141-0.10738-0.26154-0.30765-0.39989-0.47959l6.6e-4 -6.5e-4z"/>
  </g>
  <g transform="matrix(.35278 0 0 .35278 16.236 12.395)" clip-path="url(#clipPath80638)">
   <path d="m291.49 206.89c-0.20026-0.12187-0.36429-0.18774-0.48487-0.30105-0.34323-0.32083-0.67193-0.65747-1-0.99411-0.27603-0.28327-0.29513-0.59554-0.0632-0.84192 0.24112-0.25626 0.57248-0.24704 0.86694 0.0402 0.36035 0.35046 0.73719 0.6904 1.0508 1.0797 0.11661 0.14427 0.14231 0.43808 0.0837 0.62386-0.0494 0.15547-0.28195 0.25363-0.45324 0.39329z"/>
  </g>
 </g>
</svg>
