<svg xmlns="http://www.w3.org/2000/svg" width="29.37" height="27.782" viewBox="0 0 29.37 27.782">
  <g id="b" transform="translate(0)">
    <g id="c" transform="translate(0)">
      <g id="Grupo_101" data-name="Grupo 101">
        <path id="Caminho_212" data-name="Caminho 212" d="M9.165,291.649H4.876A4.881,4.881,0,0,1,0,286.773v-2.608a4.881,4.881,0,0,1,4.876-4.876H9.165a4.881,4.881,0,0,1,4.876,4.876v2.608a4.881,4.881,0,0,1-4.876,4.876ZM4.876,281.222a2.947,2.947,0,0,0-2.943,2.943v2.608a2.947,2.947,0,0,0,2.943,2.943H9.165a2.947,2.947,0,0,0,2.943-2.943v-2.608a2.947,2.947,0,0,0-2.943-2.943H4.876Z" transform="translate(0 -263.868)" />
        <path id="Caminho_213" data-name="Caminho 213" d="M286.775,27.782h-4.289a4.881,4.881,0,0,1-4.876-4.876V4.876A4.881,4.881,0,0,1,282.486,0h4.289a4.881,4.881,0,0,1,4.876,4.876v18.03A4.881,4.881,0,0,1,286.775,27.782ZM282.486,1.933a2.947,2.947,0,0,0-2.943,2.943v18.03a2.947,2.947,0,0,0,2.943,2.943h4.289a2.947,2.947,0,0,0,2.943-2.943V4.876a2.947,2.947,0,0,0-2.943-2.943h-4.289Z" transform="translate(-262.28)" />
        <path id="Caminho_214" data-name="Caminho 214" d="M9.165,14.477H4.876A4.882,4.882,0,0,1,0,9.6V4.876A4.881,4.881,0,0,1,4.876,0H9.165a4.881,4.881,0,0,1,4.876,4.876V9.6a4.881,4.881,0,0,1-4.876,4.876ZM4.876,1.933A2.947,2.947,0,0,0,1.933,4.876V9.6a2.947,2.947,0,0,0,2.943,2.943H9.165A2.947,2.947,0,0,0,12.108,9.6V4.876A2.947,2.947,0,0,0,9.165,1.933H4.876Z" />
        <path id="Caminho_215" data-name="Caminho 215" d="M78.352,116.823H74.216a.966.966,0,1,1,0-1.933h4.136a.966.966,0,1,1,0,1.933Z" transform="translate(-69.205 -108.546)" />
        <path id="Caminho_216" data-name="Caminho 216" d="M78.352,375.633H74.216a.966.966,0,1,1,0-1.933h4.136a.966.966,0,1,1,0,1.933Z" transform="translate(-69.205 -353.064)" />
        <path id="Caminho_217" data-name="Caminho 217" d="M352.491,204.3h-4.434a.966.966,0,1,1,0-1.933h4.434a.966.966,0,1,1,0,1.933Z" transform="translate(-327.924 -191.195)" />
        <path id="Caminho_218" data-name="Caminho 218" d="M352.491,267.673h-4.434a.966.966,0,1,1,0-1.933h4.434a.966.966,0,1,1,0,1.933Z" transform="translate(-327.924 -251.066)" />
        <path id="Caminho_219" data-name="Caminho 219" d="M111.666,83.509a.966.966,0,0,1-.966-.966V78.406a.966.966,0,0,1,1.933,0v4.136A.966.966,0,0,1,111.666,83.509Z" transform="translate(-104.587 -73.164)" />
      </g>
    </g>
  </g>
</svg>
