<svg id="b" xmlns="http://www.w3.org/2000/svg" width="30.26" height="30.278" viewBox="0 0 30.26 30.278">
  <g id="c" transform="translate(0 0)">
    <g id="Grupo_122" data-name="Grupo 122">
      <path id="Caminho_331" data-name="Caminho 331" d="M30.269,6.386a3.877,3.877,0,0,1-.678,1.42,3.033,3.033,0,0,1-3.847.7L25.5,8.37c-.066.059-.133.114-.195.176-.892.892-1.787,1.78-2.671,2.68a.757.757,0,0,0-.169.377c-.091.472-.175.946-.236,1.423-.072.565-.106,1.135-.175,1.7a4.407,4.407,0,0,1-.641,1.728,3.334,3.334,0,0,0-.662,1.891,3.071,3.071,0,0,0,.14.78,5.326,5.326,0,0,1-.816,4.98c-.39.552-.877,1.035-1.3,1.563s-.89,1.078-1.271,1.659a10.71,10.71,0,0,1-1.541,1.936,3.525,3.525,0,0,1-2.8.922c-.655-.041-1.312-.084-1.968-.079-.318,0-.633.141-.954.163a3.788,3.788,0,0,1-2.92-1.187A3.575,3.575,0,0,0,5.1,28.125a3.143,3.143,0,0,1-2.976-3.108,2.969,2.969,0,0,0-.806-1.911A4.188,4.188,0,0,1,.043,20.761,3.74,3.74,0,0,1,.09,19.477a4.655,4.655,0,0,0,.056-1.7A5.208,5.208,0,0,1,.206,15.7,4.277,4.277,0,0,1,1.74,13.619a1.925,1.925,0,0,1,.28-.217,26.556,26.556,0,0,0,3.7-2.873,5.453,5.453,0,0,1,4.1-1.413,6,6,0,0,1,1.266.26,2.625,2.625,0,0,0,2.163-.2c.379-.209.752-.428,1.142-.615A4.9,4.9,0,0,1,16.1,8.151c.742-.067,1.475-.251,2.217-.292a1.552,1.552,0,0,0,1.091-.571c.748-.771,1.516-1.523,2.275-2.282.069-.069.134-.141.159-.166a9.089,9.089,0,0,1-.435-1.371A2.988,2.988,0,0,1,23.7.069,1.781,1.781,0,0,0,23.882,0h1.005a.677.677,0,0,0,.127.058A2.973,2.973,0,0,1,27.374,2.6c.03.216.133.267.32.291a2.893,2.893,0,0,1,1.805.957,3.618,3.618,0,0,1,.769,1.53V6.387ZM13.392,29.176a2.466,2.466,0,0,0,2.118-.917c.39-.467.731-.974,1.1-1.459.47-.617.938-1.235,1.423-1.84.363-.453.782-.863,1.121-1.332a4.477,4.477,0,0,0,.736-4.291,3.95,3.95,0,0,1-.15-1.25,4.181,4.181,0,0,1,.778-2.134,3.841,3.841,0,0,0,.545-1.513c.105-.838.215-1.675.341-2.509a1.642,1.642,0,0,0-.224-1.243,6.176,6.176,0,0,0-1.6-1.6,1.442,1.442,0,0,0-1.094-.239,19.655,19.655,0,0,1-2.068.3A4.393,4.393,0,0,0,14.24,9.8a3.956,3.956,0,0,1-3.654.5,3.642,3.642,0,0,0-2.294-.011A6.668,6.668,0,0,0,5.5,12.053,11.179,11.179,0,0,1,3.3,13.77a11.386,11.386,0,0,0-1.072.783,2.861,2.861,0,0,0-1.08,2.939A4.774,4.774,0,0,1,1.106,19.6a2.116,2.116,0,0,0,.169,1.686A6.594,6.594,0,0,0,2.1,22.43a4,4,0,0,1,1.035,2.447,2.2,2.2,0,0,0,2.255,2.256,3.963,3.963,0,0,1,2.446,1.036,6.437,6.437,0,0,0,1.014.757,2.359,2.359,0,0,0,1.849.24,4.518,4.518,0,0,1,1.167-.123c.51.009,1.018.087,1.527.134Zm8.73-18.916c.062-.055.108-.091.149-.132l2.676-2.674c.4-.4.563-.409,1-.042a2.016,2.016,0,0,0,3.309-1.686,2.024,2.024,0,0,0-3.386-1.309.513.513,0,0,1-.783.021.507.507,0,0,1,.116-.792,3.868,3.868,0,0,1,.9-.55c.277-.109.3-.25.242-.486A1.94,1.94,0,0,0,24.75,1.066a2.013,2.013,0,0,0-1.9,3.252c.369.457.362.6-.055,1.022q-1.285,1.285-2.57,2.57c-.073.073-.14.15-.222.238a7.16,7.16,0,0,1,2.118,2.114Z" transform="translate(-0.009 0)"/>
      <path id="Caminho_332" data-name="Caminho 332" d="M129.877,427.014a1.581,1.581,0,0,1-1.025-.4.509.509,0,1,1,.635-.795.563.563,0,0,0,.772,0,.507.507,0,1,1,.629.8,1.56,1.56,0,0,1-1.011.4Z" transform="translate(-121.017 -400.465)"/>
      <path id="Caminho_333" data-name="Caminho 333" d="M276.925,333.358a1.57,1.57,0,0,1-.431,1.038.506.506,0,0,1-.714.063.5.5,0,0,1-.069-.71.538.538,0,0,0,0-.79.505.505,0,0,1,.075-.713.512.512,0,0,1,.715.071,1.575,1.575,0,0,1,.42,1.043Z" transform="translate(-259.266 -312.452)"/>
      <path id="Caminho_334" data-name="Caminho 334" d="M50.61,273.653a1.527,1.527,0,0,1,.433-1.042.506.506,0,0,1,.778.645.574.574,0,0,0,.008.819.487.487,0,0,1-.07.689.509.509,0,0,1-.716-.05,1.542,1.542,0,0,1-.432-1.061Z" transform="translate(-47.612 -256.295)"/>
      <path id="Caminho_335" data-name="Caminho 335" d="M257.62,248.323a6.277,6.277,0,0,1-.811-.4.484.484,0,0,1-.117-.723.5.5,0,0,1,.731-.078.56.56,0,0,0,.77-.006.5.5,0,0,1,.71.069.509.509,0,0,1-.085.734,1.789,1.789,0,0,1-1.2.408Z" transform="translate(-241.378 -232.36)"/>
      <path id="Caminho_336" data-name="Caminho 336" d="M213.811,299.438a1.575,1.575,0,0,1-1.033-.411.506.506,0,0,1,.631-.792.582.582,0,0,0,.8-.008.493.493,0,0,1,.69.075.5.5,0,0,1-.057.716,1.571,1.571,0,0,1-1.03.419Z" transform="translate(-199.988 -280.457)"/>
      <path id="Caminho_337" data-name="Caminho 337" d="M138.662,195.641a1.565,1.565,0,0,1,1.018.419.514.514,0,0,1,.057.717.5.5,0,0,1-.691.072.576.576,0,0,0-.8-.005.507.507,0,1,1-.628-.8,1.549,1.549,0,0,1,1.043-.409Z" transform="translate(-129.282 -184.048)"/>
      <path id="Caminho_338" data-name="Caminho 338" d="M111.284,297.4c.135.1.33.165.392.3a.6.6,0,0,1,0,.514.642.642,0,0,0,.01.9.449.449,0,0,1-.092.636.485.485,0,0,1-.67.006,1.52,1.52,0,0,1,0-2.18A1.924,1.924,0,0,1,111.284,297.4Z" transform="translate(-103.918 -279.779)"/>
      <path id="Caminho_339" data-name="Caminho 339" d="M206.7,401.488a1.4,1.4,0,0,1-1.026-.4.488.488,0,0,1-.074-.71.48.48,0,0,1,.706-.08.563.563,0,0,0,.793,0,.484.484,0,0,1,.708.072.516.516,0,0,1-.075.715,1.421,1.421,0,0,1-1.033.4Z" transform="translate(-193.304 -376.469)"/>
      <path id="Caminho_340" data-name="Caminho 340" d="M264.068,188.409a.527.527,0,0,1-.508-.51.515.515,0,0,1,1.03.013A.532.532,0,0,1,264.068,188.409Z" transform="translate(-247.945 -176.291)"/>
      <path id="Caminho_341" data-name="Caminho 341" d="M145.467,256.018a.484.484,0,0,1-.5.495.5.5,0,1,1,.015-1.005A.485.485,0,0,1,145.467,256.018Z" transform="translate(-135.901 -240.368)"/>
      <path id="Caminho_342" data-name="Caminho 342" d="M76.9,375.581a.516.516,0,0,1,.008-1.031.515.515,0,1,1-.008,1.031Z" transform="translate(-71.883 -352.358)"/>
      <path id="Caminho_343" data-name="Caminho 343" d="M306.735,204.465a.484.484,0,0,1,.465.531.5.5,0,0,1-.525.478.521.521,0,0,1-.488-.523.5.5,0,0,1,.547-.485Z" transform="translate(-288.046 -192.349)"/>
      <path id="Caminho_344" data-name="Caminho 344" d="M188.115,349.744a.516.516,0,0,1-.5.514.5.5,0,0,1-.52-.513.485.485,0,0,1,.5-.495.5.5,0,0,1,.511.494Z" transform="translate(-176.015 -328.557)"/>
    </g>
  </g>
</svg>
