<svg id="Camada_1-2" xmlns="http://www.w3.org/2000/svg" width="28.444" height="20" viewBox="0 0 28.444 20">
  <g id="Grupo_704" data-name="Grupo 704">
    <path id="Caminho_817" data-name="Caminho 817" d="M55.3,20c-.5-.091-1-.157-1.492-.276a9.86,9.86,0,0,1-5.838-3.954.46.46,0,0,0-.429-.219q-3.249.011-6.5,0a1.111,1.111,0,0,1-.3-2.188,1.415,1.415,0,0,1,.357-.031q2.624,0,5.249,0h.344a10.117,10.117,0,0,1,0-6.667h-.319q-2.666,0-5.332,0a1.111,1.111,0,0,1-.3-2.188,1.415,1.415,0,0,1,.357-.032q3.235,0,6.471,0a.416.416,0,0,0,.386-.2A9.968,9.968,0,0,1,54.863.067L55.3,0h1.667c.434.075.876.121,1.3.229a9.873,9.873,0,0,1,7.586,7.449c.131.486.187.992.278,1.489v1.111c-.029.056-.062.109-.088.166A1.111,1.111,0,0,1,63.908,10a7.772,7.772,0,0,0-15.4-1.5,7.71,7.71,0,0,0,5.263,8.887A7.516,7.516,0,0,0,61.5,15.6a1.216,1.216,0,0,1,1.173-.4,1.109,1.109,0,0,1,.508,1.885,9.777,9.777,0,0,1-4.916,2.688c-.431.093-.869.153-1.3.227H55.3Z" transform="translate(-37.686)" />
    <path id="Caminho_818" data-name="Caminho 818" d="M0,160.766a2.125,2.125,0,0,1,.389-.554,1.312,1.312,0,0,1,.7-.267c1.342-.025,2.685-.014,4.027-.011a1.109,1.109,0,0,1,0,2.219c-1.241,0-2.482-.022-3.722.011a1.29,1.29,0,0,1-1.4-.842Z" transform="translate(0 -151.044)" />
    <path id="Caminho_819" data-name="Caminho 819" d="M314.213,84.454c1.132,0,2.223,0,3.315,0a1.111,1.111,0,0,1,.3,2.189,1.189,1.189,0,0,1-.3.031q-2.194,0-4.388,0a1.092,1.092,0,0,1-1.143-1.153q0-2.167,0-4.333a1.112,1.112,0,1,1,2.221-.012q0,1.472,0,2.944Z" transform="translate(-294.658 -75.565)" />
  </g>
</svg>
