<?xml version="1.0" encoding="UTF-8" standalone="no"?>
<svg
   xmlns:dc="http://purl.org/dc/elements/1.1/"
   xmlns:cc="http://creativecommons.org/ns#"
   xmlns:rdf="http://www.w3.org/1999/02/22-rdf-syntax-ns#"
   xmlns:svg="http://www.w3.org/2000/svg"
   xmlns="http://www.w3.org/2000/svg"
   id="svg8"
   version="1.1"
   viewBox="0 0 210 210"
   height="210mm"
   width="210mm">
  <defs
     id="defs2" />
  <metadata
     id="metadata5">
    <rdf:RDF>
      <cc:Work
         rdf:about="">
        <dc:format>image/svg+xml</dc:format>
        <dc:type
           rdf:resource="http://purl.org/dc/dcmitype/StillImage" />
        <dc:title></dc:title>
      </cc:Work>
    </rdf:RDF>
  </metadata>
  <g
     transform="translate(0,-87)"
     id="layer1">
    <path
       id="path23"
       d=""
       style="fill:#000000;stroke-width:1.97157252" />
    <path
       id="path21"
       d=""
       style="fill:#000000;stroke-width:1.97157252" />
    <path
       d="M 115.14482,251.52366 C 91.185954,245.04931 83.542398,235.75157 70.755998,221.7619 l -27.085632,-0.50698 c -23.652052,-0.44271 -23.730234,-1.13194 -23.730234,-5.43162 0,-4.24956 1.748862,-5.84324 21.943215,-5.88341 l 21.943216,-0.0436 c -3.497752,-14.65937 -6.10808,-29.68851 0,-48.35032 l -21.438257,-0.001 c -17.004615,-0.001 -21.71555,-0.72424 -22.779078,-3.49575 -3.077674,-8.02029 3.391906,-10.36474 28.601771,-10.36474 h 24.240498 l 9.18531,-9.46483 c 13.151651,-13.55188 27.080013,-19.28283 46.864493,-19.28283 35.81691,0 65.91391,27.0102 66.7049,59.86356 0.26064,10.82601 -0.1005,11.61563 -5.3123,11.61563 -4.94832,0 -5.8917,-1.50109 -8.19607,-13.04148 -1.43226,-7.17281 -5.38895,-17.24966 -8.79265,-22.39299 -18.14167,-27.41391 -59.68912,-30.30635 -82.9707,-5.77624 -20.922495,22.04452 -17.609613,59.86759 6.879784,78.54627 19.571166,14.92744 41.637196,15.12505 63.611776,0.56968 11.45948,-7.59043 17.73623,-7.58456 17.73623,0.0166 0,5.14864 -11.16055,14.50192 -23.41223,19.621 -10.98931,4.59163 -28.94947,6.20848 -39.60522,3.56543 z M 6.5548627,190.11903 c -0.8956809,-0.89567 -1.62851,-3.40417 -1.62851,-5.57444 0,-4.41989 8.5841653,-6.85492 23.9643003,-6.79782 11.544906,0.0428 16.031707,2.54538 14.927274,8.32575 -0.710534,3.71878 -3.330451,4.43857 -18.232162,5.00894 -9.571316,0.36634 -18.1352225,-0.0667 -19.0309023,-0.96243 z m 117.7117873,-0.0886 c -0.84694,-0.84692 -1.53988,-10.09046 -1.53988,-20.54118 0,-15.41727 0.70874,-19.27328 3.75748,-20.4432 6.6153,-2.53852 10.10139,3.06754 10.10139,16.24425 v 12.42114 h 11.10759 c 12.61743,0 20.41954,4.30961 18.21286,10.06014 -1.19195,3.10617 -4.98021,3.79873 -20.77864,3.79873 -10.62651,0 -20.01388,-0.69294 -20.8608,-1.53988 z"
       style="fill:#000000;stroke-width:2.30981231"
       id="path135" />
  </g>
</svg>
