<?xml version="1.0" encoding="UTF-8" standalone="no"?>
<svg
   xmlns:dc="http://purl.org/dc/elements/1.1/"
   xmlns:cc="http://creativecommons.org/ns#"
   xmlns:rdf="http://www.w3.org/1999/02/22-rdf-syntax-ns#"
   xmlns:svg="http://www.w3.org/2000/svg"
   xmlns="http://www.w3.org/2000/svg"
   xmlns:inkscape="http://www.inkscape.org/namespaces/inkscape"
   id="svg2736"
   version="1.1"
   viewBox="0 0 210 297"
   height="297mm"
   width="210mm"
   inkscape:version="0.92.4 (5da689c313, 2019-01-14)">
  <defs
     id="defs2730" />
  <metadata
     id="metadata2733">
    <rdf:RDF>
      <cc:Work
         rdf:about="">
        <dc:format>image/svg+xml</dc:format>
        <dc:type
           rdf:resource="http://purl.org/dc/dcmitype/StillImage" />
        <dc:title></dc:title>
      </cc:Work>
    </rdf:RDF>
  </metadata>
  <g
     id="g205"
     transform="matrix(29.971024,0,0,29.971024,-11248.049,-10223.887)">
    <g
       transform="matrix(0.35277777,0,0,0.35277777,376.49753,342.43616)"
       id="g30">
      <path
         inkscape:connector-curvature="0"
         id="path32"
         style="fill:#f0aa00;fill-opacity:1;fill-rule:nonzero;stroke:none"
         d="m 7.4203329,0 c 0.4872251,0 0.9697695,0.06615885 1.4476338,0.19847654 0.4778642,0.13231768 0.9418649,0.32825179 1.3920043,0.5878023 0.450137,0.25955056 0.877763,0.57773026 1.282877,0.95453916 0.405114,0.3768089 0.779931,0.805007 1.124452,1.2845938 0.344521,0.4795869 0.652125,1.0013473 0.922813,1.5652817 0.270688,0.5639348 0.499259,1.1592068 0.685712,1.7858171 0.186453,0.6266108 0.327207,1.2725191 0.42226,1.9377251 0.09505,0.6652069 0.14258,1.3369293 0.142581,2.0151673 -1e-6,0.678238 -0.04753,1.349959 -0.14258,2.015165 -0.09505,0.665205 -0.235807,1.311114 -0.42226,1.937724 -0.186454,0.626611 -0.415025,1.221884 -0.685713,1.785817 -0.270688,0.563937 -0.578292,1.085698 -0.922813,1.565283 -0.344521,0.479588 -0.719338,0.907786 -1.124452,1.284594 -0.405114,0.376808 -0.83274,0.694988 -1.282877,0.954538 -0.4501394,0.25955 -0.9141401,0.455487 -1.3920043,0.587805 -0.4778643,0.132319 -0.9604087,0.198477 -1.4476338,0.198477 -0.4872265,0 -0.9697719,-0.06616 -1.4476356,-0.198477 C 5.494833,20.328011 5.0308318,20.132074 4.5806937,19.872524 4.1305556,19.612974 3.70293,19.294794 3.2978165,18.917986 2.8927031,18.541178 2.5178859,18.11298 2.1733651,17.633392 1.8288442,17.153807 1.5212398,16.632046 1.2505516,16.068109 0.97986317,15.504176 0.75129241,14.908903 0.56483912,14.282292 0.37838581,13.655682 0.23763265,13.009773 0.14257958,12.344568 0.04752652,11.679362 0,11.007641 0,10.329403 0,9.651165 0.04752652,8.9794426 0.14257958,8.3142366 0.23763265,7.6490302 0.37838581,7.0031219 0.56483912,6.3765111 0.75129241,5.7499008 0.97986317,5.1546283 1.2505515,4.590694 1.5212398,4.0267596 1.8288442,3.5049987 2.1733651,3.0254118 2.5178859,2.545825 2.8927031,2.1176269 3.2978165,1.740818 3.70293,1.3640091 4.1305556,1.0458294 4.5806937,0.78627884 5.0308318,0.52672833 5.494833,0.33079422 5.9726973,0.19847654 6.450561,0.06615885 6.9331064,0 7.4203329,0 Z" />
    </g>
    <g
       transform="matrix(0.35277777,0,0,0.35277777,378.48742,342.43616)"
       id="g34">
      <path
         inkscape:connector-curvature="0"
         id="path36"
         style="fill:#f0aa00;fill-opacity:1;fill-rule:nonzero;stroke:none"
         d="M 0,0 H 1.6315095 V 20.660902 H 0 Z" />
    </g>
    <g
       transform="matrix(0.35277777,0,0,0.35277777,375.86949,342.43616)"
       id="g38">
      <path
         inkscape:connector-curvature="0"
         id="path40"
         style="fill:#ffcc00;fill-opacity:1;fill-rule:nonzero;stroke:none"
         d="m 7.4203329,0 c 0.4872251,0 0.9697695,0.06615885 1.4476338,0.19847654 0.4778642,0.13231768 0.9418649,0.32825179 1.3920043,0.5878023 0.450137,0.25955056 0.877763,0.57773026 1.282877,0.95453916 0.405114,0.3768089 0.779931,0.805007 1.124452,1.2845938 0.344521,0.4795869 0.652125,1.0013473 0.922813,1.5652817 0.270688,0.5639348 0.499259,1.1592068 0.685712,1.7858171 0.186453,0.6266108 0.327207,1.2725191 0.42226,1.9377251 0.09505,0.6652069 0.14258,1.3369293 0.142581,2.0151673 -1e-6,0.678238 -0.04753,1.349959 -0.14258,2.015165 -0.09505,0.665205 -0.235807,1.311114 -0.42226,1.937724 -0.186454,0.626611 -0.415025,1.221884 -0.685713,1.785817 -0.270688,0.563937 -0.578292,1.085698 -0.922813,1.565283 -0.344521,0.479588 -0.719338,0.907786 -1.124452,1.284594 -0.405114,0.376808 -0.83274,0.694988 -1.282877,0.954538 -0.4501394,0.25955 -0.9141401,0.455487 -1.3920043,0.587805 -0.4778643,0.132319 -0.9604087,0.198477 -1.4476338,0.198477 -0.4872265,0 -0.9697719,-0.06616 -1.4476356,-0.198477 C 5.494833,20.328011 5.0308318,20.132074 4.5806937,19.872524 4.1305556,19.612974 3.70293,19.294794 3.2978165,18.917986 2.8927031,18.541178 2.5178859,18.11298 2.1733651,17.633392 1.8288442,17.153807 1.5212398,16.632046 1.2505516,16.068109 0.97986317,15.504176 0.75129241,14.908903 0.56483912,14.282292 0.37838581,13.655682 0.23763265,13.009773 0.14257958,12.344568 0.04752652,11.679362 0,11.007641 0,10.329403 0,9.651165 0.04752652,8.9794426 0.14257958,8.3142366 0.23763265,7.6490302 0.37838581,7.0031219 0.56483912,6.3765111 0.75129241,5.7499008 0.97986317,5.1546283 1.2505515,4.590694 1.5212398,4.0267596 1.8288442,3.5049987 2.1733651,3.0254118 2.5178859,2.545825 2.8927031,2.1176269 3.2978165,1.740818 3.70293,1.3640091 4.1305556,1.0458294 4.5806937,0.78627884 5.0308318,0.52672833 5.494833,0.33079422 5.9726973,0.19847654 6.450561,0.06615885 6.9331064,0 7.4203329,0 Z" />
    </g>
    <g
       transform="matrix(0.35277777,0,0,0.35277777,375.05231,342.43616)"
       id="g42">
      <path
         inkscape:connector-curvature="0"
         id="path44"
         style="fill:#fcdc59;fill-opacity:1;fill-rule:nonzero;stroke:none"
         d="M 3.5268929,6.6244721 C 3.8431423,6.7752666 4.5573206,6.8192487 4.9364004,6.7312856 6.320775,6.4087524 7.4915247,5.4285913 8.2873831,4.130085 9.0602045,2.8755612 9.4895487,1.4681492 9.6843252,0 6.6600609,0.03141546 4.0672398,2.5781617 2.9299996,6.2118831 3.105926,6.3773384 3.3027964,6.5176601 3.5268929,6.6244721 Z" />
    </g>
    <g
       transform="matrix(0.35277777,0,0,0.35277777,375.87224,341.18114)"
       id="g46">
      <path
         inkscape:connector-curvature="0"
         id="path48"
         style="fill:#fcdc59;fill-opacity:1;fill-rule:nonzero;stroke:none"
         d="M 8.7339668,19.68832 C 11.726813,17.870413 14.059935,15.128893 14.669396,11.736024 14.179317,8.5127974 12.608541,5.8445768 10.507894,4.4999957 10.179078,6.5671329 9.4607105,8.533741 8.1768656,10.223892 c -1.4053183,1.85142 -3.4598885,3.212756 -5.8181424,3.378209 -0.8377454,0.05864 -1.6315094,-0.09006 -2.3519705,-0.395835 -0.01047182,0.224098 -0.01675491,0.450289 -0.01675491,0.678575 0,3.382398 1.16656071,6.38362 2.97190241,8.268546 C 4.993433,21.560682 6.983079,20.74807 8.7318707,19.686228 l 0.0021,0.0021 z" />
    </g>
    <g
       transform="matrix(0.35277777,0,0,0.35277777,366.52397,319.80397)"
       id="g50">
      <path
         inkscape:connector-curvature="0"
         id="path52"
         style="fill:#fcdc59;fill-opacity:1;fill-rule:nonzero;stroke:none"
         d="m 33.509995,84.798378 c 0.134033,0.01047 0.268074,0.01466 0.402111,0.01466 2.272392,0 4.306018,-1.424187 5.66526,-3.663048 -1.77393,1.556114 -3.870388,2.74781 -6.067371,3.648384 z" />
    </g>
    <g
       transform="matrix(0.35277777,0,0,0.35277777,373.61605,339.50778)"
       id="g54">
      <path
         inkscape:connector-curvature="0"
         id="path56"
         style="fill:#da8100;fill-opacity:1;fill-rule:nonzero;stroke:none"
         d="m 19.280657,18.43973 c 0,4.385603 -2.506953,7.939737 -5.600329,7.939737 -3.093376,0 -5.600329,-3.556231 -5.600329,-7.939737 0,-4.383502 2.509048,-7.93973 5.600329,-7.93973 3.09128,0 5.600329,3.554133 5.600329,7.93973 z" />
    </g>
    <g
       transform="matrix(0.35277777,0,0,0.35277777,372.78509,338.9974)"
       id="g58">
      <path
         inkscape:connector-curvature="0"
         id="path60"
         style="fill:#f0aa00;fill-opacity:1;fill-rule:nonzero;stroke:none"
         d="m 21.908806,20.077053 c 0,4.278784 -2.429463,7.747049 -5.424404,7.747049 -2.994943,0 -5.424402,-3.468265 -5.424402,-7.747049 0,-4.278785 2.429461,-7.747053 5.424402,-7.747053 2.994941,0 5.424404,3.468268 5.424404,7.747053 z" />
    </g>
    <g
       transform="matrix(0.35277777,0,0,0.35277777,370.16613,333.08019)"
       id="g62">
      <path
         inkscape:connector-curvature="0"
         id="path64"
         style="fill:#ea9c00;fill-opacity:1;fill-rule:nonzero;stroke:none"
         d="m 21.342199,39.671371 c 1.216826,0.820992 3.430569,1.598 3.487118,-0.601081 0.01047,-0.404213 0.01466,-0.607369 0.02094,-1.011574 -0.242945,0.678566 -0.804239,0.896377 -1.463961,0.833565 -1.614759,-0.15709 -2.245157,-1.164483 -2.257723,-2.64938 -0.0042,-0.431439 -0.0084,-0.649258 -0.01885,-1.080692 -0.01047,-0.433533 -0.09634,-0.605271 -0.628309,-0.502648 -0.01047,-0.33091 -0.01675,-0.496368 -0.03141,-0.827278 1.107918,-0.444 2.157196,-0.515205 2.196989,0.864975 0.01675,0.586426 0.02303,0.879635 0.02722,1.468147 0.0063,0.806328 0.268082,1.388565 1.034615,1.417885 1.057655,0.0398 1.061846,-1.386467 1.047184,-2.186516 -0.0042,-0.299492 -0.0084,-0.450283 -0.01675,-0.749778 0.613649,-0.06702 0.91942,-0.100529 1.533071,-0.165459 0.05027,1.897495 0.05027,2.848335 0,4.745834 0.08168,3.401245 -3.122694,2.957237 -5.049509,1.505844 0.05026,-0.423057 0.0733,-0.63459 0.117281,-1.061844 h 0.0021 z" />
    </g>
    <g
       transform="matrix(0.35277777,0,0,0.35277777,364.68774,336.09567)"
       id="g66">
      <path
         inkscape:connector-curvature="0"
         id="path68"
         style="fill:#ea9c00;fill-opacity:1;fill-rule:nonzero;stroke:none"
         d="m 40.959816,22.76074 c -0.508934,0.134043 -0.8922,0.699517 -0.864975,1.264996 0.02932,0.565479 0.460762,0.955032 0.973885,0.873352 0.513118,-0.08168 0.908954,-0.649256 0.877536,-1.264998 -0.03142,-0.615741 -0.475422,-1.007391 -0.986446,-0.87335 z" />
    </g>
    <g
       transform="matrix(0.35277777,0,0,0.35277777,370.53441,333.08019)"
       id="g70">
      <path
         inkscape:connector-curvature="0"
         id="path72"
         style="fill:#ffcc00;fill-opacity:1;fill-rule:nonzero;stroke:none"
         d="m 20.022202,39.671371 c 1.216823,0.820992 3.430566,1.598 3.487113,-0.601081 0.01047,-0.404213 0.01466,-0.607369 0.02094,-1.011574 -0.242945,0.678566 -0.804233,0.896377 -1.463959,0.833565 -1.614755,-0.15709 -2.245159,-1.164483 -2.257726,-2.64938 -0.0042,-0.431439 -0.0084,-0.649258 -0.01885,-1.080692 -0.01047,-0.433533 -0.09634,-0.605271 -0.628311,-0.502648 -0.01047,-0.33091 -0.01675,-0.496368 -0.03141,-0.827278 1.107918,-0.444 2.157194,-0.515205 2.196989,0.864975 0.01675,0.586426 0.02304,0.879635 0.02723,1.468147 0.0063,0.806328 0.268077,1.388565 1.034616,1.417885 1.057654,0.0398 1.061842,-1.386467 1.047182,-2.186516 -0.0042,-0.299492 -0.0084,-0.450283 -0.01675,-0.749778 0.613649,-0.06702 0.919424,-0.100529 1.533072,-0.165459 0.05027,1.897495 0.05027,2.848335 0,4.745834 0.08168,3.401245 -3.122696,2.957237 -5.049511,1.505844 0.05027,-0.423057 0.0733,-0.63459 0.117284,-1.061844 h 0.0021 z" />
    </g>
    <g
       transform="matrix(0.35277777,0,0,0.35277777,365.05327,336.09567)"
       id="g74">
      <path
         inkscape:connector-curvature="0"
         id="path76"
         style="fill:#ffcc00;fill-opacity:1;fill-rule:nonzero;stroke:none"
         d="m 39.649818,22.76074 c -0.508941,0.134043 -0.892204,0.699517 -0.864975,1.264996 0.02932,0.565479 0.460755,0.955032 0.973877,0.873352 0.513115,-0.08168 0.908959,-0.649256 0.877541,-1.264998 -0.03142,-0.615741 -0.475426,-1.007391 -0.986443,-0.87335 z" />
    </g>
  </g>
</svg>
