<svg id="b" xmlns="http://www.w3.org/2000/svg" width="18.843" height="18.839" viewBox="0 0 18.843 18.839">
  <g id="c" transform="translate(0 0)">
    <g id="Grupo_106" data-name="Grupo 106">
      <path id="Caminho_240" data-name="Caminho 240" d="M12.233,0a1.986,1.986,0,0,1,.414.311.685.685,0,0,1,.049.779.709.709,0,0,1-.682.382c-2.52,0-5.041-.011-7.561,0A2.879,2.879,0,0,0,1.731,3.181a2.751,2.751,0,0,0-.278,1.244q0,4.995,0,9.989A2.937,2.937,0,0,0,4.4,17.364q4.995.013,9.989,0a2.944,2.944,0,0,0,2.957-2.977c.006-2.251,0-4.5,0-6.752a.728.728,0,0,1,.981-.716.713.713,0,0,1,.488.648c0,.055,0,.11,0,.166q0,3.321,0,6.641a4.415,4.415,0,0,1-3.727,4.414,3.735,3.735,0,0,1-.622.046q-5.068,0-10.137,0A4.411,4.411,0,0,1,.051,15.217C.033,15.111,0,15.006-.02,14.9q0-5.482,0-10.964a.326.326,0,0,0,.034-.081A4.407,4.407,0,0,1,3.262.147C3.478.089,3.7.048,3.918,0Z" transform="translate(0.02 0.001)" />
      <path id="Caminho_241" data-name="Caminho 241" d="M291.729-.019c.116.032.233.062.348.1A2.311,2.311,0,0,1,293.2,3.749c-1.362,1.649-2.741,3.283-4.116,4.922a.741.741,0,1,1-1.126-.961l4-4.778a.859.859,0,0,0,.179-1.043.826.826,0,0,0-1.376-.121c-.637.769-1.264,1.547-1.894,2.322q-1.062,1.3-2.122,2.61a.742.742,0,1,1-1.149-.933q1.988-2.446,3.977-4.892A2.3,2.3,0,0,1,291.038.01a.277.277,0,0,0,.066-.03h.626Z" transform="translate(-274.877 0.02)" />
      <path id="Caminho_242" data-name="Caminho 242" d="M119.9,212.051a3.706,3.706,0,0,1-1.339,2.766,7.348,7.348,0,0,1-3.579,1.758,7.974,7.974,0,0,1-1.475.148,2.077,2.077,0,0,1-2-1.639,1.406,1.406,0,0,1,.124-.966,18.067,18.067,0,0,0,1.069-2.648,4.706,4.706,0,0,1,1.634-2.321,3.49,3.49,0,0,1,5.463,2.139c.049.251.066.508.1.762Zm-3.5-2.09a2.117,2.117,0,0,0-1.45.6,3.617,3.617,0,0,0-.883,1.485A16.678,16.678,0,0,1,113,214.691c-.076.135-.006.238.079.329a.846.846,0,0,0,.741.234,6.983,6.983,0,0,0,2.215-.551,4.413,4.413,0,0,0,1.934-1.415,2.017,2.017,0,0,0,.2-2.215A1.969,1.969,0,0,0,116.406,209.961Z" transform="translate(-107.369 -200.799)" />
    </g>
  </g>
</svg>
