<svg id="Camada_1-2" xmlns="http://www.w3.org/2000/svg" width="26.469" height="26.469" viewBox="0 0 26.469 26.469">
  <path id="Caminho_820" data-name="Caminho 820" d="M15.458,0c.059.031.118.064.179.093a1.043,1.043,0,0,1,.58,1.178,1.029,1.029,0,0,1-1.014.8q-4.975,0-9.949,0a3.094,3.094,0,0,0-3.1,2.447,3.274,3.274,0,0,0-.081.741q-.007,7.973,0,15.945a3.118,3.118,0,0,0,3.2,3.2q7.973,0,15.945,0A3.116,3.116,0,0,0,24.4,21.215c0-3.274.01-6.547-.007-9.82a1.092,1.092,0,0,1,.831-1.147,1.047,1.047,0,0,1,1.209.728c.006.014.023.023.036.035V21.868a.931.931,0,0,0-.048.145,5.063,5.063,0,0,1-3.246,4.1,10.735,10.735,0,0,1-1.307.359H4.6a.938.938,0,0,0-.144-.048,5.093,5.093,0,0,1-4.251-3.68c-.093-.283-.139-.582-.206-.873Q0,13.235,0,4.6A1.541,1.541,0,0,0,.05,4.43,5.1,5.1,0,0,1,3.7.211c.29-.1.6-.142.9-.211Z" />
  <path id="Caminho_821" data-name="Caminho 821" d="M106.3,28.509c-.29-.037-.8-.082-1.311-.172a.958.958,0,0,1-.818-.824,7.658,7.658,0,0,1,2.065-7.067C110,16.6,113.825,12.8,117.651,9.015a3.9,3.9,0,0,1,4.173-.971,3.934,3.934,0,0,1,2.79,3.225,4.009,4.009,0,0,1-1.21,3.7q-3.222,3.23-6.452,6.453c-1.64,1.638-3.261,3.3-4.929,4.9a7.98,7.98,0,0,1-5.725,2.186Zm10.3-15.5c-.085.08-.136.125-.184.173q-4.267,4.267-8.533,8.537a6.578,6.578,0,0,0-.641.742,5.92,5.92,0,0,0-1.154,3.647c0,.2.038.336.282.316.334-.026.674-.013,1-.06a6.075,6.075,0,0,0,3.51-1.811q5.483-5.5,10.981-10.987a3.565,3.565,0,0,0,.311-.345,2.06,2.06,0,0,0-.149-2.672,2.022,2.022,0,0,0-2.658-.256,18.352,18.352,0,0,0-1.345,1.258c.26.248.495.461.718.687a1.039,1.039,0,1,1-1.462,1.475c-.227-.222-.444-.457-.681-.7Z" transform="translate(-98.634 -7.407)" />
</svg>
