<svg id="Camada_1-2" xmlns="http://www.w3.org/2000/svg" width="20.11" height="24" viewBox="0 0 20.11 24">
  <path id="Caminho_809" data-name="Caminho 809" d="M13.428,9.561a.117.117,0,0,0,.156.095,4.759,4.759,0,0,0,2.45-2.065,1.731,1.731,0,0,1,.563-.573.907.907,0,0,1,1.144.354,9.656,9.656,0,0,1,2.28,5.087,9.72,9.72,0,0,1-3.531,9.151,9.553,9.553,0,0,1-9.834,1.735A9.532,9.532,0,0,1,.2,15.884,10.2,10.2,0,0,1,2.963,6.735c2.072-2.1,4.172-4.18,6.262-6.265.633-.631,1.083-.629,1.689.043a10.118,10.118,0,0,1,2.555,8.733c-.016.1-.034.2-.042.3v.015ZM10.094,2.392a.119.119,0,0,0-.172-.018c-.041.035-.074.063-.1.094-1.9,1.906-3.831,3.79-5.708,5.723A8.208,8.208,0,0,0,4.2,19.68a18.757,18.757,0,0,0,1.519,1.262.119.119,0,0,0,.187-.055.076.076,0,0,0,.006-.032c-.013-.1-.032-.2-.051-.3a4.2,4.2,0,0,1,1.125-3.884c.761-.8,1.551-1.563,2.336-2.335a.916.916,0,0,1,1.447-.012c.805.793,1.611,1.586,2.393,2.4a4.232,4.232,0,0,1,1.119,3.648c-.015.114-.038.226-.066.349a.119.119,0,0,0,.176.128A8.114,8.114,0,0,0,17.013,9.593a.118.118,0,0,0-.185-.007c-.064.074-.126.146-.193.215a6.117,6.117,0,0,1-4.279,1.943c-.982.042-1.386-.515-1.055-1.446a8.263,8.263,0,0,0,.408-4.106,8.383,8.383,0,0,0-1.614-3.8ZM10.1,16.48a.117.117,0,0,0-.159,0,17.8,17.8,0,0,0-1.868,1.775,2.357,2.357,0,0,0,.349,3.25,2.443,2.443,0,0,0,3.221.03,2.352,2.352,0,0,0,.4-3.242A17.794,17.794,0,0,0,10.1,16.48Z" transform="translate(-0.005 -0.002)" />
</svg>
