<?xml version="1.0" encoding="UTF-8" standalone="no"?>
<svg
   xmlns:dc="http://purl.org/dc/elements/1.1/"
   xmlns:cc="http://creativecommons.org/ns#"
   xmlns:rdf="http://www.w3.org/1999/02/22-rdf-syntax-ns#"
   xmlns:svg="http://www.w3.org/2000/svg"
   xmlns="http://www.w3.org/2000/svg"
   id="svg8"
   version="1.1"
   viewBox="0 0 210 210"
   height="210mm"
   width="210mm">
  <defs
     id="defs2" />
  <metadata
     id="metadata5">
    <rdf:RDF>
      <cc:Work
         rdf:about="">
        <dc:format>image/svg+xml</dc:format>
        <dc:type
           rdf:resource="http://purl.org/dc/dcmitype/StillImage" />
        <dc:title></dc:title>
      </cc:Work>
    </rdf:RDF>
  </metadata>
  <g
     transform="translate(0,-87)"
     id="layer1">
    <path
       id="path23"
       d=""
       style="fill:#000000;stroke-width:1.97157252" />
    <path
       id="path21"
       d=""
       style="fill:#000000;stroke-width:1.97157252" />
    <path
       id="path83"
       d="M 73.672896,283.11374 C 41.755138,269.99204 23.7267,243.32199 23.427224,208.78372 c -0.250266,-28.86304 8.76961,-45.02844 46.414116,-83.1833 17.212119,-17.44548 32.93302,-31.719042 34.93533,-31.719042 5.89314,0 20.27924,22.231172 25.08606,38.766032 2.55732,8.79687 3.8639,20.48934 3.07334,27.50315 -1.75316,15.55395 3.29106,16.22157 16.52698,2.18739 5.19408,-5.50732 11.50061,-9.60597 14.01451,-9.1081 7.86678,1.55795 21.02026,28.6387 22.65231,46.63721 2.396,26.42357 -4.7124,45.70077 -23.93168,64.9001 -25.78091,25.75413 -55.51664,31.91677 -88.525294,18.34658 z m 45.989484,-12.6751 c 8.94431,-8.94432 7.36694,-22.41522 -3.90385,-33.3393 -10.68001,-10.35146 -15.853587,-9.52364 -26.706264,4.27331 -7.3828,9.38571 -7.387155,17.91326 -0.01401,27.2868 7.278127,9.25253 22.279244,10.12407 30.624124,1.77919 z M 71.516146,256.58727 c -0.177875,-12.88786 7.477161,-26.68813 21.760337,-39.22893 11.303847,-9.9249 13.663997,-9.34381 29.722167,7.31788 11.50011,11.93232 16.28121,22.23795 16.28121,35.09403 v 8.58422 l 9.10811,-7.00391 c 14.25862,-10.9645 24.52185,-33.13713 24.52185,-52.97687 0,-14.99138 -5.67825,-36.02242 -9.72583,-36.02242 -0.88238,0 -6.44501,3.20341 -12.36139,7.11869 -13.03839,8.62839 -30.69531,12.18056 -33.99639,6.8393 -1.25138,-2.02476 -1.12516,-6.70629 0.28047,-10.40338 5.82361,-15.31723 1.93949,-43.41885 -8.16887,-59.10172 -4.18713,-6.49625 -4.22246,-6.47302 -31.969742,21.01872 -15.27789,15.13718 -30.315731,32.41228 -33.417424,38.38912 -8.322225,16.03658 -9.834356,38.07343 -3.712479,54.10333 4.705333,12.32074 24.507046,37.32081 29.560554,37.32081 1.248454,0 2.201294,-4.97199 2.117427,-11.04887 z"
       style="fill:#000000;stroke-width:2.80249619" />
  </g>
</svg>
