<?xml version="1.0" encoding="UTF-8" standalone="no"?>
<svg
   xmlns:dc="http://purl.org/dc/elements/1.1/"
   xmlns:cc="http://creativecommons.org/ns#"
   xmlns:rdf="http://www.w3.org/1999/02/22-rdf-syntax-ns#"
   xmlns:svg="http://www.w3.org/2000/svg"
   xmlns="http://www.w3.org/2000/svg"
   xmlns:sodipodi="http://sodipodi.sourceforge.net/DTD/sodipodi-0.dtd"
   xmlns:inkscape="http://www.inkscape.org/namespaces/inkscape"
   id="svg2736"
   version="1.1"
   viewBox="0 0 210 297"
   height="297mm"
   width="210mm"
   sodipodi:docname="fitness.svg"
   inkscape:version="0.92.4 (5da689c313, 2019-01-14)">
  <sodipodi:namedview
     pagecolor="#ffffff"
     bordercolor="#666666"
     borderopacity="1"
     objecttolerance="10"
     gridtolerance="10"
     guidetolerance="10"
     inkscape:pageopacity="0"
     inkscape:pageshadow="2"
     inkscape:window-width="1920"
     inkscape:window-height="934"
     id="namedview17"
     showgrid="false"
     inkscape:zoom="0.4204826"
     inkscape:cx="429.08582"
     inkscape:cy="519.12528"
     inkscape:window-x="0"
     inkscape:window-y="0"
     inkscape:window-maximized="1"
     inkscape:current-layer="svg2736" />
  <defs
     id="defs2730" />
  <metadata
     id="metadata2733">
    <rdf:RDF>
      <cc:Work
         rdf:about="">
        <dc:format>image/svg+xml</dc:format>
        <dc:type
           rdf:resource="http://purl.org/dc/dcmitype/StillImage" />
        <dc:title></dc:title>
      </cc:Work>
    </rdf:RDF>
  </metadata>
  <g
     id="g5196"
     transform="matrix(5.1052407,0,0,5.1052407,23.427106,39.673657)">
    <path
       d="m 0,25.482168 c 0.31532797,-0.403753 0.55808049,-0.91345 0.96099961,-1.190403 1.18957079,-0.816683 2.81542839,-0.02086 3.02564679,1.422312 0.011679,0.07841 0.015015,0.158499 0.025027,0.267778 0.864232,0 1.7084431,0.0075 2.5518207,-0.01001 0.1009383,-0.0017 0.2394152,-0.114285 0.2928043,-0.211886 0.3453588,-0.626487 0.8592276,-0.9927 1.5649619,-1.112827 0.111783,-0.01919 0.2469225,-0.112616 0.3044834,-0.210217 1.2304468,-2.095512 3.0506733,-3.13993 5.4823693,-3.119077 0.956827,0.0083 1.913658,0.0033 2.870485,0 0.644838,-0.0017 0.85589,-0.241917 0.90344,-0.867567 0.04004,-0.525547 -0.09844,-0.786652 -0.632326,-1.025233 -2.528461,-1.130344 -3.861517,-3.129089 -4.035863,-5.897803 -0.0033,-0.05339 -0.01084,-0.107612 -0.01668,-0.15683 -1.358914,-0.261106 -2.025441,-1.003544 -1.97956,-2.191446 0.03837,-0.991032 0.83003,-1.752658 1.995409,-1.8719473 0,-0.8750773 -0.0317,-1.7584959 0.01084,-2.638578 0.03087,-0.6314897 0.09009,-1.2771616 0.257768,-1.8827915 0.840874,-3.0214769 3.710522,-4.97267302 6.956401,-4.77163056 2.978933,0.18519263 5.601659,2.61355166 5.994568,5.64086706 0.129301,0.997704 0.06757,2.0196004 0.09176,3.030652 0.005,0.2052136 0,0.4112616 0,0.6098003 1.285507,0.190198 2.005421,0.949321 1.996243,2.070487 -0.0083,1.06611 -0.762463,1.83274 -1.961207,1.985398 -0.197706,3.104899 -1.742645,5.224604 -4.694883,6.367461 0,0.242752 -0.005,0.518037 8.33e-4,0.79249 0.01085,0.551406 0.265276,0.80417 0.827532,0.807506 1.053595,0.005 2.107191,0 3.161619,0.0017 3.330965,0.0042 5.991232,2.661102 5.993735,5.992899 0.0025,4.814169 -0.0033,9.629179 0.0083,14.443354 8.39e-4,0.386238 -0.106778,0.669029 -0.422938,0.876747 H 12.397016 c -0.33952,-0.215221 -0.440458,-0.523876 -0.422105,-0.918457 0.02586,-0.5756 0.0067,-1.152866 0.0067,-1.745979 -0.254431,0 -0.447965,0 -0.640665,0 -1.8886311,-0.0067 -3.3476489,-1.459019 -3.3526537,-3.341813 -0.00334,-1.401454 -0.02753,-2.802913 0.011679,-4.20354 C 8.0175066,31.792896 7.8164644,31.293213 7.5044727,30.760157 7.13659,30.132004 6.7011375,29.887583 5.9803872,29.963497 5.328876,30.0319 4.6648521,29.977676 4.0141754,29.977676 3.8473351,31.616882 2.2898819,32.475277 0.98185498,31.711983 0.49134439,31.425848 0.23107366,30.965372 0,30.477364 0,28.8123 0,27.147232 0,25.482168 Z m 30.609337,5.146185 c 0,-1.196243 0.04671,-2.34911 -0.01001,-3.496973 -0.107613,-2.175592 -1.523252,-3.909061 -3.644625,-4.330336 -0.991867,-0.196868 -2.039621,-0.115118 -3.063184,-0.137641 -0.08593,-0.0017 -0.186861,0.152656 -0.260273,0.250259 -0.364544,0.48217 -0.667359,1.026068 -1.097809,1.438164 -0.377056,0.362041 -0.894261,0.578935 -1.350569,0.860895 0.03503,0.209385 0.108444,0.452139 0.110949,0.694887 0.01168,1.387276 0.01752,2.775385 0.0025,4.162663 -0.01335,1.23879 -1.263815,2.178096 -2.460894,1.85526 -0.971843,-0.261942 -1.454013,-0.941812 -1.558288,-1.947025 -0.589781,0 -1.177891,0.0609 -1.748485,-0.01418 -0.876744,-0.115118 -1.445671,0.166006 -1.846087,0.974346 -0.207717,0.419603 -0.38123,0.795826 -0.378726,1.278824 0.01752,2.872158 0.0083,5.744312 0.0083,8.617302 v 0.436283 h 13.313848 c 0,-2.486748 0,-4.941799 0,-7.39769 0,-1.276325 -0.0025,-2.553489 0.0017,-3.829815 0.0017,-0.459646 0.259434,-0.731594 0.666529,-0.729093 0.405418,0.0017 0.652346,0.275287 0.66152,0.736599 0.0033,0.188533 0,0.377893 0,0.5781 h 2.653593 l 2e-6,-8.28e-4 z M 14.712802,10.661752 c 0,1.167047 -0.09009,2.282374 0.01835,3.378514 0.249427,2.515118 2.399161,4.448795 4.997698,4.608128 2.460058,0.150991 4.900931,-1.615847 5.372254,-4.057555 0.22607,-1.168715 0.140146,-2.397495 0.191866,-3.599577 0.0042,-0.104274 -0.01835,-0.210219 -0.02419,-0.266944 -0.51804,-0.0659 -1.006049,-0.08342 -1.468195,-0.200208 -0.429613,-0.108446 -0.60396,-0.508864 -0.470492,-0.8767454 0.126797,-0.3495302 0.463816,-0.4813337 0.888424,-0.4012508 0.342858,0.064232 0.69656,0.073409 1.01272,0.1042747 0,-1.1670465 0.0951,-2.2690258 -0.01919,-3.3493166 C 24.944269,3.473443 23.025608,1.6398693 20.382856,1.3704225 18.196417,1.1476908 15.92739,2.4115052 15.008935,4.7547755 14.42833,6.2363167 14.711125,7.7829251 14.638549,9.332037 c 1.64004,0 3.222519,-0.062566 4.795823,0.021688 1.091968,0.058393 1.991237,-0.1376428 2.633571,-1.0777874 0.0075,-0.010843 0.02002,-0.019188 0.03003,-0.028362 0.33368,-0.3078204 0.717412,-0.3278408 0.996871,-0.052555 0.280288,0.2752867 0.271949,0.6715326 -0.03837,0.996871 -0.306153,0.321167 -0.618145,0.6373281 -0.942647,0.9401444 -0.378728,0.353702 -0.829196,0.534724 -1.355577,0.533056 -1.52492,-0.005 -3.049839,-0.0017 -4.574759,-0.0017 -0.496349,0 -0.992698,0 -1.470695,0 l 10e-7,-0.0017 z m -2.730339,27.928214 c 0,-0.142647 0,-0.291138 0,-0.440457 0,-2.135555 -0.01585,-4.27111 0.01502,-6.40583 0.0058,-0.380396 0.09593,-0.850885 0.329508,-1.122002 0.911782,-1.056934 1.136182,-2.264019 0.987695,-3.592901 -0.0058,-0.05506 0,-0.110952 -8.35e-4,-0.166006 -0.0058,-0.637331 -0.243586,-0.879248 -0.880082,-0.880915 -1.011886,-0.0033 -2.022937,0 -3.034823,0 -1.3655882,0 -1.3530741,0.04922 -1.4289866,1.429819 -0.063399,1.14786 0.1443177,2.150569 0.9134503,3.032321 0.3453588,0.396244 0.4479647,0.899267 0.4412908,1.435661 -0.017517,1.497385 -0.00667,2.994776 -0.00584,4.492166 0.00167,1.582482 1.0385795,2.460896 2.6636035,2.219811 l 10e-7,-0.0017 z M 27.985775,31.99394 v 9.272974 h 2.612717 V 31.99394 Z m -12.00582,-9.402277 c -0.927634,0.06507 -2.069654,0.05922 -3.179141,0.246922 -1.076121,0.182691 -1.919496,0.844211 -2.61105,1.81105 0.83587,0 1.590821,0.0075 2.346607,-0.0017 0.858392,-0.01168 1.480707,0.362877 1.899476,1.105315 0.05255,0.09343 0.163504,0.21606 0.249427,0.217727 0.868404,0.01585 1.73764,0.01001 2.51762,0.01001 0.186859,-0.487175 0.347029,-0.904276 0.47049,-1.227943 -0.533888,-0.68071 -1.055266,-1.346404 -1.693429,-2.160582 v -8.32e-4 z m 4.665684,-2.587692 h -1.353906 c 0.146818,1.291344 -0.286131,2.238997 -1.604168,2.644415 0.598121,0.914286 1.40229,1.368092 2.432529,1.313034 0.914286,-0.04838 1.635866,-0.480501 2.125544,-1.323879 -1.342228,-0.410425 -1.733469,-1.367254 -1.599997,-2.632736 z M 1.3305506,27.93889 c 0,0.623986 -0.00334,1.247965 8.342e-4,1.871113 0.00417,0.511366 0.2752863,0.837538 0.6757029,0.829195 0.3862352,-0.0083 0.651511,-0.325336 0.6540136,-0.809175 0.00501,-1.233784 0.00501,-2.467568 0,-3.701348 -0.00167,-0.484672 -0.2677784,-0.800834 -0.6548478,-0.807506 -0.4020849,-0.0075 -0.6706975,0.316996 -0.6748686,0.829197 -0.00501,0.595617 -8.342e-4,1.192072 -8.342e-4,1.787689 z m 17.3063364,0 c 0,0.623986 -0.0033,1.247965 8.31e-4,1.871113 0.0042,0.511366 0.274452,0.837538 0.67487,0.829195 0.386236,-0.0075 0.652345,-0.325336 0.654012,-0.809175 0.005,-1.233784 0.005,-2.467568 0,-3.701348 -0.0017,-0.484672 -0.266943,-0.800834 -0.654012,-0.808342 -0.402087,-0.0075 -0.670698,0.316996 -0.67487,0.829197 -0.005,0.59562 -8.31e-4,1.192072 -8.31e-4,1.787693 v 0.0017 z M 6.6469145,27.349108 H 4.0208502 v 1.267154 H 6.6469145 Z M 17.279642,28.63962 V 27.344938 H 14.677768 V 28.63962 Z M 13.287989,11.983961 v -1.313032 c -0.384568,0.07007 -0.615641,0.277788 -0.626485,0.632323 -0.01168,0.37539 0.210218,0.606465 0.626485,0.679874 z m 13.354723,-0.0067 c 0.403753,-0.04755 0.630659,-0.275286 0.63149,-0.645672 0.0017,-0.371219 -0.224397,-0.599791 -0.63149,-0.649843 z"
       id="path5198"
       inkscape:connector-curvature="0" />
  </g>
</svg>
