<svg xmlns="http://www.w3.org/2000/svg" width="28.5" height="38.022" viewBox="0 0 28.5 38.022">
  <g id="b" transform="translate(0 0)">
    <g id="c" transform="translate(0 0)">
      <g id="Grupo_99" data-name="Grupo 99" transform="translate(0 0)">
        <path id="Caminho_197" data-name="Caminho 197" d="M0,22.726a4.73,4.73,0,0,1,.857-1.062,1.761,1.761,0,0,1,2.7,1.268c.01.07.013.141.022.239.771,0,1.524.007,2.276-.009a.385.385,0,0,0,.261-.189,1.868,1.868,0,0,1,1.4-.992.443.443,0,0,0,.272-.187,5.267,5.267,0,0,1,4.889-2.782c.853.007,1.707,0,2.56,0,.575,0,.763-.216.806-.774a.781.781,0,0,0-.564-.914,5.773,5.773,0,0,1-3.6-5.26c0-.048-.01-.1-.015-.14-1.212-.233-1.806-.895-1.765-1.954A1.813,1.813,0,0,1,11.873,8.3c0-.78-.028-1.568.01-2.353a7.744,7.744,0,0,1,.23-1.679,5.924,5.924,0,0,1,11.55.775,25.932,25.932,0,0,1,.082,2.7c0,.183,0,.367,0,.544a1.809,1.809,0,0,1,.031,3.617,6.068,6.068,0,0,1-4.187,5.679c0,.216,0,.462,0,.707.01.492.237.717.738.72.94,0,1.879,0,2.82,0a5.325,5.325,0,0,1,5.345,5.345c0,4.293,0,8.588.007,12.881a.836.836,0,0,1-.377.782H11.056a.826.826,0,0,1-.376-.819c.023-.513.006-1.028.006-1.557h-.571a2.95,2.95,0,0,1-2.99-2.98c0-1.25-.025-2.5.01-3.749a2.663,2.663,0,0,0-.442-1.483,1.248,1.248,0,0,0-1.359-.71,16.816,16.816,0,0,1-1.754.013,1.81,1.81,0,0,1-2.7,1.547A2.305,2.305,0,0,1,0,27.181Zm27.3,4.59c0-1.067.042-2.1-.009-3.119a4.013,4.013,0,0,0-3.25-3.862,15.946,15.946,0,0,0-2.732-.123c-.077,0-.167.136-.232.223a10.269,10.269,0,0,1-.979,1.283,6.942,6.942,0,0,1-1.2.768,3.941,3.941,0,0,1,.1.62c.01,1.237.016,2.475,0,3.712A1.769,1.769,0,0,1,16.8,28.472a1.81,1.81,0,0,1-1.39-1.736,12.093,12.093,0,0,1-1.559-.013,1.42,1.42,0,0,0-1.646.869,2.445,2.445,0,0,0-.338,1.14c.016,2.561.007,5.123.007,7.685v.389H23.746v-6.6c0-1.138,0-2.277,0-3.416a.576.576,0,0,1,.594-.65c.362,0,.582.246.59.657,0,.168,0,.337,0,.516H27.3ZM13.121,9.509c0,1.041-.08,2.036.016,3.013a4.706,4.706,0,0,0,9.248.491,21.991,21.991,0,0,0,.171-3.21,1.475,1.475,0,0,0-.022-.238,11.262,11.262,0,0,1-1.309-.179.579.579,0,0,1-.42-.782.633.633,0,0,1,.792-.358c.306.057.621.065.9.093a29.063,29.063,0,0,0-.017-2.987,4.611,4.611,0,0,0-4.307-4.13A4.683,4.683,0,0,0,13.386,4.24c-.518,1.321-.266,2.7-.33,4.082,1.463,0,2.874-.056,4.277.019a2.382,2.382,0,0,0,2.349-.961.173.173,0,0,1,.027-.025.607.607,0,0,1,.889-.047.6.6,0,0,1-.034.889c-.273.286-.551.568-.841.838a1.7,1.7,0,0,1-1.209.475c-1.36,0-2.72,0-4.08,0H13.121ZM10.686,34.416v-.393c0-1.9-.014-3.809.013-5.713a1.671,1.671,0,0,1,.294-1,3.954,3.954,0,0,0,.881-3.2c-.005-.049,0-.1,0-.148-.005-.568-.217-.784-.785-.786-.9,0-1.8,0-2.707,0-1.218,0-1.207.044-1.274,1.275a3.558,3.558,0,0,0,.815,2.7,1.838,1.838,0,0,1,.394,1.28C8.3,29.767,8.31,31.1,8.311,32.438a1.872,1.872,0,0,0,2.375,1.98Zm14.272-5.883V36.8h2.33v-8.27ZM14.251,20.148a27.9,27.9,0,0,0-2.835.22,3.618,3.618,0,0,0-2.329,1.615c.745,0,1.419.007,2.093,0a1.791,1.791,0,0,1,1.694.986c.047.083.146.193.222.194.774.014,1.55.009,2.245.009.167-.434.309-.806.42-1.1l-1.51-1.927Zm4.161-2.308H17.205A1.947,1.947,0,0,1,15.774,20.2a2.323,2.323,0,0,0,2.169,1.171,2.223,2.223,0,0,0,1.9-1.181,1.94,1.94,0,0,1-1.427-2.348ZM1.187,24.917c0,.556,0,1.113,0,1.669,0,.456.246.747.6.74s.581-.29.583-.722q.007-1.65,0-3.3c0-.432-.239-.714-.584-.72s-.6.283-.6.74c0,.531,0,1.063,0,1.594Zm15.434,0c0,.556,0,1.113,0,1.669,0,.456.245.747.6.74s.582-.29.583-.722q.007-1.65,0-3.3c0-.432-.238-.714-.583-.721s-.6.283-.6.74c0,.531,0,1.063,0,1.594ZM5.928,24.391H3.586v1.13H5.928Zm9.483,1.151V24.387H13.09v1.155Zm-3.56-14.854V9.517c-.343.062-.549.248-.559.564-.01.335.187.541.559.606Zm11.91-.006a.578.578,0,0,0,0-1.155Z" transform="translate(0 0)" />
        <path id="Caminho_198" data-name="Caminho 198" d="M66.284,113.242c.96.05,1.174.166,1.17.613,0,.431-.193.533-1.171.612-.071.453.168,1.167-.633,1.148-.75-.017-.518-.689-.584-1.156-.471-.065-1.114.168-1.165-.615-.028-.43.182-.53,1.164-.609.075-.451-.171-1.167.633-1.149.751.017.519.688.586,1.156Z" transform="translate(-59.145 -103.747)" />
        <path id="Caminho_199" data-name="Caminho 199" d="M17.356,160.93c.044-.939.154-1.156.576-1.174.443-.019.566.2.647,1.17.452.074,1.167-.168,1.146.635-.019.748-.687.521-1.155.583-.062.475.166,1.117-.615,1.168-.421.028-.524-.189-.609-1.159-.438-.089-1.139.17-1.146-.606-.007-.8.71-.545,1.157-.618Z" transform="translate(-14.994 -147.869)" />
        <path id="Caminho_200" data-name="Caminho 200" d="M65.091,208.858c.065-.47-.165-1.091.591-1.163.42-.039.527.172.644,1.169.458.066,1.126-.173,1.148.644.011.409-.216.511-1.181.576,0,.187.007.379,0,.571a.591.591,0,1,1-1.183,0c-.007-.182,0-.365,0-.57-.491-.073-1.161.169-1.181-.652-.01-.409.214-.509,1.165-.574Z" transform="translate(-59.17 -192.239)" />
        <path id="Caminho_201" data-name="Caminho 201" d="M200.562,136.731a1.843,1.843,0,0,1,0,.368.554.554,0,0,1-.6.486.542.542,0,0,1-.571-.516,4.211,4.211,0,0,1-.006-.664.591.591,0,1,1,1.183-.007c.006.111,0,.222,0,.333h-.005Z" transform="translate(-184.54 -125.704)" />
        <path id="Caminho_202" data-name="Caminho 202" d="M264.43,136.718c0,.111.008.222,0,.333a.576.576,0,0,1-.59.539.568.568,0,0,1-.588-.539,5.662,5.662,0,0,1,0-.665.591.591,0,0,1,1.181,0c.007.11,0,.222,0,.333Z" transform="translate(-243.654 -125.706)" />
      </g>
    </g>
  </g>
</svg>
