<svg id="b" xmlns="http://www.w3.org/2000/svg" width="28.246" height="28.259" viewBox="0 0 28.246 28.259">
  <g id="c" transform="translate(0)">
    <g id="Grupo_123" data-name="Grupo 123">
      <path id="Caminho_345" data-name="Caminho 345" d="M28.242,13.629c-.066.4-.122.811-.2,1.213a12.444,12.444,0,0,1-2.914,5.876,22.568,22.568,0,0,1-10.593,6.936,13.052,13.052,0,0,1-5.335.524A10.438,10.438,0,0,1,2.46,24.7,11,11,0,0,1,.3,21.557a4.955,4.955,0,0,1-.3-1.3.941.941,0,0,1,.506-.913,2.609,2.609,0,0,1,2.017-.284c.437.089.874.18,1.331.275a.448.448,0,0,0-.026-.115,8.442,8.442,0,0,1-1.488-5.173,12.2,12.2,0,0,1,.579-4.1A4.886,4.886,0,0,1,9.379,6.732a7.623,7.623,0,0,1,.688.4c.21.116.427.217.7.353A5.525,5.525,0,0,0,9.5,4.636a8.78,8.78,0,0,0-.89-.86c-.282-.248-.353-.494-.169-.735a.476.476,0,0,1,.749-.023c.449.417.867.867,1.3,1.306a2.361,2.361,0,0,1,.151.189c.149-.424.269-.843.44-1.24A5.1,5.1,0,0,1,15.241.111c.2-.032.391-.074.587-.111h1.324a.933.933,0,0,1,.587.954c-.039.328-.085.656-.151.979a6.206,6.206,0,0,1-1.474,3.091,5.44,5.44,0,0,1-3.422,1.593c-.358.047-.721.061-1.095.091l.156.8a6.039,6.039,0,0,0,.791-.4,3.8,3.8,0,0,1,2.494-.693A4.729,4.729,0,0,1,18.7,8.152a6.326,6.326,0,0,1,1.148,2.419c.109.422.185.852.276,1.278a3.47,3.47,0,0,0,.44-.939c.243-.968.458-1.943.671-2.919a5.946,5.946,0,0,1,.876-2.409.373.373,0,0,0,.051-.4,7.334,7.334,0,0,0-1.41-2.379,3.294,3.294,0,0,0-.637-.561c-.324-.218-.394-.412-.2-.756A2.879,2.879,0,0,1,22.827.071c.248.04.514.061.668.322a15.47,15.47,0,0,1,1.873,4.532,1.174,1.174,0,0,0,.276.54,8.551,8.551,0,0,1,2.386,4.683c.08.5.142,1,.212,1.494v1.986ZM25.509,6.768c-.092.161-.136.332-.246.416a2.181,2.181,0,0,1-1.664.423,1.309,1.309,0,0,1-1.132-.627c-.176.7-.328,1.383-.463,2.073a12.043,12.043,0,0,1-1.017,3.327,15.462,15.462,0,0,1-4.679,5.273A15.387,15.387,0,0,1,9.717,20.4a13.857,13.857,0,0,1-3.815.183c-.665-.069-1.325-.187-1.989-.267-.1-.012-.276.03-.313.1a5.292,5.292,0,0,1-1.269,1.51c-.169.148-.341.293-.55.473.524.616,1.005,1.232,1.538,1.8a9.194,9.194,0,0,0,4.26,2.674,11.637,11.637,0,0,0,6.546-.1,21.205,21.205,0,0,0,10.341-6.761A11.272,11.272,0,0,0,26.915,9.507,6.713,6.713,0,0,0,25.51,6.768ZM6.9,19.69a16.087,16.087,0,0,0,3.537-.4,14.946,14.946,0,0,0,8.681-5.741.666.666,0,0,0,.127-.4c-.018-.421-.052-.843-.111-1.261A6.747,6.747,0,0,0,18.194,9.1a3.8,3.8,0,0,0-5.217-1.128,2.9,2.9,0,0,1-3.349,0,3.574,3.574,0,0,0-2.862-.49,3.685,3.685,0,0,0-2.85,2.565A11.462,11.462,0,0,0,3.5,16.121a5.569,5.569,0,0,0,1.827,3.31.842.842,0,0,0,.433.2c.411.043.825.045,1.14.059ZM11.481,5.746a5.412,5.412,0,0,0,3.776-1.223A5.59,5.59,0,0,0,16.774.967a4.75,4.75,0,0,0-5.293,4.779Zm9.493-4.095a8.2,8.2,0,0,1,2.439,4.589c.069.4.161.465.571.433a.788.788,0,0,0,.345-.077.413.413,0,0,0,.2-.268,5.767,5.767,0,0,0-.069-.986,12.836,12.836,0,0,0-1.614-4.154.364.364,0,0,0-.215-.182,1.806,1.806,0,0,0-1.66.645ZM1.274,21.5l.116.053,1.325-1.4-.06-.083a2.183,2.183,0,0,0-1.492,0c-.189.091-.272.211-.211.412.1.339.214.676.321,1.014Z" transform="translate(0.004)"/>
      <path id="Caminho_346" data-name="Caminho 346" d="M94.487,160.751c-.072-.554-.134-1.109-.218-1.661-.052-.339.066-.592.342-.65.295-.062.508.083.587.427a8.733,8.733,0,0,1,.128,3.094,12.848,12.848,0,0,1-5.052,8.458,18.3,18.3,0,0,1-6.2,3.437A10.747,10.747,0,0,1,77,173.843a9.081,9.081,0,0,1-2.376-1.315.5.5,0,0,1-.164-.714.49.49,0,0,1,.749-.028,7.893,7.893,0,0,0,4.212,1.667,11.3,11.3,0,0,0,6.037-1.14,17.815,17.815,0,0,0,6.565-5,10.681,10.681,0,0,0,2.385-5.68,8.671,8.671,0,0,0,0-.881l.076-.006Z" transform="translate(-70.254 -149.667)"/>
      <path id="Caminho_347" data-name="Caminho 347" d="M76.583,155.3a8.705,8.705,0,0,1,.62-3.229,2.855,2.855,0,0,1,2.163-1.844,3.947,3.947,0,0,1,.685-.057.479.479,0,0,1,.529.476.468.468,0,0,1-.521.482,2.044,2.044,0,0,0-2.086,1.549,8.964,8.964,0,0,0-.446,2.84c-.006.147.007.295-.007.441a.46.46,0,0,1-.486.424.437.437,0,0,1-.448-.427c-.013-.2,0-.4,0-.653Z" transform="translate(-72.345 -141.868)"/>
    </g>
  </g>
</svg>
