<?xml version="1.0" encoding="UTF-8" standalone="no"?>
<svg
   xmlns:dc="http://purl.org/dc/elements/1.1/"
   xmlns:cc="http://creativecommons.org/ns#"
   xmlns:rdf="http://www.w3.org/1999/02/22-rdf-syntax-ns#"
   xmlns:svg="http://www.w3.org/2000/svg"
   xmlns="http://www.w3.org/2000/svg"
   width="210mm"
   height="210mm"
   viewBox="0 0 210 210"
   version="1.1"
   id="svg2736">
  <defs
     id="defs2730" />
  <metadata
     id="metadata2733">
    <rdf:RDF>
      <cc:Work
         rdf:about="">
        <dc:format>image/svg+xml</dc:format>
        <dc:type
           rdf:resource="http://purl.org/dc/dcmitype/StillImage" />
        <dc:title></dc:title>
      </cc:Work>
    </rdf:RDF>
  </metadata>
  <g
     transform="matrix(0.80618352,0,0,0.80618352,20.350727,55.41971)"
     id="g18">
    <g
       transform="matrix(6.2220104,0,0,6.2220104,6.3093878,-37.258864)"
       id="g797">
      <path
         d="m 31.726765,15.310513 c -0.0739,0.45462 -0.137253,0.911102 -0.224202,1.362615 -0.480705,2.502276 -1.617254,4.695883 -3.273015,6.601311 -3.226437,3.712728 -7.182623,6.347912 -11.899617,7.791889 -1.952009,0.597464 -3.958051,0.820425 -5.992661,0.58877 C 7.3226175,31.311649 4.8023329,29.989401 2.7633748,27.742384 1.7951335,26.675396 0.89148319,25.559959 0.33749253,24.216595 0.14930968,23.760111 0.06173943,23.250839 0.00335927,22.75647 -0.04881024,22.314894 0.19278425,21.973307 0.57225537,21.730469 1.2808911,21.27771 2.0454233,21.250385 2.8379023,21.411863 c 0.4912632,0.09999 0.981905,0.202465 1.4949048,0.30867 C 4.3172808,21.649111 4.3191438,21.61371 4.303617,21.591351 3.0304329,19.860441 2.6360564,17.873653 2.6317089,15.780661 2.6279824,14.217438 2.7615116,12.6685 3.2819645,11.178562 3.8148389,9.6519833 4.6743937,8.3744516 6.212152,7.7217116 7.6182442,7.124867 9.0746431,6.9453788 10.536632,7.5620971 10.809279,7.6769938 11.049009,7.8676615 11.309857,8.0117483 11.545863,8.141551 11.78994,8.255827 12.0924,8.4079895 11.898628,7.1490889 11.442766,6.1044564 10.67575,5.2082582 10.375775,4.8573561 10.024251,4.5480652 9.6764555,4.2418799 9.3597126,3.9630215 9.2802153,3.6866474 9.4864092,3.4164836 9.6876345,3.153152 10.029841,3.1140246 10.327333,3.3910201 c 0.504304,0.4689042 0.974451,0.9744522 1.457018,1.4669573 0.06273,0.06397 0.112414,0.1397395 0.170172,0.2124042 C 12.12159,4.5940242 12.256982,4.123877 12.448893,3.677331 13.335153,1.6160132 14.926943,0.47200996 17.12117,0.12421314 17.341646,0.0888124 17.560261,0.04161141 17.780119,0 h 1.487451 c 0.416737,0.23662604 0.7223,0.54653788 0.659573,1.0719594 -0.0441,0.3682921 -0.09502,0.7365839 -0.169552,1.0992864 -0.266435,1.2918165 -0.739689,2.4935792 -1.65576,3.4717572 -1.037181,1.1086025 -2.376196,1.5973816 -3.844396,1.7899117 -0.40245,0.05279 -0.809869,0.068317 -1.22971,0.1024757 0.05714,0.2950063 0.109307,0.5633063 0.175142,0.9036507 0.329164,-0.1645822 0.634728,-0.2714052 0.888123,-0.452136 0.844028,-0.6024327 1.773763,-0.8316064 2.801626,-0.7781949 1.643961,0.085707 3.05999,0.6316237 4.113318,1.9489055 0.642803,0.8036575 1.035316,1.7302873 1.289951,2.7171613 0.122351,0.473874 0.207438,0.957063 0.309914,1.435904 0.208677,-0.340965 0.401205,-0.685656 0.494365,-1.055192 0.27327,-1.087484 0.514243,-2.183046 0.753977,-3.2786042 0.207434,-0.9477462 0.38444,-1.9054298 0.983767,-2.7059836 0.11676,-0.1565084 0.116136,-0.2807217 0.05776,-0.4465466 C 24.542902,4.8287868 24.001953,3.9437678 23.311949,3.1519089 23.104511,2.9140408 22.85795,2.6985312 22.59586,2.5221484 22.231916,2.2768273 22.15304,2.0588336 22.367929,1.6725305 c 0.633486,-1.13779244 1.984305,-1.80046953 3.275498,-1.59303357 0.278238,0.04471673 0.576971,0.06893831 0.750248,0.36208131 0.942774,1.59800206 1.701719,3.26866876 2.103546,5.09149666 0.04782,0.2161316 0.158995,0.4490313 0.310535,0.6061606 1.434658,1.4806204 2.351975,3.2202253 2.680516,5.2604265 0.09006,0.557717 0.158991,1.119162 0.237871,1.678741 v 2.23149 z M 28.656218,7.6030874 c -0.103096,0.1813512 -0.152781,0.3726397 -0.276373,0.467041 -0.550265,0.4204617 -1.191206,0.5664111 -1.869408,0.4751149 -0.49313,-0.066455 -0.991842,-0.1707936 -1.271322,-0.704289 -0.19812,0.7819209 -0.368292,1.5532851 -0.519831,2.3283757 -0.251532,1.285607 -0.528526,2.560654 -1.142139,3.736953 -1.259522,2.413463 -3.087317,4.32324 -5.256079,5.923725 -2.212856,1.633401 -4.707057,2.61717 -7.404965,3.08918 -1.4166503,0.247806 -2.8488279,0.353387 -4.2859736,0.205572 -0.7471413,-0.07701 -1.4880728,-0.210541 -2.233973,-0.299973 -0.1148972,-0.01366 -0.3099112,0.03354 -0.3515229,0.113035 -0.3515232,0.673235 -0.8639021,1.204865 -1.4259665,1.696753 -0.1900461,0.166443 -0.3825762,0.329161 -0.61796,0.531629 0.5881491,0.69249 1.129097,1.384358 1.7278039,2.022812 1.3290806,1.416651 2.8910609,2.47184 4.7859316,3.003472 2.4656295,0.691869 4.9262915,0.601192 7.3540385,-0.114273 4.626316,-1.363863 8.503628,-3.928862 11.616409,-7.595013 2.922113,-3.441326 3.833839,-7.40621 2.750698,-11.803356 C 29.953625,9.5352211 29.417645,8.5073586 28.656839,7.6030874 Z M 7.754878,22.118635 c 1.4135447,-0.01801 2.70412,-0.150301 3.973577,-0.44965 4.041896,-0.952093 7.255909,-3.160604 9.751972,-6.449147 0.09006,-0.118624 0.149053,-0.298732 0.142845,-0.447167 -0.01987,-0.473252 -0.05838,-0.947126 -0.124212,-1.41603 C 21.34379,12.246175 21.055614,11.17608 20.438278,10.221501 19.165094,8.2527237 16.53985,7.7117748 14.577905,8.9539061 13.348816,9.7321014 12.014146,9.7662611 10.815489,8.9501801 9.7870054,8.2496185 8.72995,8.1806793 7.6002312,8.3992949 5.9674506,8.7154169 4.9470396,9.7724714 4.3986387,11.280419 3.5900114,13.504455 3.5117574,15.799293 3.935324,18.109657 c 0.2670581,1.458264 0.9142086,2.732067 2.0520012,3.718321 0.1310449,0.113653 0.3173647,0.207434 0.4869151,0.224823 0.4614515,0.04782 0.9272504,0.05031 1.2806368,0.06583 h 9e-7 z M 12.897302,6.4547358 c 1.548315,-0.053412 3.051295,-0.2496682 4.241257,-1.3737975 1.140898,-1.0781698 1.509188,-2.4991681 1.704827,-3.9946944 -3.196625,-0.36456564 -6.126191,2.279932 -5.945463,5.3684919 z M 23.561001,1.8551233 c 1.482481,1.4464624 2.394203,3.1506665 2.739519,5.1554673 0.07701,0.4453034 0.180729,0.5223159 0.641558,0.4862937 0.132288,-0.00994 0.280723,-0.020495 0.387546,-0.086327 0.102474,-0.062728 0.225447,-0.1974988 0.226069,-0.3012171 0.0019,-0.3695335 -0.01553,-0.7440367 -0.07701,-1.1079817 C 27.196717,4.3226185 26.492431,2.8041127 25.66579,1.3352924 25.61611,1.2471014 25.513009,1.1402777 25.424819,1.1303406 24.691339,1.0458756 24.070895,1.2713226 23.56038,1.8545033 l 6.22e-4,6.205e-4 z M 1.4318099,24.152624 l 0.1304238,0.059 c 0.4962318,-0.524177 0.991842,-1.047737 1.4880731,-1.571917 -0.022358,-0.03105 -0.044717,-0.0621 -0.067075,-0.09316 -0.5564749,-0.120487 -1.1092234,-0.268301 -1.6762562,0.005 -0.2124045,0.102475 -0.3055643,0.236624 -0.236626,0.462695 0.1167603,0.380714 0.2403525,0.759563 0.3608391,1.139032 l 6.212e-4,-6.22e-4 z"
         id="path795" />
    </g>
    <g
       transform="matrix(6.2220104,0,0,6.2220104,-431.23645,-980.2256)"
       id="g801">
      <path
         d="m 96.969292,161.03783 c -0.08075,-0.62232 -0.150925,-1.24587 -0.245323,-1.86631 -0.05839,-0.38072 0.0739,-0.66455 0.383819,-0.73037 0.331024,-0.0702 0.570137,0.0938 0.659569,0.4801 0.26458,1.14894 0.293762,2.31096 0.144081,3.47609 -0.511757,3.98971 -2.64077,7.02425 -5.675293,9.50169 -2.085541,1.70294 -4.374161,3.06494 -6.962761,3.86054 -2.646362,0.81297 -5.302666,0.96762 -7.950882,-0.0149 -0.963898,-0.35773 -1.852638,-0.8521 -2.668724,-1.47752 -0.301216,-0.23102 -0.372009,-0.54902 -0.183838,-0.8024 0.19812,-0.26645 0.531014,-0.28136 0.841545,-0.0317 1.384354,1.11293 2.982987,1.68556 4.731903,1.87312 2.388611,0.25588 4.635628,-0.28508 6.782044,-1.28062 2.864349,-1.32848 5.38649,-3.1277 7.374519,-5.61134 1.496147,-1.8688 2.434578,-3.98288 2.67865,-6.38083 0.03355,-0.32668 0.0044,-0.66018 0.0044,-0.98998 l 0.08571,-0.006 6.26e-4,6.3e-4 z"
         id="path799" />
    </g>
    <g
       transform="matrix(6.2220104,0,0,6.2220104,-385.4522,-894.56366)"
       id="g805">
      <path
         d="m 76.583054,155.93349 c 0.04409,-1.20981 0.181961,-2.4563 0.696212,-3.62702 0.473252,-1.07692 1.217911,-1.85699 2.429612,-2.07187 0.252769,-0.0447 0.512382,-0.0646 0.7695,-0.0646 0.36084,0 0.591873,0.2211 0.593743,0.53473 0.0019,0.31737 -0.223595,0.55087 -0.585053,0.54096 -1.243362,-0.0348 -1.939583,0.65957 -2.343284,1.73959 -0.383812,1.02727 -0.459588,2.10667 -0.500565,3.1898 -0.0062,0.16521 0.0081,0.33103 -0.0075,0.495 -0.02795,0.29066 -0.257736,0.48381 -0.545913,0.47635 -0.281342,-0.007 -0.484436,-0.19003 -0.503685,-0.47945 -0.0149,-0.22609 -0.0031,-0.45338 -0.0031,-0.7335 h 8e-6 z"
         id="path803" />
    </g>
  </g>
</svg>
