<svg xmlns="http://www.w3.org/2000/svg" width="34.962" height="28.75" viewBox="0 0 34.962 28.75">
  <g id="b" transform="translate(0 0)">
    <g id="c" transform="translate(0 0)">
      <g id="Grupo_666" data-name="Grupo 666" transform="translate(0 0)">
        <path id="Caminho_721" data-name="Caminho 721" d="M395.07,4.028c-.94.185-4.7,5.219-4.7,5.219l-.132.348s6.8-.756,7.043-1.047c.665-.784-1.441-4.673-2.214-4.521Zm-4.65,5.326A36.8,36.8,0,0,1,395.1,4.963a7.7,7.7,0,0,1,1.475,2.94C395.791,8.063,392.4,9.115,390.42,9.354Z" transform="translate(-370.82 -3.823)" fill="#ff2e00"/>
        <path id="Caminho_722" data-name="Caminho 722" d="M213.463,1.064c-1.849-1.206-2.357-1.2-2.9-.892s-2.526,3.156-1.638,4.045,7.932,1.523,7.932,1.523l.159-.43a14.755,14.755,0,0,0-3.558-4.246ZM210.154,3.9c-.411-.41.612-2.116,1.078-2.479.119-.067,4.858,2.949,5.519,3.978C214.106,5.117,210.537,4.244,210.154,3.9Z" transform="translate(-198.318 0)" fill="#ff2e00"/>
        <path id="Caminho_723" data-name="Caminho 723" d="M360.171,90.2h.4a.711.711,0,0,1,.711.711v1.166a.711.711,0,0,1-.711.711h-.4a.711.711,0,0,1-.711-.711V90.911A.711.711,0,0,1,360.171,90.2Z" transform="translate(-341.571 -85.711)" fill="#ff2e00"/>
        <path id="Caminho_724" data-name="Caminho 724" d="M33.631,114.586l-32.223-.1A1.4,1.4,0,0,0,.021,116.1l.5,3.288,1.615,0,.973,16.547a1.675,1.675,0,0,0,1.672,1.577H30.5l1.07-18.186,1.521,0,.54-4.733Z" transform="translate(-0.005 -108.792)" fill="#115aa8"/>
        <path id="Caminho_725" data-name="Caminho 725" d="M226.679,145.889H206.937L205.88,123.31h23.455l-.984,21.009a1.662,1.662,0,0,1-1.673,1.57Z" transform="translate(-195.634 -117.173)" fill="#41bbd9"/>
        <path id="Caminho_726" data-name="Caminho 726" d="M199.364,119.511l-25.463.068-.581-4.9,24.944.1a1.4,1.4,0,0,1,1.387,1.523l-.287,3.213Z" transform="translate(-164.695 -108.973)" fill="#41bbd9"/>
        <path id="Caminho_727" data-name="Caminho 727" d="M185,211.827l24.286-.067-23.516,1.284Z" transform="translate(-175.794 -201.221)" fill="#115aa8"/>
        <rect id="Ret창ngulo_228" data-name="Ret창ngulo 228" width="0.676" height="4.839" transform="translate(18.762 5.745)" fill="#ff2e00"/>
        <rect id="Ret창ngulo_229" data-name="Ret창ngulo 229" width="0.845" height="18.189" transform="translate(20.721 10.561)" fill="#ff2e00"/>
      </g>
    </g>
  </g>
</svg>
