<?xml version="1.0" encoding="UTF-8" standalone="no"?>
<svg
   xmlns:dc="http://purl.org/dc/elements/1.1/"
   xmlns:cc="http://creativecommons.org/ns#"
   xmlns:rdf="http://www.w3.org/1999/02/22-rdf-syntax-ns#"
   xmlns:svg="http://www.w3.org/2000/svg"
   xmlns="http://www.w3.org/2000/svg"
   width="210mm"
   height="297mm"
   viewBox="0 0 210 297"
   version="1.1"
   id="svg2736">
  <defs
     id="defs2730" />
  <metadata
     id="metadata2733">
    <rdf:RDF>
      <cc:Work
         rdf:about="">
        <dc:format>image/svg+xml</dc:format>
        <dc:type
           rdf:resource="http://purl.org/dc/dcmitype/StillImage" />
        <dc:title></dc:title>
      </cc:Work>
    </rdf:RDF>
  </metadata>
  <g
     transform="matrix(16.343844,0,0,16.343844,-1611.1037,-966.71614)"
     id="g1087">
    <g
       id="g6120"
       transform="matrix(0.35277777,0,0,0.35277777,-33.932944,61.814924)">
      <path
         d="m 395.06979,4.0279312 c -0.94009,0.1851292 -4.69741,5.2189884 -4.69741,5.2189884 l -0.13236,0.3483658 c 0,0 6.79703,-0.7559519 7.0434,-1.046586 0.66488,-0.784317 -1.4408,-4.6730535 -2.21363,-4.5212665 z m -4.64965,5.3264856 c 1.2402,-1.5850572 4.0664,-3.9001846 4.67709,-4.3918752 0.54538,0.556386 1.36652,2.1981764 1.47504,2.9401903 -0.78083,0.1607466 -4.16889,1.2118092 -6.15213,1.4516849 z"
         style="fill:#ff2e00;fill-opacity:1;fill-rule:nonzero;stroke:none"
         id="path6122" />
    </g>
    <g
       id="g6124"
       transform="matrix(0.35277777,0,0,0.35277777,29.907123,63.163683)">
      <path
         d="m 213.4628,1.0640641 c -1.84934,-1.20633458 -2.35693,-1.19737665 -2.89591,-0.89181168 -0.53897,0.30556491 -2.52563,3.15617728 -1.63778,4.04500318 0.88782,0.8893237 7.9317,1.5228481 7.9317,1.5228481 l 0.15875,-0.4304776 c 0,0 -1.70846,-3.0397253 -3.55777,-4.2460598 l 0.001,4.978e-4 z m -3.30899,2.840162 c -0.41055,-0.4095767 0.61169,-2.1160627 1.07797,-2.4793566 0.1189,-0.067184 4.85764,2.9486518 5.51904,3.9783168 -2.64508,-0.2861562 -6.21429,-1.1590566 -6.59701,-1.4989602 z"
         style="fill:#ff2e00;fill-opacity:1;fill-rule:nonzero;stroke:none"
         id="path6126" />
    </g>
    <g
       id="g6128"
       transform="matrix(0.35277777,0,0,0.35277777,-22.130339,32.926596)">
      <path
         d="m 360.17114,90.199997 h 0.39661 c 0.3927,0 0.71118,0.318497 0.71118,0.711151 v 1.166046 c 0,0.392639 -0.31848,0.711136 -0.71118,0.711136 h -0.39661 c -0.39264,0 -0.71112,-0.318497 -0.71112,-0.711166 v -1.166016 c 0,-0.392654 0.31848,-0.711151 0.71112,-0.711151 z"
         style="fill:#ff2e00;fill-opacity:1;fill-rule:nonzero;stroke:none"
         id="path6130" />
    </g>
    <g
       id="g6132"
       transform="matrix(0.35277777,0,0,0.35277777,99.067049,24.784116)">
      <path
         d="m 33.630653,114.58643 -32.2230178,-0.0965 c -0.85746871,-0.002 -1.51537588,0.76042 -1.38648184,1.60895 l 0.49865577,3.28806 1.61490807,-0.003 0.9734235,16.5473 c 0.052254,0.88533 0.784811,1.57709 1.6716416,1.57709 H 30.498869 l 1.069971,-18.18559 1.521351,-0.003 0.540462,-4.73326 v 4.9e-4 z"
         style="fill:#115aa8;fill-opacity:1;fill-rule:nonzero;stroke:none"
         id="path6134" />
    </g>
    <g
       id="g6136"
       transform="matrix(0.35277777,0,0,0.35277777,28.232875,21.82736)">
      <path
         d="M 226.67871,145.88898 H 206.93698 L 205.87997,123.31 h 23.45527 l -0.98389,21.00883 c -0.0413,0.87839 -0.77786,1.56963 -1.67264,1.56963 z"
         style="fill:#41bbd9;fill-opacity:1;fill-rule:nonzero;stroke:none"
         id="path6138" />
    </g>
    <g
       id="g6140"
       transform="matrix(0.35277777,0,0,0.35277777,39.211022,24.720377)">
      <path
         d="m 199.36411,119.51131 -25.4628,0.0677 -0.58129,-4.899 24.94374,0.0956 c 0.81917,0.003 1.46015,0.70669 1.38749,1.52284 l -0.28714,3.21341 v -5e-4 z"
         style="fill:#41bbd9;fill-opacity:1;fill-rule:nonzero;stroke:none"
         id="path6142" />
    </g>
    <g
       id="g6144"
       transform="matrix(0.35277777,0,0,0.35277777,35.452265,-7.8230293)">
      <path
         d="m 185.00003,211.82719 24.28632,-0.0672 -23.51593,1.28351 -0.77039,-1.21633 z"
         style="fill:#115aa8;fill-opacity:1;fill-rule:nonzero;stroke:none"
         id="path6146" />
    </g>
    <g
       id="g6148"
       transform="matrix(0.35277777,0,0,0.35277777,104.88079,65.190081)">
      <path
         d="M 0,0 H 0.67582273 V 4.8387752 H 0 Z"
         style="fill:#ff2e00;fill-opacity:1;fill-rule:nonzero;stroke:none"
         id="path6150" />
    </g>
    <g
       id="g6152"
       transform="matrix(0.35277777,0,0,0.35277777,104.85103,66.889209)">
      <path
         d="M 0,0 H 0.84452963 V 18.188581 H 0 Z"
         style="fill:#ff2e00;fill-opacity:1;fill-rule:nonzero;stroke:none"
         id="path6154" />
    </g>
  </g>
</svg>
