<?xml version="1.0" encoding="UTF-8" standalone="no"?>
<!-- Created with Inkscape (http://www.inkscape.org/) -->

<svg
   xmlns:dc="http://purl.org/dc/elements/1.1/"
   xmlns:cc="http://creativecommons.org/ns#"
   xmlns:rdf="http://www.w3.org/1999/02/22-rdf-syntax-ns#"
   xmlns:svg="http://www.w3.org/2000/svg"
   xmlns="http://www.w3.org/2000/svg"
   xmlns:sodipodi="http://sodipodi.sourceforge.net/DTD/sodipodi-0.dtd"
   xmlns:inkscape="http://www.inkscape.org/namespaces/inkscape"
   width="210mm"
   height="210mm"
   viewBox="0 0 210 210"
   version="1.1"
   id="svg307"
   inkscape:version="0.92.4 (5da689c313, 2019-01-14)"
   sodipodi:docname="presente.svg">
  <defs
     id="defs301">
    <clipPath
       clipPathUnits="userSpaceOnUse"
       id="clipPath6528">
      <path
         d="M 0,0 H 1440 V 3040 H 0 Z"
         id="path6526"
         inkscape:connector-curvature="0" />
    </clipPath>
    <clipPath
       clipPathUnits="userSpaceOnUse"
       id="clipPath6478">
      <path
         d="M 0,0 H 1440 V 3040 H 0 Z"
         id="path6476"
         inkscape:connector-curvature="0" />
    </clipPath>
    <clipPath
       clipPathUnits="userSpaceOnUse"
       id="clipPath6428">
      <path
         d="M 0,0 H 1440 V 3040 H 0 Z"
         id="path6426"
         inkscape:connector-curvature="0" />
    </clipPath>
    <clipPath
       clipPathUnits="userSpaceOnUse"
       id="clipPath6378">
      <path
         d="M 0,0 H 1440 V 3040 H 0 Z"
         id="path6376"
         inkscape:connector-curvature="0" />
    </clipPath>
    <clipPath
       clipPathUnits="userSpaceOnUse"
       id="clipPath6328">
      <path
         d="M 0,0 H 1440 V 3040 H 0 Z"
         id="path6326"
         inkscape:connector-curvature="0" />
    </clipPath>
    <clipPath
       clipPathUnits="userSpaceOnUse"
       id="clipPath6278">
      <path
         d="M 0,0 H 1440 V 3040 H 0 Z"
         id="path6276"
         inkscape:connector-curvature="0" />
    </clipPath>
    <clipPath
       clipPathUnits="userSpaceOnUse"
       id="clipPath6228">
      <path
         d="M 0,0 H 1440 V 3040 H 0 Z"
         id="path6226"
         inkscape:connector-curvature="0" />
    </clipPath>
  </defs>
  <sodipodi:namedview
     id="base"
     pagecolor="#ffffff"
     bordercolor="#666666"
     borderopacity="1.0"
     inkscape:pageopacity="0.0"
     inkscape:pageshadow="2"
     inkscape:zoom="0.35"
     inkscape:cx="400"
     inkscape:cy="560"
     inkscape:document-units="mm"
     inkscape:current-layer="layer1"
     showgrid="false"
     inkscape:window-width="1920"
     inkscape:window-height="934"
     inkscape:window-x="0"
     inkscape:window-y="0"
     inkscape:window-maximized="1" />
  <metadata
     id="metadata304">
    <rdf:RDF>
      <cc:Work
         rdf:about="">
        <dc:format>image/svg+xml</dc:format>
        <dc:type
           rdf:resource="http://purl.org/dc/dcmitype/StillImage" />
        <dc:title></dc:title>
      </cc:Work>
    </rdf:RDF>
  </metadata>
  <g
     inkscape:label="Camada 1"
     inkscape:groupmode="layer"
     id="layer1"
     transform="translate(0,-87)">
    <g
       id="g399"
       transform="translate(3.749243e-6,43.5)">
      <g
         transform="matrix(2.7748669,0,0,2.7748669,-790.70392,58.548065)"
         id="g1008">
        <g
           transform="matrix(0.08819444,0,0,0.08819444,258.67651,-73.295191)"
           id="g6272">
          <g
             clip-path="url(#clipPath6228)"
             id="g6270">
            <g
               transform="matrix(3.5640261,-1.815962,1.815962,3.5640261,572.75781,947.69531)"
               id="g6232">
              <path
                 d="m 12.977788,0 c 0.852133,0 1.696079,0.09974581 2.531838,0.29923743 0.83576,0.19949162 1.647276,0.49489588 2.434544,0.88621277 0.787268,0.391317 1.535166,0.8710273 2.24369,1.4391314 0.708523,0.568104 1.36406,1.2136857 1.966609,1.9367454 0.602548,0.7230592 1.140533,1.5097027 1.613952,2.35993 0.473421,0.8502279 0.873179,1.7477036 1.199274,2.6924257 0.326098,0.9447233 0.572268,1.9185413 0.738514,2.9214523 0.166245,1.002914 0.249367,2.01565 0.249367,3.038211 0,1.022559 -0.08312,2.035297 -0.249367,3.038209 -0.166246,1.002911 -0.412416,1.976727 -0.738514,2.92145 -0.326095,0.944723 -0.725853,1.842197 -1.199274,2.692426 -0.473419,0.85023 -1.011404,1.636874 -1.613952,2.359932 -0.602549,0.723059 -1.258086,1.368641 -1.96661,1.936743 -0.708525,0.568106 -1.456421,1.047815 -2.243689,1.439133 -0.787268,0.391317 -1.598784,0.686722 -2.434544,0.886213 -0.835759,0.199492 -1.679705,0.299238 -2.531838,0.29924 -0.852134,-2e-6 -1.696081,-0.09975 -2.531841,-0.29924 C 9.6101866,30.647961 8.7986717,30.352556 8.0114031,29.961239 7.224134,29.569921 6.4762378,29.090212 5.7677145,28.522108 5.0591912,27.954004 4.4036551,27.308422 3.801106,26.585363 3.1985564,25.862305 2.6605716,25.075661 2.1871514,24.225431 1.7137313,23.375202 1.3139725,22.477728 0.98787516,21.533005 0.66177773,20.588282 0.41560754,19.614466 0.24936453,18.611555 0.08312151,17.608643 0,16.595905 0,15.573346 0,14.550785 0.08312151,13.538049 0.24936453,12.535136 0.41560754,11.532224 0.66177773,10.558406 0.98787516,9.6136837 1.3139725,8.6689615 1.7137313,7.7714858 2.1871514,6.9212575 2.6605716,6.0710297 3.1985564,5.2843862 3.801106,4.561327 4.4036551,3.8382673 5.0591912,3.1926856 5.7677145,2.6245816 6.4762378,2.0564775 7.224134,1.5767672 8.0114031,1.1854502 8.7986717,0.79413331 9.6101866,0.49872905 10.445947,0.29923743 11.281707,0.09974581 12.125654,0 12.977788,0 Z"
                 style="fill:#f0aa00;fill-opacity:1;fill-rule:nonzero;stroke:none"
                 id="path6230"
                 inkscape:connector-curvature="0" />
            </g>
            <g
               transform="matrix(3.5640261,-1.815962,1.815962,3.5640261,610.05469,928.69336)"
               id="g6236">
              <path
                 d="M 0,0 H 2.8544817 V 31.149847 H 0 Z"
                 style="fill:#f0aa00;fill-opacity:1;fill-rule:nonzero;stroke:none"
                 id="path6234"
                 inkscape:connector-curvature="0" />
            </g>
            <g
               transform="matrix(3.5640261,-1.815962,1.815962,3.5640261,563.80078,952.25977)"
               id="g6240">
              <path
                 d="m 12.977788,0 c 0.852133,0 1.696079,0.09974581 2.531838,0.29923743 0.83576,0.19949162 1.647276,0.49489588 2.434544,0.88621277 0.787268,0.391317 1.535166,0.8710273 2.24369,1.4391314 0.708523,0.568104 1.36406,1.2136857 1.966609,1.9367454 0.602548,0.7230592 1.140533,1.5097027 1.613952,2.35993 0.473421,0.8502279 0.873179,1.7477036 1.199274,2.6924257 0.326098,0.9447233 0.572268,1.9185413 0.738514,2.9214523 0.166245,1.002914 0.249367,2.01565 0.249367,3.038211 0,1.022559 -0.08312,2.035297 -0.249367,3.038209 -0.166246,1.002911 -0.412416,1.976727 -0.738514,2.92145 -0.326095,0.944723 -0.725853,1.842197 -1.199274,2.692426 -0.473419,0.85023 -1.011404,1.636874 -1.613952,2.359932 -0.602549,0.723059 -1.258086,1.368641 -1.96661,1.936743 -0.708525,0.568106 -1.456421,1.047815 -2.243689,1.439133 -0.787268,0.391317 -1.598784,0.686722 -2.434544,0.886213 -0.835759,0.199492 -1.679705,0.299238 -2.531838,0.29924 -0.852134,-2e-6 -1.696081,-0.09975 -2.531841,-0.29924 C 9.6101866,30.647961 8.7986717,30.352556 8.0114031,29.961239 7.224134,29.569921 6.4762378,29.090212 5.7677145,28.522108 5.0591912,27.954004 4.4036551,27.308422 3.801106,26.585363 3.1985564,25.862305 2.6605716,25.075661 2.1871514,24.225431 1.7137313,23.375202 1.3139725,22.477728 0.98787516,21.533005 0.66177773,20.588282 0.41560754,19.614466 0.24936453,18.611555 0.08312151,17.608643 0,16.595905 0,15.573346 0,14.550785 0.08312151,13.538049 0.24936453,12.535136 0.41560754,11.532224 0.66177773,10.558406 0.98787516,9.6136837 1.3139725,8.6689615 1.7137313,7.7714858 2.1871514,6.9212575 2.6605716,6.0710297 3.1985564,5.2843862 3.801106,4.561327 4.4036551,3.8382673 5.0591912,3.1926856 5.7677145,2.6245816 6.4762378,2.0564775 7.224134,1.5767672 8.0114031,1.1854502 8.7986717,0.79413331 9.6101866,0.49872905 10.445947,0.29923743 11.281707,0.09974581 12.125654,0 12.977788,0 Z"
                 style="fill:#ffcc00;fill-opacity:1;fill-rule:nonzero;stroke:none"
                 id="path6238"
                 inkscape:connector-curvature="0" />
            </g>
            <g
               transform="matrix(3.5640261,-1.815962,1.815962,3.5640261,486.21875,988.92969)"
               id="g6244">
              <path
                 d="m 34.013611,20.21088 c 2.873428,-2.459781 4.916405,-5.528979 5.472145,-9.321273 C 39.870987,8.271945 40.565659,4.9311914 39.953083,2.1272318 38.273232,1.1767902 36.397606,0.63999611 34.417786,0.63999611 27.253162,0.63683903 21.439999,7.6088467 21.439999,16.210186 c 0,3.514421 0.972543,6.757292 2.608188,9.365479 3.656515,-1.067271 7.057263,-2.879744 9.962265,-5.367941 l 0.0032,0.0032 z"
                 style="fill:#fcdc59;fill-opacity:1;fill-rule:nonzero;stroke:none"
                 id="path6242"
                 inkscape:connector-curvature="0" />
            </g>
            <g
               transform="matrix(3.5640261,-1.815962,1.815962,3.5640261,450.28516,975.01563)"
               id="g6248">
              <path
                 d="m 50.41983,23.10051 c 0,6.612041 -4.385925,11.970512 -9.794914,11.970512 -5.408989,0 -9.794912,-5.358471 -9.794912,-11.970512 0,-6.612042 4.382765,-11.970509 9.794912,-11.970509 5.412148,0 9.794914,5.358467 9.794914,11.970509 z"
                 style="fill:#da8100;fill-opacity:1;fill-rule:nonzero;stroke:none"
                 id="path6246"
                 inkscape:connector-curvature="0" />
            </g>
            <g
               transform="matrix(3.5640261,-1.815962,1.815962,3.5640261,439.59766,974.83984)"
               id="g6252">
              <path
                 d="m 53.254101,24.640011 c 0,6.451004 -4.24699,11.680008 -9.488625,11.680008 -5.241634,0 -9.48547,-5.229004 -9.48547,-11.680008 0,-6.451004 4.246987,-11.68001 9.485466,-11.68001 5.23848,0 9.488625,5.229006 9.488625,11.68001 z"
                 style="fill:#f0aa00;fill-opacity:1;fill-rule:nonzero;stroke:none"
                 id="path6250"
                 inkscape:connector-curvature="0" />
            </g>
            <g
               transform="matrix(3.5640261,-1.815962,1.815962,3.5640261,376.59766,938.00586)"
               id="g6256">
              <path
                 d="m 49.984097,46.089397 c 1.787208,1.259884 5.052177,2.150334 5.146907,-1.367248 0.01894,-0.647308 0.02526,-0.972546 0.03473,-1.619854 -0.359966,1.092537 -1.190418,1.493553 -2.159805,1.439873 -2.377682,-0.129464 -3.293389,-1.844048 -3.315495,-4.464867 -0.0063,-0.764141 -0.01263,-1.143055 -0.02842,-1.907196 -0.01579,-0.7673 -0.142094,-1.076744 -0.928337,-0.966232 -0.01895,-0.593632 -0.02842,-0.893601 -0.05368,-1.487233 1.632488,-0.59679 3.182873,-0.524166 3.246025,1.802998 0.02526,0.991489 0.03474,1.487232 0.04105,2.478722 0.0095,1.360931 0.391545,2.33979 1.51881,2.368213 1.556702,0.03789 1.566174,-2.248222 1.54723,-3.530212 -0.0063,-0.479958 -0.01263,-0.723095 -0.02526,-1.203053 0.903076,-0.05368 1.354615,-0.0821 2.257691,-0.135776 0.07263,2.946052 0.06947,4.420658 -0.0095,7.363552 0.517845,4.929031 -4.531174,5.282684 -7.461441,3.097618 0.0821,-0.748356 0.119991,-1.120956 0.18946,-1.872467 l -3e-6,0.0032 z"
                 style="fill:#ea9c00;fill-opacity:1;fill-rule:nonzero;stroke:none"
                 id="path6254"
                 inkscape:connector-curvature="0" />
            </g>
            <g
               transform="matrix(3.5640261,-1.815962,1.815962,3.5640261,342.53516,988)"
               id="g6260">
              <path
                 d="m 69.387245,24.792978 c -0.783089,0.123148 -1.370399,0.988333 -1.323036,1.935618 0.04736,0.947283 0.713623,1.654587 1.499863,1.578808 0.786247,-0.07579 1.395668,-0.940972 1.345146,-1.938776 -0.05052,-0.994648 -0.738884,-1.701954 -1.521973,-1.578806 v 0.0032 z"
                 style="fill:#ea9c00;fill-opacity:1;fill-rule:nonzero;stroke:none"
                 id="path6258"
                 inkscape:connector-curvature="0" />
            </g>
            <g
               transform="matrix(3.5640261,-1.815962,1.815962,3.5640261,384.94922,943.42773)"
               id="g6264">
              <path
                 d="m 48.164097,42.939392 c 1.787208,1.259888 5.052181,2.150337 5.146908,-1.367245 0.01894,-0.647312 0.02526,-0.972541 0.03474,-1.619857 -0.35997,1.092537 -1.190422,1.493553 -2.159809,1.439872 -2.377682,-0.129459 -3.293392,-1.844043 -3.315494,-4.464863 -0.0063,-0.764141 -0.01263,-1.143054 -0.02842,-1.907196 -0.01579,-0.767303 -0.14209,-1.076747 -0.928337,-0.966232 -0.01894,-0.593632 -0.02842,-0.893604 -0.05368,-1.487236 1.632485,-0.596786 3.182873,-0.524162 3.246026,1.802998 0.02526,0.991489 0.03473,1.487236 0.04105,2.478725 0.0095,1.360932 0.391545,2.33979 1.518811,2.36821 1.556705,0.03789 1.566177,-2.248222 1.54723,-3.530212 -0.0063,-0.479958 -0.01263,-0.723092 -0.02526,-1.203049 l 2.257694,-0.13578 c 0.07263,2.946056 0.06947,4.420661 -0.0095,7.363555 0.517845,4.929032 -4.531178,5.282685 -7.461441,3.097619 0.0821,-0.74836 0.119991,-1.120957 0.189457,-1.872467 v 0.0032 z"
                 style="fill:#ffcc00;fill-opacity:1;fill-rule:nonzero;stroke:none"
                 id="path6262"
                 inkscape:connector-curvature="0" />
            </g>
            <g
               transform="matrix(3.5640261,-1.815962,1.815962,3.5640261,350.88672,993.42188)"
               id="g6268">
              <path
                 d="m 67.56723,21.642982 c -0.783088,0.123147 -1.370399,0.988333 -1.323044,1.935618 0.04737,0.947283 0.713623,1.654589 1.499871,1.578806 0.786247,-0.07578 1.395668,-0.940968 1.345146,-1.938774 -0.05052,-0.994648 -0.738884,-1.701954 -1.521973,-1.578806 v 0.0032 z"
                 style="fill:#ffcc00;fill-opacity:1;fill-rule:nonzero;stroke:none"
                 id="path6266"
                 inkscape:connector-curvature="0" />
            </g>
          </g>
        </g>
        <g
           transform="matrix(0.08819444,0,0,0.08819444,258.67651,-73.295191)"
           id="g6322">
          <g
             clip-path="url(#clipPath6278)"
             id="g6320">
            <g
               transform="matrix(1.0352762,3.8637033,-3.8637033,1.0352762,829.89453,1041.8574)"
               id="g6282">
              <path
                 d="m 12.977788,0 c 0.852133,0 1.696079,0.09974581 2.531838,0.29923743 0.83576,0.19949162 1.647276,0.49489588 2.434544,0.88621277 0.787268,0.391317 1.535166,0.8710273 2.24369,1.4391314 0.708523,0.568104 1.36406,1.2136857 1.966609,1.9367454 0.602548,0.7230592 1.140533,1.5097027 1.613952,2.35993 0.473421,0.8502279 0.873179,1.7477036 1.199274,2.6924257 0.326098,0.9447233 0.572268,1.9185413 0.738514,2.9214523 0.166245,1.002914 0.249367,2.01565 0.249367,3.038211 0,1.022559 -0.08312,2.035297 -0.249367,3.038209 -0.166246,1.002911 -0.412416,1.976727 -0.738514,2.92145 -0.326095,0.944723 -0.725853,1.842197 -1.199274,2.692426 -0.473419,0.85023 -1.011404,1.636874 -1.613952,2.359932 -0.602549,0.723059 -1.258086,1.368641 -1.96661,1.936743 -0.708525,0.568106 -1.456421,1.047815 -2.243689,1.439133 -0.787268,0.391317 -1.598784,0.686722 -2.434544,0.886213 -0.835759,0.199492 -1.679705,0.299238 -2.531838,0.29924 -0.852134,-2e-6 -1.696081,-0.09975 -2.531841,-0.29924 C 9.6101866,30.647961 8.7986717,30.352556 8.0114031,29.961239 7.224134,29.569921 6.4762378,29.090212 5.7677145,28.522108 5.0591912,27.954004 4.4036551,27.308422 3.801106,26.585363 3.1985564,25.862305 2.6605716,25.075661 2.1871514,24.225431 1.7137313,23.375202 1.3139725,22.477728 0.98787516,21.533005 0.66177773,20.588282 0.41560754,19.614466 0.24936453,18.611555 0.08312151,17.608643 0,16.595905 0,15.573346 0,14.550785 0.08312151,13.538049 0.24936453,12.535136 0.41560754,11.532224 0.66177773,10.558406 0.98787516,9.6136837 1.3139725,8.6689615 1.7137313,7.7714858 2.1871514,6.9212575 2.6605716,6.0710297 3.1985564,5.2843862 3.801106,4.561327 4.4036551,3.8382673 5.0591912,3.1926856 5.7677145,2.6245816 6.4762378,2.0564775 7.224134,1.5767672 8.0114031,1.1854502 8.7986717,0.79413331 9.6101866,0.49872905 10.445947,0.29923743 11.281707,0.09974581 12.125654,0 12.977788,0 Z"
                 style="fill:#f0aa00;fill-opacity:1;fill-rule:nonzero;stroke:none"
                 id="path6280"
                 inkscape:connector-curvature="0" />
            </g>
            <g
               transform="matrix(1.0352762,3.8637033,-3.8637033,1.0352762,840.72656,1082.2891)"
               id="g6286">
              <path
                 d="M 0,0 H 2.8544817 V 31.149847 H 0 Z"
                 style="fill:#f0aa00;fill-opacity:1;fill-rule:nonzero;stroke:none"
                 id="path6284"
                 inkscape:connector-curvature="0" />
            </g>
            <g
               transform="matrix(1.0352762,3.8637033,-3.8637033,1.0352762,827.29297,1032.1465)"
               id="g6290">
              <path
                 d="m 12.977788,0 c 0.852133,0 1.696079,0.09974581 2.531838,0.29923743 0.83576,0.19949162 1.647276,0.49489588 2.434544,0.88621277 0.787268,0.391317 1.535166,0.8710273 2.24369,1.4391314 0.708523,0.568104 1.36406,1.2136857 1.966609,1.9367454 0.602548,0.7230592 1.140533,1.5097027 1.613952,2.35993 0.473421,0.8502279 0.873179,1.7477036 1.199274,2.6924257 0.326098,0.9447233 0.572268,1.9185413 0.738514,2.9214523 0.166245,1.002914 0.249367,2.01565 0.249367,3.038211 0,1.022559 -0.08312,2.035297 -0.249367,3.038209 -0.166246,1.002911 -0.412416,1.976727 -0.738514,2.92145 -0.326095,0.944723 -0.725853,1.842197 -1.199274,2.692426 -0.473419,0.85023 -1.011404,1.636874 -1.613952,2.359932 -0.602549,0.723059 -1.258086,1.368641 -1.96661,1.936743 -0.708525,0.568106 -1.456421,1.047815 -2.243689,1.439133 -0.787268,0.391317 -1.598784,0.686722 -2.434544,0.886213 -0.835759,0.199492 -1.679705,0.299238 -2.531838,0.29924 -0.852134,-2e-6 -1.696081,-0.09975 -2.531841,-0.29924 C 9.6101866,30.647961 8.7986717,30.352556 8.0114031,29.961239 7.224134,29.569921 6.4762378,29.090212 5.7677145,28.522108 5.0591912,27.954004 4.4036551,27.308422 3.801106,26.585363 3.1985564,25.862305 2.6605716,25.075661 2.1871514,24.225431 1.7137313,23.375202 1.3139725,22.477728 0.98787516,21.533005 0.66177773,20.588282 0.41560754,19.614466 0.24936453,18.611555 0.08312151,17.608643 0,16.595905 0,15.573346 0,14.550785 0.08312151,13.538049 0.24936453,12.535136 0.41560754,11.532224 0.66177773,10.558406 0.98787516,9.6136837 1.3139725,8.6689615 1.7137313,7.7714858 2.1871514,6.9212575 2.6605716,6.0710297 3.1985564,5.2843862 3.801106,4.561327 4.4036551,3.8382673 5.0591912,3.1926856 5.7677145,2.6245816 6.4762378,2.0564775 7.224134,1.5767672 8.0114031,1.1854502 8.7986717,0.79413331 9.6101866,0.49872905 10.445947,0.29923743 11.281707,0.09974581 12.125654,0 12.977788,0 Z"
                 style="fill:#ffcc00;fill-opacity:1;fill-rule:nonzero;stroke:none"
                 id="path6288"
                 inkscape:connector-curvature="0" />
            </g>
            <g
               transform="matrix(1.0352762,3.8637033,-3.8637033,1.0352762,807.55469,948.63672)"
               id="g6294">
              <path
                 d="m 34.013611,20.21088 c 2.873428,-2.459781 4.916405,-5.528979 5.472145,-9.321273 C 39.870987,8.271945 40.565659,4.9311914 39.953083,2.1272318 38.273232,1.1767902 36.397606,0.63999611 34.417786,0.63999611 27.253162,0.63683903 21.439999,7.6088467 21.439999,16.210186 c 0,3.514421 0.972543,6.757292 2.608188,9.365479 3.656515,-1.067271 7.057263,-2.879744 9.962265,-5.367941 l 0.0032,0.0032 z"
                 style="fill:#fcdc59;fill-opacity:1;fill-rule:nonzero;stroke:none"
                 id="path6292"
                 inkscape:connector-curvature="0" />
            </g>
            <g
               transform="matrix(1.0352762,3.8637033,-3.8637033,1.0352762,828.63281,916.38281)"
               id="g6298">
              <path
                 d="m 50.41983,23.10051 c 0,6.612041 -4.385925,11.970512 -9.794914,11.970512 -5.408989,0 -9.794912,-5.358471 -9.794912,-11.970512 0,-6.612042 4.382765,-11.970509 9.794912,-11.970509 5.412148,0 9.794914,5.358467 9.794914,11.970509 z"
                 style="fill:#da8100;fill-opacity:1;fill-rule:nonzero;stroke:none"
                 id="path6296"
                 inkscape:connector-curvature="0" />
            </g>
            <g
               transform="matrix(1.0352762,3.8637033,-3.8637033,1.0352762,831.02734,905.96484)"
               id="g6302">
              <path
                 d="m 53.254101,24.640011 c 0,6.451004 -4.24699,11.680008 -9.488625,11.680008 -5.241634,0 -9.48547,-5.229004 -9.48547,-11.680008 0,-6.451004 4.246987,-11.68001 9.485466,-11.68001 5.23848,0 9.488625,5.229006 9.488625,11.68001 z"
                 style="fill:#f0aa00;fill-opacity:1;fill-rule:nonzero;stroke:none"
                 id="path6300"
                 inkscape:connector-curvature="0" />
            </g>
            <g
               transform="matrix(1.0352762,3.8637033,-3.8637033,1.0352762,880.15234,852)"
               id="g6306">
              <path
                 d="m 49.984097,46.089397 c 1.787208,1.259884 5.052177,2.150334 5.146907,-1.367248 0.01894,-0.647308 0.02526,-0.972546 0.03473,-1.619854 -0.359966,1.092537 -1.190418,1.493553 -2.159805,1.439873 -2.377682,-0.129464 -3.293389,-1.844048 -3.315495,-4.464867 -0.0063,-0.764141 -0.01263,-1.143055 -0.02842,-1.907196 -0.01579,-0.7673 -0.142094,-1.076744 -0.928337,-0.966232 -0.01895,-0.593632 -0.02842,-0.893601 -0.05368,-1.487233 1.632488,-0.59679 3.182873,-0.524166 3.246025,1.802998 0.02526,0.991489 0.03474,1.487232 0.04105,2.478722 0.0095,1.360931 0.391545,2.33979 1.51881,2.368213 1.556702,0.03789 1.566174,-2.248222 1.54723,-3.530212 -0.0063,-0.479958 -0.01263,-0.723095 -0.02526,-1.203053 0.903076,-0.05368 1.354615,-0.0821 2.257691,-0.135776 0.07263,2.946052 0.06947,4.420658 -0.0095,7.363552 0.517845,4.929031 -4.531174,5.282684 -7.461441,3.097618 0.0821,-0.748356 0.119991,-1.120956 0.18946,-1.872467 l -3e-6,0.0032 z"
                 style="fill:#ea9c00;fill-opacity:1;fill-rule:nonzero;stroke:none"
                 id="path6304"
                 inkscape:connector-curvature="0" />
            </g>
            <g
               transform="matrix(1.0352762,3.8637033,-3.8637033,1.0352762,838.33594,808.28711)"
               id="g6310">
              <path
                 d="m 69.387245,24.792978 c -0.783089,0.123148 -1.370399,0.988333 -1.323036,1.935618 0.04736,0.947283 0.713623,1.654587 1.499863,1.578808 0.786247,-0.07579 1.395668,-0.940972 1.345146,-1.938776 -0.05052,-0.994648 -0.738884,-1.701954 -1.521973,-1.578806 v 0.0032 z"
                 style="fill:#ea9c00;fill-opacity:1;fill-rule:nonzero;stroke:none"
                 id="path6308"
                 inkscape:connector-curvature="0" />
            </g>
            <g
               transform="matrix(1.0352762,3.8637033,-3.8637033,1.0352762,873.11719,859.04297)"
               id="g6314">
              <path
                 d="m 48.164097,42.939392 c 1.787208,1.259888 5.052181,2.150337 5.146908,-1.367245 0.01894,-0.647312 0.02526,-0.972541 0.03474,-1.619857 -0.35997,1.092537 -1.190422,1.493553 -2.159809,1.439872 -2.377682,-0.129459 -3.293392,-1.844043 -3.315494,-4.464863 -0.0063,-0.764141 -0.01263,-1.143054 -0.02842,-1.907196 -0.01579,-0.767303 -0.14209,-1.076747 -0.928337,-0.966232 -0.01894,-0.593632 -0.02842,-0.893604 -0.05368,-1.487236 1.632485,-0.596786 3.182873,-0.524162 3.246026,1.802998 0.02526,0.991489 0.03473,1.487236 0.04105,2.478725 0.0095,1.360932 0.391545,2.33979 1.518811,2.36821 1.556705,0.03789 1.566177,-2.248222 1.54723,-3.530212 -0.0063,-0.479958 -0.01263,-0.723092 -0.02526,-1.203049 l 2.257694,-0.13578 c 0.07263,2.946056 0.06947,4.420661 -0.0095,7.363555 0.517845,4.929032 -4.531178,5.282685 -7.461441,3.097619 0.0821,-0.74836 0.119991,-1.120957 0.189457,-1.872467 v 0.0032 z"
                 style="fill:#ffcc00;fill-opacity:1;fill-rule:nonzero;stroke:none"
                 id="path6312"
                 inkscape:connector-curvature="0" />
            </g>
            <g
               transform="matrix(1.0352762,3.8637033,-3.8637033,1.0352762,831.29688,815.33008)"
               id="g6318">
              <path
                 d="m 67.56723,21.642982 c -0.783088,0.123147 -1.370399,0.988333 -1.323044,1.935618 0.04737,0.947283 0.713623,1.654589 1.499871,1.578806 0.786247,-0.07578 1.395668,-0.940968 1.345146,-1.938774 -0.05052,-0.994648 -0.738884,-1.701954 -1.521973,-1.578806 v 0.0032 z"
                 style="fill:#ffcc00;fill-opacity:1;fill-rule:nonzero;stroke:none"
                 id="path6316"
                 inkscape:connector-curvature="0" />
            </g>
          </g>
        </g>
        <g
           transform="matrix(0.08819444,0,0,0.08819444,258.67651,-73.295191)"
           id="g6372">
          <g
             clip-path="url(#clipPath6328)"
             id="g6370">
            <g
               transform="matrix(3.7587705,1.3680805,-1.3680805,3.7587705,947.375,1037.2246)"
               id="g6332">
              <path
                 d="m 19.183636,0 c 0.628288,0 1.255064,0.03694978 1.880325,0.11084933 0.625261,0.0738996 1.245998,0.18439301 1.862211,0.3314804 0.616217,0.14708743 1.224942,0.33006052 1.826178,0.54891924 0.601232,0.21885873 1.192079,0.47254923 1.772541,0.76107153 0.580461,0.2885225 1.147743,0.6104873 1.701845,0.9658945 0.554102,0.3554075 1.092352,0.7425458 1.614754,1.1614153 0.522402,0.4188698 1.026441,0.8674538 1.512115,1.3457516 0.48567,0.4782977 0.95064,0.9840064 1.394907,1.517126 0.444264,0.5331202 0.865689,1.091084 1.264275,1.6738921 0.398579,0.5828075 0.7724,1.1876516 1.121456,1.814533 0.34906,0.626884 0.671677,1.272785 0.967846,1.937705 0.296177,0.664921 0.56448,1.345659 0.804909,2.042212 0.240436,0.696555 0.451847,1.405573 0.634231,2.127054 0.182381,0.721479 0.334858,1.45195 0.457428,2.191408 0.122574,0.739458 0.214653,1.484347 0.276238,2.234661 0.06158,0.750315 0.09238,1.502445 0.09238,2.25639 0,0.753946 -0.03079,1.506077 -0.09238,2.256391 -0.06159,0.750313 -0.153664,1.495198 -0.276238,2.234654 -0.12257,0.73946 -0.275047,1.469931 -0.457428,2.19141 -0.182384,0.721481 -0.393795,1.430498 -0.634231,2.12705 -0.240429,0.696553 -0.508732,1.377293 -0.804909,2.042214 -0.296169,0.664921 -0.618786,1.310821 -0.967846,1.937706 -0.349056,0.626884 -0.722877,1.231731 -1.121456,1.814541 -0.398586,0.582805 -0.820011,1.14077 -1.264275,1.673889 -0.444267,0.533123 -0.909237,1.03883 -1.394907,1.517128 -0.485674,0.478298 -0.989713,0.92688 -1.512117,1.345745 -0.522402,0.418869 -1.060652,0.806007 -1.614752,1.161419 -0.554102,0.355404 -1.121384,0.677368 -1.701845,0.965889 -0.580462,0.288524 -1.171309,0.542217 -1.772543,0.761078 -0.601234,0.21886 -1.209959,0.401832 -1.826176,0.548915 -0.616213,0.147091 -1.23695,0.257584 -1.862211,0.331486 -0.625261,0.0739 -1.252037,0.110848 -1.880325,0.110848 -0.628289,0 -1.255064,-0.03695 -1.880326,-0.110852 -0.625261,-0.0739 -1.246,-0.184394 -1.862217,-0.331485 C 14.824879,45.451305 14.216154,45.268333 13.614921,45.049477 13.013686,44.830616 12.422837,44.576923 11.842375,44.288399 11.261913,43.999878 10.694633,43.677914 10.140532,43.322506 9.5864315,42.967098 9.0481806,42.57996 8.5257778,42.161091 8.003376,41.742226 7.4993386,41.293644 7.0136652,40.815346 6.5279927,40.337048 6.0630231,39.831341 5.6187563,39.298218 5.17449,38.765099 4.7530661,38.207134 4.3544846,37.624329 3.9559031,37.041519 3.5820832,36.436672 3.2330251,35.809788 2.8839672,35.182903 2.561352,34.537003 2.2651792,33.872082 1.9690064,33.207161 1.7007024,32.526424 1.4602671,31.829872 1.2198318,31.13332 1.0084231,30.424303 0.82604086,29.702822 0.64365852,28.98134 0.49118099,28.25087 0.36860812,27.51141 0.24603528,26.771954 0.1539574,26.027069 0.09237444,25.276754 0.03079148,24.52644 0,23.774309 0,23.020363 0,22.266418 0.03079148,21.514288 0.09237444,20.763973 0.1539574,20.013659 0.24603528,19.26877 0.36860812,18.529312 0.49118099,17.789854 0.64365852,17.059383 0.82604086,16.337904 1.0084231,15.616423 1.2198318,14.907405 1.4602671,14.21085 1.7007024,13.514297 1.9690064,12.833559 2.2651792,12.168638 2.561352,11.503718 2.8839672,10.857817 3.2330251,10.230933 3.5820832,9.6040516 3.9559028,8.9992075 4.3544841,8.4164 4.7530661,7.8335919 5.17449,7.2756281 5.6187563,6.7425079 6.0630231,6.2093883 6.5279927,5.70368 7.0136662,5.2253823 7.4993391,4.7470841 8.003377,4.2985001 8.5257788,3.8796303 9.0481815,3.4607608 9.5864325,3.0736225 10.140533,2.718215 10.694633,2.3628078 11.261913,2.040843 11.842375,1.7523205 12.422837,1.4637982 13.013686,1.2101077 13.614921,0.99124897 14.216154,0.77239025 14.824879,0.58941716 15.441093,0.44232973 16.057308,0.29524234 16.678049,0.18474889 17.30331,0.11084933 17.928572,0.03694978 18.555347,0 19.183636,0 Z"
                 style="fill:#f0aa00;fill-opacity:1;fill-rule:nonzero;stroke:none"
                 id="path6330"
                 inkscape:connector-curvature="0" />
            </g>
            <g
               transform="matrix(3.7587705,1.3680805,-1.3680805,3.7587705,1005.5156,1058.3867)"
               id="g6336">
              <path
                 d="M 0,0 H 4.2194657 V 46.045387 H 0 Z"
                 style="fill:#f0aa00;fill-opacity:1;fill-rule:nonzero;stroke:none"
                 id="path6334"
                 inkscape:connector-curvature="0" />
            </g>
            <g
               transform="matrix(3.7587705,1.3680805,-1.3680805,3.7587705,933.40625,1032.1406)"
               id="g6340">
              <path
                 d="m 19.183636,0 c 0.628288,0 1.255064,0.03694978 1.880325,0.11084933 0.625261,0.0738996 1.245998,0.18439301 1.862211,0.3314804 0.616217,0.14708743 1.224942,0.33006052 1.826178,0.54891924 0.601232,0.21885873 1.192079,0.47254923 1.772541,0.76107153 0.580461,0.2885225 1.147743,0.6104873 1.701845,0.9658945 0.554102,0.3554075 1.092352,0.7425458 1.614754,1.1614153 0.522402,0.4188698 1.026441,0.8674538 1.512115,1.3457516 0.48567,0.4782977 0.95064,0.9840064 1.394907,1.517126 0.444264,0.5331202 0.865689,1.091084 1.264275,1.6738921 0.398579,0.5828075 0.7724,1.1876516 1.121456,1.814533 0.34906,0.626884 0.671677,1.272785 0.967846,1.937705 0.296177,0.664921 0.56448,1.345659 0.804909,2.042212 0.240436,0.696555 0.451847,1.405573 0.634231,2.127054 0.182381,0.721479 0.334858,1.45195 0.457428,2.191408 0.122574,0.739458 0.214653,1.484347 0.276238,2.234661 0.06158,0.750315 0.09238,1.502445 0.09238,2.25639 0,0.753946 -0.03079,1.506077 -0.09238,2.256391 -0.06159,0.750313 -0.153664,1.495198 -0.276238,2.234654 -0.12257,0.73946 -0.275047,1.469931 -0.457428,2.19141 -0.182384,0.721481 -0.393795,1.430498 -0.634231,2.12705 -0.240429,0.696553 -0.508732,1.377293 -0.804909,2.042214 -0.296169,0.664921 -0.618786,1.310821 -0.967846,1.937706 -0.349056,0.626884 -0.722877,1.231731 -1.121456,1.814541 -0.398586,0.582805 -0.820011,1.14077 -1.264275,1.673889 -0.444267,0.533123 -0.909237,1.03883 -1.394907,1.517128 -0.485674,0.478298 -0.989713,0.92688 -1.512117,1.345745 -0.522402,0.418869 -1.060652,0.806007 -1.614752,1.161419 -0.554102,0.355404 -1.121384,0.677368 -1.701845,0.965889 -0.580462,0.288524 -1.171309,0.542217 -1.772543,0.761078 -0.601234,0.21886 -1.209959,0.401832 -1.826176,0.548915 -0.616213,0.147091 -1.23695,0.257584 -1.862211,0.331486 -0.625261,0.0739 -1.252037,0.110848 -1.880325,0.110848 -0.628289,0 -1.255064,-0.03695 -1.880326,-0.110852 -0.625261,-0.0739 -1.246,-0.184394 -1.862217,-0.331485 C 14.824879,45.451305 14.216154,45.268333 13.614921,45.049477 13.013686,44.830616 12.422837,44.576923 11.842375,44.288399 11.261913,43.999878 10.694633,43.677914 10.140532,43.322506 9.5864315,42.967098 9.0481806,42.57996 8.5257778,42.161091 8.003376,41.742226 7.4993386,41.293644 7.0136652,40.815346 6.5279927,40.337048 6.0630231,39.831341 5.6187563,39.298218 5.17449,38.765099 4.7530661,38.207134 4.3544846,37.624329 3.9559031,37.041519 3.5820832,36.436672 3.2330251,35.809788 2.8839672,35.182903 2.561352,34.537003 2.2651792,33.872082 1.9690064,33.207161 1.7007024,32.526424 1.4602671,31.829872 1.2198318,31.13332 1.0084231,30.424303 0.82604086,29.702822 0.64365852,28.98134 0.49118099,28.25087 0.36860812,27.51141 0.24603528,26.771954 0.1539574,26.027069 0.09237444,25.276754 0.03079148,24.52644 0,23.774309 0,23.020363 0,22.266418 0.03079148,21.514288 0.09237444,20.763973 0.1539574,20.013659 0.24603528,19.26877 0.36860812,18.529312 0.49118099,17.789854 0.64365852,17.059383 0.82604086,16.337904 1.0084231,15.616423 1.2198318,14.907405 1.4602671,14.21085 1.7007024,13.514297 1.9690064,12.833559 2.2651792,12.168638 2.561352,11.503718 2.8839672,10.857817 3.2330251,10.230933 3.5820832,9.6040516 3.9559028,8.9992075 4.3544841,8.4164 4.7530661,7.8335919 5.17449,7.2756281 5.6187563,6.7425079 6.0630231,6.2093883 6.5279927,5.70368 7.0136662,5.2253823 7.4993391,4.7470841 8.003377,4.2985001 8.5257788,3.8796303 9.0481815,3.4607608 9.5864325,3.0736225 10.140533,2.718215 10.694633,2.3628078 11.261913,2.040843 11.842375,1.7523205 12.422837,1.4637982 13.013686,1.2101077 13.614921,0.99124897 14.216154,0.77239025 14.824879,0.58941716 15.441093,0.44232973 16.057308,0.29524234 16.678049,0.18474889 17.30331,0.11084933 17.928572,0.03694978 18.555347,0 19.183636,0 Z"
                 style="fill:#ffcc00;fill-opacity:1;fill-rule:nonzero;stroke:none"
                 id="path6338"
                 inkscape:connector-curvature="0" />
            </g>
            <g
               transform="matrix(3.7587705,1.3680805,-1.3680805,3.7587705,853.67188,1000.416)"
               id="g6344">
              <path
                 d="m 40.026184,29.569477 c 4.247475,-3.636022 7.26738,-8.17288 8.088867,-13.778611 0.569443,-3.8694 1.596306,-8.8076683 0.690796,-12.9524525 C 46.322708,1.4334803 43.550179,0.63999659 40.623634,0.63999659 30.032957,0.63532984 21.439999,10.941281 21.439999,23.655693 c 0,5.194981 1.437605,9.98856 3.855398,13.843956 5.405021,-1.577629 10.431974,-4.256809 14.726118,-7.934837 l 0.0047,0.0047 z"
                 style="fill:#fcdc59;fill-opacity:1;fill-rule:nonzero;stroke:none"
                 id="path6342"
                 inkscape:connector-curvature="0" />
            </g>
            <g
               transform="matrix(3.7587705,1.3680805,-1.3680805,3.7587705,842.50391,972.53906)"
               id="g6348">
              <path
                 d="m 59.787487,28.824684 c 0,9.773853 -6.483231,17.694691 -14.478744,17.694691 -7.995514,0 -14.478741,-7.920838 -14.478741,-17.694691 0,-9.773853 6.478557,-17.694683 14.478741,-17.694683 8.000183,0 14.478744,7.92083 14.478744,17.694683 z"
                 style="fill:#da8100;fill-opacity:1;fill-rule:nonzero;stroke:none"
                 id="path6346"
                 inkscape:connector-curvature="0" />
            </g>
            <g
               transform="matrix(3.7587705,1.3680805,-1.3680805,3.7587705,836.92188,966.35352)"
               id="g6352">
              <path
                 d="m 62.32732,30.225273 c 0,9.535809 -6.277862,17.265267 -14.025993,17.265267 -7.748127,0 -14.021324,-7.729458 -14.021324,-17.265267 0,-9.53581 6.277855,-17.265274 14.021324,-17.265274 7.743461,0 14.025985,7.729464 14.025985,17.265274 z"
                 style="fill:#f0aa00;fill-opacity:1;fill-rule:nonzero;stroke:none"
                 id="path6350"
                 inkscape:connector-curvature="0" />
            </g>
            <g
               transform="matrix(3.7587705,1.3680805,-1.3680805,3.7587705,824.42969,910.86914)"
               id="g6356">
              <path
                 d="m 50.6077,51.20034 c 2.641831,1.862351 7.468071,3.178604 7.608101,-2.021049 0.02801,-0.956848 0.03735,-1.437607 0.05135,-2.394451 -0.532097,1.614978 -1.759666,2.207752 -3.192604,2.128406 -3.514664,-0.191376 -4.868256,-2.725853 -4.900932,-6.599922 -0.0093,-1.129547 -0.01867,-1.689652 -0.042,-2.819199 -0.02334,-1.134216 -0.210045,-1.591632 -1.372261,-1.428276 -0.02801,-0.877498 -0.04201,-1.320911 -0.07935,-2.19841 2.413124,-0.882168 4.704888,-0.774818 4.798241,2.665173 0.03734,1.46561 0.05135,2.19841 0.06068,3.66402 0.014,2.011715 0.578774,3.458657 2.245087,3.500672 2.301102,0.056 2.315102,-3.3233 2.287102,-5.218327 -0.0093,-0.709469 -0.01868,-1.06887 -0.03734,-1.778339 1.334915,-0.07935 2.002372,-0.121353 3.337295,-0.200703 0.107361,4.354824 0.102692,6.534573 -0.014,10.884724 0.765473,7.286049 -6.697929,7.808815 -11.029426,4.578872 0.12136,-1.106216 0.177375,-1.65699 0.280059,-2.76786 v 0.0047 z"
                 style="fill:#ea9c00;fill-opacity:1;fill-rule:nonzero;stroke:none"
                 id="path6354"
                 inkscape:connector-curvature="0" />
            </g>
            <g
               transform="matrix(3.7587705,1.3680805,-1.3680805,3.7587705,777.83203,918.02539)"
               id="g6360">
              <path
                 d="m 70.021179,24.801144 c -1.157547,0.182037 -2.025711,1.460945 -1.955688,2.86121 0.07001,1.400264 1.05487,2.445793 2.217071,2.333778 1.162232,-0.112026 2.063065,-1.390934 1.988388,-2.865879 -0.07468,-1.47028 -1.092209,-2.515812 -2.249771,-2.333775 v 0.0047 z"
                 style="fill:#ea9c00;fill-opacity:1;fill-rule:nonzero;stroke:none"
                 id="path6358"
                 inkscape:connector-curvature="0" />
            </g>
            <g
               transform="matrix(3.7587705,1.3680805,-1.3680805,3.7587705,825.78516,918.51172)"
               id="g6364">
              <path
                 d="m 48.787697,48.050335 c 2.64183,1.86235 7.468078,3.178604 7.608108,-2.021046 0.028,-0.956852 0.03734,-1.437603 0.05135,-2.394459 -0.532104,1.614979 -1.759674,2.207757 -3.192612,2.128407 -3.514663,-0.191368 -4.868255,-2.725849 -4.900924,-6.599915 -0.0093,-1.129547 -0.01868,-1.689655 -0.04201,-2.819198 -0.02333,-1.13422 -0.21003,-1.591637 -1.372254,-1.428276 -0.02801,-0.877499 -0.04201,-1.320915 -0.07935,-2.198418 2.413124,-0.882164 4.704887,-0.774811 4.79824,2.665173 0.03734,1.46561 0.05134,2.198417 0.06068,3.664028 0.01401,2.011715 0.578781,3.458652 2.245094,3.500664 2.301102,0.056 2.315109,-3.3233 2.287094,-5.218323 -0.0093,-0.709469 -0.01867,-1.068867 -0.03734,-1.778336 l 3.337303,-0.20071 c 0.107361,4.354832 0.102692,6.53458 -0.014,10.884735 0.765473,7.286041 -6.697944,7.808807 -11.029426,4.578865 0.12136,-1.106216 0.177368,-1.656982 0.280052,-2.76786 v 0.0047 z"
                 style="fill:#ffcc00;fill-opacity:1;fill-rule:nonzero;stroke:none"
                 id="path6362"
                 inkscape:connector-curvature="0" />
            </g>
            <g
               transform="matrix(3.7587705,1.3680805,-1.3680805,3.7587705,779.18359,925.66797)"
               id="g6368">
              <path
                 d="m 68.201164,21.65115 c -1.157554,0.182033 -2.025711,1.460945 -1.955703,2.86121 0.07002,1.400264 1.05487,2.445797 2.217086,2.333774 1.162224,-0.112018 2.063065,-1.390926 1.988381,-2.865875 -0.07468,-1.47028 -1.092209,-2.515812 -2.249764,-2.333775 v 0.0047 z"
                 style="fill:#ffcc00;fill-opacity:1;fill-rule:nonzero;stroke:none"
                 id="path6366"
                 inkscape:connector-curvature="0" />
            </g>
          </g>
        </g>
        <g
           transform="matrix(0.08819444,0,0,0.08819444,258.67651,-73.295191)"
           id="g6422">
          <g
             clip-path="url(#clipPath6378)"
             id="g6420">
            <g
               transform="matrix(3.3546822,-2.1785562,2.1785562,3.3546822,629.88281,1081.4668)"
               id="g6382">
              <path
                 d="m 5.3127284,0 c 0.3488383,0 0.6943255,0.04083303 1.0364614,0.12249909 0.3421359,0.0816661 0.6743459,0.20259594 0.9966306,0.36278968 0.3222852,0.16019377 0.6284519,0.35657319 0.9185009,0.58913843 0.2900486,0.2325653 0.5584059,0.4968478 0.8050728,0.7928472 0.246666,0.2959994 0.4669008,0.6180283 0.6607056,0.9660867 0.1938047,0.3480587 0.3574543,0.7154589 0.4909483,1.1022008 0.133496,0.3867419 0.234271,0.7853944 0.302327,1.1959574 0.06806,0.410563 0.102082,0.8251481 0.102082,1.2437549 0,0.4186063 -0.03403,0.8331909 -0.102083,1.2437539 -0.06806,0.4105625 -0.16883,0.8092146 -0.302326,1.1959572 C 10.087554,9.2017269 9.9239044,9.5691271 9.7300997,9.9171858 9.5362949,10.265245 9.3160601,10.587274 9.0693941,10.883273 8.8227272,11.179272 8.5543699,11.443554 8.2643213,11.67612 c -0.2900486,0.232565 -0.5962152,0.428944 -0.9185004,0.589139 -0.3222852,0.160193 -0.6544952,0.281124 -0.9966307,0.36279 -0.3421359,0.08167 -0.6876235,0.122498 -1.0364618,0.122499 -0.3488393,-1e-6 -0.6943269,-0.04083 -1.0364628,-0.1225 C 3.93413,12.546382 3.6019197,12.425452 3.2796347,12.265259 2.9573498,12.105064 2.6511831,11.908685 2.3611343,11.67612 2.0710857,11.443554 1.8027282,11.179272 1.556062,10.883273 1.3093957,10.587274 1.0891604,10.265245 0.895356,9.9171867 0.70155162,9.5691271 0.53790206,9.2017269 0.40440729,8.8149853 0.27091253,8.4282427 0.17013761,8.0295906 0.10208257,7.6190286 0.03402752,7.2084656 0,6.7938805 0,6.3752742 0,5.9566674 0.03402752,5.5420823 0.10208257,5.1315193 0.17013761,4.7209563 0.27091253,4.3223038 0.40440729,3.9355619 0.53790206,3.54882 0.70155162,3.1814198 0.895356,2.8333611 1.0891604,2.4853027 1.3093957,2.1632738 1.556062,1.8672744 1.8027282,1.571275 2.0710857,1.3069925 2.3611343,1.0744272 2.6511831,0.84186196 2.9573498,0.64548254 3.2796347,0.48528877 3.6019197,0.32509503 3.93413,0.20416515 4.2762656,0.12249909 4.6184015,0.04083303 4.9638891,0 5.3127284,0 Z"
                 style="fill:#f0aa00;fill-opacity:1;fill-rule:nonzero;stroke:none"
                 id="path6380"
                 inkscape:connector-curvature="0" />
            </g>
            <g
               transform="matrix(3.3546822,-2.1785562,2.1785562,3.3546822,644.25391,1072.1348)"
               id="g6386">
              <path
                 d="M 0,0 H 1.1685417 V 12.75184 H 0 Z"
                 style="fill:#f0aa00;fill-opacity:1;fill-rule:nonzero;stroke:none"
                 id="path6384"
                 inkscape:connector-curvature="0" />
            </g>
            <g
               transform="matrix(3.3546822,-2.1785562,2.1785562,3.3546822,626.42969,1083.709)"
               id="g6390">
              <path
                 d="m 5.3127284,0 c 0.3488383,0 0.6943255,0.04083303 1.0364614,0.12249909 0.3421359,0.0816661 0.6743459,0.20259594 0.9966306,0.36278968 0.3222852,0.16019377 0.6284519,0.35657319 0.9185009,0.58913843 0.2900486,0.2325653 0.5584059,0.4968478 0.8050728,0.7928472 0.246666,0.2959994 0.4669008,0.6180283 0.6607056,0.9660867 0.1938047,0.3480587 0.3574543,0.7154589 0.4909483,1.1022008 0.133496,0.3867419 0.234271,0.7853944 0.302327,1.1959574 0.06806,0.410563 0.102082,0.8251481 0.102082,1.2437549 0,0.4186063 -0.03403,0.8331909 -0.102083,1.2437539 -0.06806,0.4105625 -0.16883,0.8092146 -0.302326,1.1959572 C 10.087554,9.2017269 9.9239044,9.5691271 9.7300997,9.9171858 9.5362949,10.265245 9.3160601,10.587274 9.0693941,10.883273 8.8227272,11.179272 8.5543699,11.443554 8.2643213,11.67612 c -0.2900486,0.232565 -0.5962152,0.428944 -0.9185004,0.589139 -0.3222852,0.160193 -0.6544952,0.281124 -0.9966307,0.36279 -0.3421359,0.08167 -0.6876235,0.122498 -1.0364618,0.122499 -0.3488393,-1e-6 -0.6943269,-0.04083 -1.0364628,-0.1225 C 3.93413,12.546382 3.6019197,12.425452 3.2796347,12.265259 2.9573498,12.105064 2.6511831,11.908685 2.3611343,11.67612 2.0710857,11.443554 1.8027282,11.179272 1.556062,10.883273 1.3093957,10.587274 1.0891604,10.265245 0.895356,9.9171867 0.70155162,9.5691271 0.53790206,9.2017269 0.40440729,8.8149853 0.27091253,8.4282427 0.17013761,8.0295906 0.10208257,7.6190286 0.03402752,7.2084656 0,6.7938805 0,6.3752742 0,5.9566674 0.03402752,5.5420823 0.10208257,5.1315193 0.17013761,4.7209563 0.27091253,4.3223038 0.40440729,3.9355619 0.53790206,3.54882 0.70155162,3.1814198 0.895356,2.8333611 1.0891604,2.4853027 1.3093957,2.1632738 1.556062,1.8672744 1.8027282,1.571275 2.0710857,1.3069925 2.3611343,1.0744272 2.6511831,0.84186196 2.9573498,0.64548254 3.2796347,0.48528877 3.6019197,0.32509503 3.93413,0.20416515 4.2762656,0.12249909 4.6184015,0.04083303 4.9638891,0 5.3127284,0 Z"
                 style="fill:#ffcc00;fill-opacity:1;fill-rule:nonzero;stroke:none"
                 id="path6388"
                 inkscape:connector-curvature="0" />
            </g>
            <g
               transform="matrix(3.3546822,-2.1785562,2.1785562,3.3546822,553.10938,1128.2773)"
               id="g6394">
              <path
                 d="M 26.587269,8.6517448 C 27.763567,7.6447825 28.599903,6.3883424 28.827406,4.8358874 28.985109,3.7642932 29.269487,2.3966858 29.018717,1.2488265 28.331034,0.85974336 27.563208,0.63999546 26.752728,0.63999546 c -2.93299,-0.001292 -5.312729,2.85284464 -5.312729,6.37398204 0,1.4387012 0.398132,2.7662378 1.067716,3.8339535 1.49687,-0.436909 2.889036,-1.1788827 4.078261,-2.1974784 l 0.0013,0.00129 z"
                 style="fill:#fcdc59;fill-opacity:1;fill-rule:nonzero;stroke:none"
                 id="path6392"
                 inkscape:connector-curvature="0" />
            </g>
            <g
               transform="matrix(3.3546822,-2.1785562,2.1785562,3.3546822,505.78125,1115.4473)"
               id="g6398">
              <path
                 d="m 38.84951,16.030378 c 0,2.706778 -1.795471,4.90038 -4.009754,4.90038 -2.214283,0 -4.00975,-2.193602 -4.00975,-4.90038 0,-2.706777 1.794174,-4.900377 4.00975,-4.900377 2.215576,0 4.009754,2.1936 4.009754,4.900377 z"
                 style="fill:#da8100;fill-opacity:1;fill-rule:nonzero;stroke:none"
                 id="path6396"
                 inkscape:connector-curvature="0" />
            </g>
            <g
               transform="matrix(3.3546822,-2.1785562,2.1785562,3.3546822,492.23438,1116.6465)"
               id="g6402">
              <path
                 d="m 42.047447,17.741457 c 0,2.640852 -1.738594,4.781454 -3.884365,4.781454 -2.145771,0 -3.883076,-2.140602 -3.883076,-4.781454 0,-2.640853 1.738594,-4.781456 3.883072,-4.781456 2.144486,0 3.884369,2.140603 3.884369,4.781456 z"
                 style="fill:#f0aa00;fill-opacity:1;fill-rule:nonzero;stroke:none"
                 id="path6400"
                 inkscape:connector-curvature="0" />
            </g>
            <g
               transform="matrix(3.3546822,-2.1785562,2.1785562,3.3546822,407.60156,1078.4102)"
               id="g6406">
              <path
                 d="m 49.21386,39.776688 c 0.731636,0.515758 2.068214,0.880279 2.106994,-0.559716 0.0078,-0.264988 0.01035,-0.398132 0.01422,-0.66312 -0.147361,0.447254 -0.487323,0.611416 -0.884163,0.589443 -0.97335,-0.053 -1.348217,-0.754898 -1.357265,-1.827789 -0.0026,-0.312813 -0.0052,-0.46793 -0.01163,-0.780746 -0.0065,-0.31411 -0.05817,-0.440789 -0.380035,-0.39555 -0.0078,-0.243016 -0.01164,-0.365814 -0.02198,-0.60883 0.668293,-0.244308 1.302975,-0.214576 1.328831,0.738095 0.01034,0.405887 0.01422,0.608829 0.0168,1.014717 0.0039,0.557125 0.16029,0.957843 0.621757,0.969478 0.637268,0.01551 0.641148,-0.920356 0.633393,-1.445167 -0.0026,-0.19648 -0.0052,-0.296013 -0.01034,-0.492493 0.369694,-0.02197 0.554539,-0.03361 0.924236,-0.05558 0.02973,1.206028 0.02844,1.809689 -0.0039,3.014423 0.211994,2.017804 -1.854931,2.162575 -3.054493,1.268075 0.03361,-0.306355 0.04912,-0.458886 0.07756,-0.766533 l -3e-6,0.0013 z"
                 style="fill:#ea9c00;fill-opacity:1;fill-rule:nonzero;stroke:none"
                 id="path6404"
                 inkscape:connector-curvature="0" />
            </g>
            <g
               transform="matrix(3.3546822,-2.1785562,2.1785562,3.3546822,371.14453,1146.2129)"
               id="g6410">
              <path
                 d="m 68.604248,24.78289 c -0.320579,0.05041 -0.561005,0.404595 -0.541618,0.792385 0.01939,0.387791 0.292137,0.67734 0.614006,0.646317 0.321861,-0.03102 0.571342,-0.385204 0.550659,-0.793678 -0.02068,-0.407179 -0.302475,-0.69673 -0.623047,-0.646317 v 0.0013 z"
                 style="fill:#ea9c00;fill-opacity:1;fill-rule:nonzero;stroke:none"
                 id="path6408"
                 inkscape:connector-curvature="0" />
            </g>
            <g
               transform="matrix(3.3546822,-2.1785562,2.1785562,3.3546822,418.89453,1084.1582)"
               id="g6414">
              <path
                 d="m 47.39386,36.626682 c 0.731632,0.515759 2.068218,0.880284 2.106994,-0.559711 0.0078,-0.264992 0.01035,-0.398129 0.01422,-0.663124 -0.147362,0.447258 -0.487324,0.611419 -0.884163,0.589447 -0.973351,-0.053 -1.348221,-0.754898 -1.357266,-1.82779 -0.0026,-0.312812 -0.0052,-0.467933 -0.01163,-0.780746 -0.0065,-0.314114 -0.05817,-0.440792 -0.380031,-0.39555 -0.0078,-0.243015 -0.01164,-0.365814 -0.02198,-0.608829 0.668293,-0.244309 1.302975,-0.214577 1.328831,0.738094 0.01034,0.405888 0.01421,0.60883 0.0168,1.014717 0.0039,0.557125 0.16029,0.957844 0.621758,0.969479 0.637271,0.01551 0.641151,-0.920357 0.633392,-1.445168 -0.0026,-0.19648 -0.0052,-0.296013 -0.01034,-0.492492 l 0.924237,-0.05559 c 0.02973,1.206032 0.02843,1.809692 -0.0039,3.014427 0.21199,2.017799 -1.854931,2.162575 -3.054497,1.268074 0.03361,-0.306358 0.04912,-0.458885 0.07756,-0.766533 v 0.0013 z"
                 style="fill:#ffcc00;fill-opacity:1;fill-rule:nonzero;stroke:none"
                 id="path6412"
                 inkscape:connector-curvature="0" />
            </g>
            <g
               transform="matrix(3.3546822,-2.1785562,2.1785562,3.3546822,382.43359,1151.9609)"
               id="g6418">
              <path
                 d="m 66.784225,21.632893 c -0.320571,0.05041 -0.561004,0.404594 -0.541618,0.792387 0.01939,0.387788 0.292137,0.677339 0.614006,0.646316 0.321869,-0.03102 0.571343,-0.385204 0.550659,-0.793676 -0.02068,-0.407181 -0.302475,-0.696732 -0.623047,-0.646319 v 0.0013 z"
                 style="fill:#ffcc00;fill-opacity:1;fill-rule:nonzero;stroke:none"
                 id="path6416"
                 inkscape:connector-curvature="0" />
            </g>
          </g>
        </g>
        <g
           transform="matrix(0.08819444,0,0,0.08819444,258.67651,-73.295191)"
           id="g6472">
          <g
             clip-path="url(#clipPath6428)"
             id="g6470">
            <g
               transform="matrix(3.4984789,1.9392384,-1.9392384,3.4984789,885.88281,966.6543)"
               id="g6432">
              <path
                 d="m 6.0963516,0 c 0.4002919,0 0.7967382,0.04685587 1.1893387,0.1405676 0.3926005,0.0937117 0.7738123,0.23247868 1.1436339,0.41630089 0.3698215,0.18382222 0.7211475,0.40916753 1.0539789,0.67603601 0.3328294,0.2668685 0.6407699,0.5701322 0.9238199,0.9097914 0.283049,0.3396592 0.535768,0.7091873 0.758158,1.1085839 0.222391,0.3993967 0.410179,0.8209882 0.563364,1.2647744 0.153185,0.4437861 0.268825,0.9012393 0.346918,1.3723602 0.07809,0.4711208 0.11714,0.9468565 0.11714,1.4272075 0,0.48035 -0.03905,0.9560856 -0.11714,1.4272065 -0.07809,0.4711208 -0.193733,0.9285745 -0.346918,1.3723606 -0.153185,0.443785 -0.340973,0.865377 -0.563364,1.264774 -0.22239,0.399397 -0.475109,0.768925 -0.758158,1.108584 -0.28305,0.33966 -0.5909905,0.642924 -0.9238199,0.909791 -0.3328314,0.266869 -0.6841574,0.492215 -1.0539789,0.676036 -0.3698216,0.183822 -0.7510334,0.322589 -1.1436339,0.416301 -0.3926005,0.09371 -0.7890468,0.140569 -1.1893387,0.140569 -0.4002919,0 -0.7967386,-0.04686 -1.1893391,-0.140569 C 4.5144119,14.396963 4.1332006,14.258196 3.7633784,14.074374 3.3935566,13.890553 3.0422304,13.665207 2.7093997,13.398338 2.376569,13.131471 2.0686293,12.828207 1.7855799,12.488547 1.5025306,12.148888 1.2498107,11.77936 1.0274204,11.379963 0.80502999,10.980566 0.61724222,10.558974 0.46405706,10.115189 0.3108719,9.6714029 0.19523278,9.2139492 0.11713967,8.7428284 0.03904656,8.2717075 0,7.7959719 0,7.3156219 0,6.8352709 0.03904656,6.3595352 0.11713967,5.8884144 0.19523278,5.4172935 0.3108719,4.9598403 0.46405706,4.5160542 0.61724222,4.072268 0.80502993,3.6506765 1.0274203,3.2512798 1.2498107,2.8518832 1.5025306,2.4823551 1.7855799,2.1426959 2.0686293,1.8030367 2.376569,1.499773 2.7093997,1.2329045 3.0422304,0.96603602 3.3935566,0.74069071 3.7633784,0.55686849 4.1332006,0.37304628 4.5144119,0.23427933 4.9070125,0.1405676 5.299613,0.04685587 5.6960597,0 6.0963516,0 Z"
                 style="fill:#f0aa00;fill-opacity:1;fill-rule:nonzero;stroke:none"
                 id="path6430"
                 inkscape:connector-curvature="0" />
            </g>
            <g
               transform="matrix(3.4984789,1.9392384,-1.9392384,3.4984789,903.07813,976.18555)"
               id="g6436">
              <path
                 d="M 0,0 H 1.3409005 V 14.632726 H 0 Z"
                 style="fill:#f0aa00;fill-opacity:1;fill-rule:nonzero;stroke:none"
                 id="path6434"
                 inkscape:connector-curvature="0" />
            </g>
            <g
               transform="matrix(3.4984789,1.9392384,-1.9392384,3.4984789,881.75,964.36328)"
               id="g6440">
              <path
                 d="m 6.0963516,0 c 0.4002919,0 0.7967382,0.04685587 1.1893387,0.1405676 0.3926005,0.0937117 0.7738123,0.23247868 1.1436339,0.41630089 0.3698215,0.18382222 0.7211475,0.40916753 1.0539789,0.67603601 0.3328294,0.2668685 0.6407699,0.5701322 0.9238199,0.9097914 0.283049,0.3396592 0.535768,0.7091873 0.758158,1.1085839 0.222391,0.3993967 0.410179,0.8209882 0.563364,1.2647744 0.153185,0.4437861 0.268825,0.9012393 0.346918,1.3723602 0.07809,0.4711208 0.11714,0.9468565 0.11714,1.4272075 0,0.48035 -0.03905,0.9560856 -0.11714,1.4272065 -0.07809,0.4711208 -0.193733,0.9285745 -0.346918,1.3723606 -0.153185,0.443785 -0.340973,0.865377 -0.563364,1.264774 -0.22239,0.399397 -0.475109,0.768925 -0.758158,1.108584 -0.28305,0.33966 -0.5909905,0.642924 -0.9238199,0.909791 -0.3328314,0.266869 -0.6841574,0.492215 -1.0539789,0.676036 -0.3698216,0.183822 -0.7510334,0.322589 -1.1436339,0.416301 -0.3926005,0.09371 -0.7890468,0.140569 -1.1893387,0.140569 -0.4002919,0 -0.7967386,-0.04686 -1.1893391,-0.140569 C 4.5144119,14.396963 4.1332006,14.258196 3.7633784,14.074374 3.3935566,13.890553 3.0422304,13.665207 2.7093997,13.398338 2.376569,13.131471 2.0686293,12.828207 1.7855799,12.488547 1.5025306,12.148888 1.2498107,11.77936 1.0274204,11.379963 0.80502999,10.980566 0.61724222,10.558974 0.46405706,10.115189 0.3108719,9.6714029 0.19523278,9.2139492 0.11713967,8.7428284 0.03904656,8.2717075 0,7.7959719 0,7.3156219 0,6.8352709 0.03904656,6.3595352 0.11713967,5.8884144 0.19523278,5.4172935 0.3108719,4.9598403 0.46405706,4.5160542 0.61724222,4.072268 0.80502993,3.6506765 1.0274203,3.2512798 1.2498107,2.8518832 1.5025306,2.4823551 1.7855799,2.1426959 2.0686293,1.8030367 2.376569,1.499773 2.7093997,1.2329045 3.0422304,0.96603602 3.3935566,0.74069071 3.7633784,0.55686849 4.1332006,0.37304628 4.5144119,0.23427933 4.9070125,0.1405676 5.299613,0.04685587 5.6960597,0 6.0963516,0 Z"
                 style="fill:#ffcc00;fill-opacity:1;fill-rule:nonzero;stroke:none"
                 id="path6438"
                 inkscape:connector-curvature="0" />
            </g>
            <g
               transform="matrix(3.4984789,1.9392384,-1.9392384,3.4984789,807.97656,920.55078)"
               id="g6444">
              <path
                 d="M 27.346487,9.8334713 C 28.696289,8.6779823 29.655983,7.2362185 29.917042,5.4547777 30.098007,4.2251244 30.424328,2.6557963 30.13657,1.3386285 29.347454,0.892156 28.466377,0.63999557 27.53635,0.63999557 24.170748,0.63851249 21.439999,3.9136322 21.439999,7.9541345 c 0,1.6509089 0.456855,3.1742565 1.225204,4.3994595 1.717657,-0.501353 3.315167,-1.352768 4.6798,-2.5216057 l 0.0015,0.00148 z"
                 style="fill:#fcdc59;fill-opacity:1;fill-rule:nonzero;stroke:none"
                 id="path6442"
                 inkscape:connector-curvature="0" />
            </g>
            <g
               transform="matrix(3.4984789,1.9392384,-1.9392384,3.4984789,797.32422,873.78711)"
               id="g6448">
              <path
                 d="m 40.032379,16.75318 c 0,3.106025 -2.060303,5.623182 -4.601189,5.623182 -2.540885,0 -4.601188,-2.517157 -4.601188,-5.623182 0,-3.106024 2.058815,-5.623179 4.601188,-5.623179 2.54237,0 4.601189,2.517155 4.601189,5.623179 z"
                 style="fill:#da8100;fill-opacity:1;fill-rule:nonzero;stroke:none"
                 id="path6446"
                 inkscape:connector-curvature="0" />
            </g>
            <g
               transform="matrix(3.4984789,1.9392384,-1.9392384,3.4984789,790.06641,862.63477)"
               id="g6452">
              <path
                 d="m 43.193138,18.446718 c 0,3.030377 -1.995033,5.486716 -4.457306,5.486716 -2.462272,0 -4.455826,-2.456339 -4.455826,-5.486716 0,-3.030378 1.995034,-5.486717 4.455826,-5.486717 2.460789,0 4.457306,2.456339 4.457306,5.486717 z"
                 style="fill:#f0aa00;fill-opacity:1;fill-rule:nonzero;stroke:none"
                 id="path6450"
                 inkscape:connector-curvature="0" />
            </g>
            <g
               transform="matrix(3.4984789,1.9392384,-1.9392384,3.4984789,784.22656,771.98828)"
               id="g6456">
              <path
                 d="m 49.292603,40.42205 c 0.839546,0.591835 2.373275,1.010128 2.417778,-0.642265 0.0089,-0.304077 0.01186,-0.456856 0.01631,-0.760933 -0.16909,0.513222 -0.5592,0.701599 -1.014572,0.676384 -1.11692,-0.06081 -1.547077,-0.866245 -1.557465,-2.097381 -0.003,-0.358956 -0.0059,-0.536953 -0.01334,-0.895913 -0.0074,-0.360439 -0.06675,-0.505802 -0.436089,-0.453887 -0.0089,-0.278862 -0.01335,-0.419774 -0.02522,-0.698632 0.766865,-0.280342 1.495163,-0.246231 1.52483,0.846962 0.01186,0.465756 0.01632,0.698631 0.01928,1.164387 0.0045,0.639301 0.18393,1.099125 0.713471,1.112476 0.731262,0.0178 0.73571,-1.05611 0.726814,-1.658329 -0.003,-0.22546 -0.0059,-0.339676 -0.01187,-0.565136 0.424221,-0.02521 0.636333,-0.03857 1.060558,-0.06378 0.03412,1.383915 0.03263,2.076614 -0.0044,3.459045 0.243256,2.31543 -2.128532,2.48156 -3.505035,1.455116 0.03857,-0.351539 0.05637,-0.526573 0.089,-0.879593 l -3e-6,0.0015 z"
                 style="fill:#ea9c00;fill-opacity:1;fill-rule:nonzero;stroke:none"
                 id="path6454"
                 inkscape:connector-curvature="0" />
            </g>
            <g
               transform="matrix(3.4984789,1.9392384,-1.9392384,3.4984789,708.92969,771.63672)"
               id="g6460">
              <path
                 d="m 68.684296,24.78392 c -0.367859,0.05785 -0.643753,0.464272 -0.621506,0.909262 0.02225,0.444988 0.335228,0.777246 0.704567,0.741648 0.369339,-0.0356 0.655617,-0.442023 0.631889,-0.910744 -0.02374,-0.467239 -0.347091,-0.799498 -0.71495,-0.74165 v 0.0015 z"
                 style="fill:#ea9c00;fill-opacity:1;fill-rule:nonzero;stroke:none"
                 id="path6458"
                 inkscape:connector-curvature="0" />
            </g>
            <g
               transform="matrix(3.4984789,1.9392384,-1.9392384,3.4984789,784.44531,784.37891)"
               id="g6464">
              <path
                 d="m 47.472603,37.272049 c 0.839546,0.591835 2.373276,1.010128 2.417778,-0.642265 0.0089,-0.304078 0.01186,-0.456856 0.01631,-0.760933 -0.169094,0.513221 -0.559204,0.701599 -1.014576,0.676384 -1.11692,-0.06081 -1.547081,-0.866242 -1.557464,-2.097382 -0.003,-0.358955 -0.0059,-0.536953 -0.01335,-0.895912 -0.0074,-0.360443 -0.06675,-0.505802 -0.436088,-0.453888 -0.0089,-0.278862 -0.01335,-0.419773 -0.02522,-0.698631 0.766865,-0.280342 1.495163,-0.246228 1.52483,0.846962 0.01186,0.465751 0.01632,0.698631 0.01928,1.164386 0.0044,0.639302 0.183925,1.099125 0.713466,1.112477 0.731262,0.01779 0.735714,-1.056111 0.726814,-1.658329 -0.003,-0.22546 -0.0059,-0.339672 -0.01187,-0.565136 L 50.893089,33.236 c 0.03412,1.383919 0.03263,2.076614 -0.0044,3.459049 0.243256,2.315426 -2.128532,2.481556 -3.505035,1.455113 0.03857,-0.35154 0.05637,-0.526573 0.089,-0.879593 v 0.0015 z"
                 style="fill:#ffcc00;fill-opacity:1;fill-rule:nonzero;stroke:none"
                 id="path6462"
                 inkscape:connector-curvature="0" />
            </g>
            <g
               transform="matrix(3.4984789,1.9392384,-1.9392384,3.4984789,709.14844,784.02734)"
               id="g6468">
              <path
                 d="m 66.864273,21.633924 c -0.367859,0.05785 -0.643753,0.464272 -0.621506,0.909262 0.02226,0.444988 0.335228,0.777249 0.704575,0.74165 0.369339,-0.0356 0.655609,-0.442024 0.631882,-0.910746 -0.02373,-0.467237 -0.347092,-0.799497 -0.714951,-0.741648 v 0.0015 z"
                 style="fill:#ffcc00;fill-opacity:1;fill-rule:nonzero;stroke:none"
                 id="path6466"
                 inkscape:connector-curvature="0" />
            </g>
          </g>
        </g>
        <g
           transform="matrix(0.08819444,0,0,0.08819444,258.67651,-73.295191)"
           id="g6522">
          <g
             clip-path="url(#clipPath6478)"
             id="g6520">
            <g
               transform="matrix(3.4984789,1.9392384,-1.9392384,3.4984789,796.71094,927.44141)"
               id="g6482">
              <path
                 d="m 4.3706799,0 c 0.286983,0 0.5712084,0.03359254 0.8526763,0.10077763 0.2814689,0.0671851 0.5547719,0.16667178 0.8199096,0.29846009 0.2651377,0.13178829 0.5170155,0.2933459 0.7556334,0.48467294 0.2386174,0.19132694 0.4593897,0.40874704 0.6623177,0.65226004 0.2029271,0.243513 0.3841105,0.50844 0.5435496,0.794781 0.1594391,0.2863409 0.2940702,0.5885942 0.4038944,0.9067595 0.1098242,0.3181653 0.1927299,0.6461291 0.2487173,0.9838912 0.055987,0.3377624 0.083982,0.6788335 0.083982,1.0232129 0,0.3443795 -0.027994,0.6854501 -0.083982,1.0232125 C 8.6013908,6.6057897 8.5184851,6.933753 8.4086609,7.2519183 8.2988367,7.5700836 8.1642056,7.8723364 8.0047665,8.1586771 7.8453274,8.4450188 7.664144,8.7099457 7.4612164,8.9534588 7.2582889,9.1969719 7.0375161,9.4143915 6.7988987,9.6057186 6.5602808,9.7970457 6.308403,9.9586029 6.0432658,10.090391 c -0.2651377,0.131788 -0.5384407,0.231276 -0.8199096,0.298461 -0.2814679,0.06719 -0.5656933,0.100779 -0.8526763,0.100779 -0.2869831,0 -0.571209,-0.03359 -0.8526776,-0.100778 C 3.2365336,10.321668 2.9632304,10.22218 2.6980927,10.090392 2.4329553,9.9586029 2.1810775,9.7970457 1.9424599,9.6057186 1.7038424,9.4143915 1.4830699,9.1969719 1.2801424,8.9534588 1.0772148,8.7099457 0.8960315,8.4450188 0.73659229,8.1586771 0.57715309,7.8723364 0.44252172,7.5700836 0.33269814,7.2519183 0.22287454,6.933753 0.13996896,6.6057897 0.08398137,6.2680278 0.02799379,5.9302654 0,5.5891948 0,5.2448153 0,4.9004359 0.02799379,4.5593648 0.08398137,4.2216024 0.13996896,3.8838403 0.22287454,3.5558765 0.33269814,3.2377112 0.44252172,2.9195459 0.57715309,2.6172926 0.73659223,2.3309517 0.89603144,2.0446107 1.0772148,1.7796837 1.2801424,1.5361707 1.4830699,1.2926577 1.7038424,1.0752376 1.9424599,0.8839106 2.1810775,0.69258362 2.4329553,0.53102601 2.6980927,0.39923772 2.9632304,0.26744941 3.2365336,0.16796273 3.5180023,0.10077763 3.7994709,0.03359254 4.0836968,0 4.3706799,0 Z"
                 style="fill:#f0aa00;fill-opacity:1;fill-rule:nonzero;stroke:none"
                 id="path6480"
                 inkscape:connector-curvature="0" />
            </g>
            <g
               transform="matrix(3.4984789,1.9392384,-1.9392384,3.4984789,809.03906,934.27539)"
               id="g6486">
              <path
                 d="M 0,0 H 0.96133673 V 10.490693 H 0 Z"
                 style="fill:#f0aa00;fill-opacity:1;fill-rule:nonzero;stroke:none"
                 id="path6484"
                 inkscape:connector-curvature="0" />
            </g>
            <g
               transform="matrix(3.4984789,1.9392384,-1.9392384,3.4984789,793.75,925.79883)"
               id="g6490">
              <path
                 d="m 4.3706799,0 c 0.286983,0 0.5712084,0.03359254 0.8526763,0.10077763 0.2814689,0.0671851 0.5547719,0.16667178 0.8199096,0.29846009 0.2651377,0.13178829 0.5170155,0.2933459 0.7556334,0.48467294 0.2386174,0.19132694 0.4593897,0.40874704 0.6623177,0.65226004 0.2029271,0.243513 0.3841105,0.50844 0.5435496,0.794781 0.1594391,0.2863409 0.2940702,0.5885942 0.4038944,0.9067595 0.1098242,0.3181653 0.1927299,0.6461291 0.2487173,0.9838912 0.055987,0.3377624 0.083982,0.6788335 0.083982,1.0232129 0,0.3443795 -0.027994,0.6854501 -0.083982,1.0232125 C 8.6013908,6.6057897 8.5184851,6.933753 8.4086609,7.2519183 8.2988367,7.5700836 8.1642056,7.8723364 8.0047665,8.1586771 7.8453274,8.4450188 7.664144,8.7099457 7.4612164,8.9534588 7.2582889,9.1969719 7.0375161,9.4143915 6.7988987,9.6057186 6.5602808,9.7970457 6.308403,9.9586029 6.0432658,10.090391 c -0.2651377,0.131788 -0.5384407,0.231276 -0.8199096,0.298461 -0.2814679,0.06719 -0.5656933,0.100779 -0.8526763,0.100779 -0.2869831,0 -0.571209,-0.03359 -0.8526776,-0.100778 C 3.2365336,10.321668 2.9632304,10.22218 2.6980927,10.090392 2.4329553,9.9586029 2.1810775,9.7970457 1.9424599,9.6057186 1.7038424,9.4143915 1.4830699,9.1969719 1.2801424,8.9534588 1.0772148,8.7099457 0.8960315,8.4450188 0.73659229,8.1586771 0.57715309,7.8723364 0.44252172,7.5700836 0.33269814,7.2519183 0.22287454,6.933753 0.13996896,6.6057897 0.08398137,6.2680278 0.02799379,5.9302654 0,5.5891948 0,5.2448153 0,4.9004359 0.02799379,4.5593648 0.08398137,4.2216024 0.13996896,3.8838403 0.22287454,3.5558765 0.33269814,3.2377112 0.44252172,2.9195459 0.57715309,2.6172926 0.73659223,2.3309517 0.89603144,2.0446107 1.0772148,1.7796837 1.2801424,1.5361707 1.4830699,1.2926577 1.7038424,1.0752376 1.9424599,0.8839106 2.1810775,0.69258362 2.4329553,0.53102601 2.6980927,0.39923772 2.9632304,0.26744941 3.2365336,0.16796273 3.5180023,0.10077763 3.7994709,0.03359254 4.0836968,0 4.3706799,0 Z"
                 style="fill:#ffcc00;fill-opacity:1;fill-rule:nonzero;stroke:none"
                 id="path6488"
                 inkscape:connector-curvature="0" />
            </g>
            <g
               transform="matrix(3.4984789,1.9392384,-1.9392384,3.4984789,719.97656,881.98438)"
               id="g6494">
              <path
                 d="M 25.674561,7.2311077 C 26.642277,6.4026985 27.330315,5.3690495 27.517475,4.0918751 27.647217,3.210295 27.881168,2.0851908 27.674862,1.1408689 27.109119,0.82077777 26.477448,0.63999546 25.81068,0.63999546 23.397766,0.63893217 21.439999,2.9869759 21.439999,5.8837476 c 0,1.1835923 0.327535,2.2757315 0.878391,3.1541209 1.231445,-0.359437 2.376755,-0.9698448 3.355106,-1.8078241 l 0.0011,0.00106 z"
                 style="fill:#fcdc59;fill-opacity:1;fill-rule:nonzero;stroke:none"
                 id="path6492"
                 inkscape:connector-curvature="0" />
            </g>
            <g
               transform="matrix(3.4984789,1.9392384,-1.9392384,3.4984789,708.80078,832.91406)"
               id="g6498">
              <path
                 d="m 37.427498,15.161448 c 0,2.226814 -1.477104,4.031448 -3.298748,4.031448 -1.821648,0 -3.298748,-1.804634 -3.298748,-4.031448 0,-2.226814 1.476036,-4.031447 3.298748,-4.031447 1.822712,0 3.298748,1.804633 3.298748,4.031447 z"
                 style="fill:#da8100;fill-opacity:1;fill-rule:nonzero;stroke:none"
                 id="path6496"
                 inkscape:connector-curvature="0" />
            </g>
            <g
               transform="matrix(3.4984789,1.9392384,-1.9392384,3.4984789,701.18359,821.21484)"
               id="g6502">
              <path
                 d="m 40.670132,16.893614 c 0,2.172579 -1.43031,3.933611 -3.195591,3.933611 -1.76529,0 -3.194535,-1.761032 -3.194535,-3.933611 0,-2.172581 1.430306,-3.933613 3.194535,-3.933613 1.764221,0 3.195591,1.761032 3.195591,3.933613 z"
                 style="fill:#f0aa00;fill-opacity:1;fill-rule:nonzero;stroke:none"
                 id="path6500"
                 inkscape:connector-curvature="0" />
            </g>
            <g
               transform="matrix(3.4984789,1.9392384,-1.9392384,3.4984789,695.05859,726.09961)"
               id="g6506">
              <path
                 d="m 49.119198,39.000839 c 0.601898,0.424309 1.701481,0.724198 1.733387,-0.46046 0.0064,-0.218003 0.0085,-0.327534 0.01169,-0.545536 -0.121227,0.367942 -0.40091,0.502998 -0.727379,0.48492 -0.800758,-0.0436 -1.109154,-0.62104 -1.1166,-1.503681 -0.0021,-0.257347 -0.0043,-0.384964 -0.0096,-0.642311 -0.0053,-0.258412 -0.04786,-0.362625 -0.312645,-0.325409 -0.0064,-0.199925 -0.0096,-0.300949 -0.01808,-0.50087 0.549793,-0.200989 1.071934,-0.176533 1.093201,0.607216 0.0085,0.333916 0.0117,0.50087 0.01382,0.834785 0.0032,0.458336 0.131863,0.788002 0.511509,0.797573 0.524269,0.01276 0.527458,-0.75716 0.52108,-1.188915 -0.0021,-0.161636 -0.0043,-0.243522 -0.0085,-0.405163 0.304138,-0.01808 0.456211,-0.02765 0.760353,-0.04573 0.02446,0.992176 0.02339,1.488792 -0.0032,2.479904 0.174396,1.660011 -1.526017,1.779114 -2.512879,1.043224 0.02765,-0.252033 0.04041,-0.377518 0.06381,-0.630611 l -4e-6,0.0011 z"
                 style="fill:#ea9c00;fill-opacity:1;fill-rule:nonzero;stroke:none"
                 id="path6504"
                 inkscape:connector-curvature="0" />
            </g>
            <g
               transform="matrix(3.4984789,1.9392384,-1.9392384,3.4984789,616.04688,725.73047)"
               id="g6510">
              <path
                 d="m 68.508011,24.781649 c -0.263725,0.04147 -0.461525,0.332851 -0.44558,0.65188 0.01595,0.319027 0.240342,0.557234 0.505127,0.531711 0.264794,-0.02552 0.47004,-0.3169 0.453026,-0.652942 -0.01702,-0.33498 -0.24884,-0.573187 -0.512573,-0.531714 v 0.0011 z"
                 style="fill:#ea9c00;fill-opacity:1;fill-rule:nonzero;stroke:none"
                 id="path6508"
                 inkscape:connector-curvature="0" />
            </g>
            <g
               transform="matrix(3.4984789,1.9392384,-1.9392384,3.4984789,695.28906,739.09961)"
               id="g6514">
              <path
                 d="m 47.299194,35.850838 c 0.601899,0.424308 1.701485,0.724197 1.733391,-0.460461 0.0064,-0.218002 0.0085,-0.327534 0.0117,-0.545536 -0.121231,0.367943 -0.400909,0.502998 -0.727386,0.484921 -0.800759,-0.0436 -1.109154,-0.621037 -1.116593,-1.503685 -0.0021,-0.257348 -0.0043,-0.384957 -0.0096,-0.642308 -0.0053,-0.258415 -0.04785,-0.362629 -0.312645,-0.325409 -0.0064,-0.199924 -0.0096,-0.300949 -0.01807,-0.500869 0.54979,-0.200989 1.07193,-0.176529 1.093201,0.607212 0.0085,0.333915 0.0117,0.500873 0.01382,0.834789 0.0032,0.458336 0.131859,0.787998 0.511506,0.797573 0.524269,0.01276 0.527458,-0.75716 0.52108,-1.188911 -0.0021,-0.161641 -0.0043,-0.243523 -0.0085,-0.405167 l 0.760345,-0.04573 c 0.02446,0.992176 0.0234,1.488796 -0.0032,2.479908 0.1744,1.660008 -1.526016,1.77911 -2.512878,1.043221 0.02765,-0.252034 0.04041,-0.377518 0.0638,-0.630612 v 0.0011 z"
                 style="fill:#ffcc00;fill-opacity:1;fill-rule:nonzero;stroke:none"
                 id="path6512"
                 inkscape:connector-curvature="0" />
            </g>
            <g
               transform="matrix(3.4984789,1.9392384,-1.9392384,3.4984789,616.27734,738.73047)"
               id="g6518">
              <path
                 d="m 66.687988,21.631653 c -0.263725,0.04147 -0.461525,0.332851 -0.445579,0.65188 0.01596,0.319029 0.240341,0.557236 0.505134,0.531715 0.264794,-0.02552 0.470032,-0.316902 0.453019,-0.652944 -0.01701,-0.33498 -0.248841,-0.573187 -0.512574,-0.531712 v 0.0011 z"
                 style="fill:#ffcc00;fill-opacity:1;fill-rule:nonzero;stroke:none"
                 id="path6516"
                 inkscape:connector-curvature="0" />
            </g>
          </g>
        </g>
        <g
           transform="matrix(0.08819444,0,0,0.08819444,258.67651,-73.295191)"
           id="g6572">
          <g
             clip-path="url(#clipPath6528)"
             id="g6570">
            <g
               transform="matrix(3.9701846,-0.48747745,0.48747745,3.9701846,986.55469,900.5293)"
               id="g6532">
              <path
                 d="m 8.3713131,0 c 0.5496683,0 1.0940552,0.06434095 1.6331609,0.19302288 0.539106,0.12868192 1.062573,0.31923219 1.5704,0.57165089 0.507827,0.25241873 0.990256,0.56185553 1.44729,0.92831073 0.457033,0.3664552 0.879886,0.7828873 1.268561,1.2492963 0.388674,0.4664087 0.7357,0.9738323 1.041079,1.5222711 0.305379,0.5484386 0.563243,1.1273546 0.773592,1.7367473 0.210348,0.6093926 0.369141,1.2375531 0.476378,1.8844809 0.107233,0.6469279 0.16085,1.3001929 0.160852,1.9597949 -2e-6,0.659602 -0.05362,1.312866 -0.160852,1.959792 -0.107237,0.646928 -0.26603,1.275089 -0.476378,1.884481 -0.210349,0.609393 -0.468212,1.188309 -0.773591,1.736748 -0.30538,0.548439 -0.652406,1.055863 -1.04108,1.522273 -0.388675,0.466409 -0.811528,0.882841 -1.268561,1.249296 -0.457034,0.366455 -0.939463,0.675892 -1.44729,0.92831 -0.507827,0.252419 -1.031294,0.442969 -1.5704,0.57165 C 9.4653683,20.026808 8.9209814,20.091148 8.3713131,20.09115 7.8216443,20.091148 7.277257,20.026808 6.7381506,19.898127 6.1990438,19.769444 5.6755772,19.578894 5.1677499,19.326473 4.6599226,19.074057 4.1774931,18.76462 3.7204604,18.398163 3.263428,18.03171 2.8405747,17.615278 2.4519007,17.148869 2.0632265,16.682459 1.7161998,16.175035 1.4108204,15.626596 1.1054411,15.078157 0.8475771,14.499241 0.63722819,13.889848 0.42687929,13.280456 0.26808736,12.652295 0.16085242,12.005367 0.05361747,11.358441 0,10.705177 0,10.045575 0,9.385973 0.05361747,8.732707 0.16085242,8.0857792 0.26808736,7.4388518 0.42687929,6.8106918 0.63722819,6.2012992 0.8475771,5.5919065 1.1054412,5.0129905 1.4108205,4.4645519 1.7161999,3.9161131 2.0632265,3.4086895 2.4519007,2.9422808 2.8405747,2.4758718 3.263428,2.0594397 3.7204604,1.6929845 4.1774931,1.3265293 4.6599226,1.0170925 5.1677499,0.76467377 5.6755772,0.51225507 6.1990438,0.3217048 6.7381506,0.19302288 7.277257,0.06434095 7.8216443,0 8.3713131,0 Z"
                 style="fill:#f0aa00;fill-opacity:1;fill-rule:nonzero;stroke:none"
                 id="path6530"
                 inkscape:connector-curvature="0" />
            </g>
            <g
               transform="matrix(3.9701846,-0.48747745,0.48747745,3.9701846,1013.3516,897.23828)"
               id="g6536">
              <path
                 d="M 0,0 H 1.8412813 V 20.093185 H 0 Z"
                 style="fill:#f0aa00;fill-opacity:1;fill-rule:nonzero;stroke:none"
                 id="path6534"
                 inkscape:connector-curvature="0" />
            </g>
            <g
               transform="matrix(3.9701846,-0.48747745,0.48747745,3.9701846,980.11719,901.31836)"
               id="g6540">
              <path
                 d="m 8.3713131,0 c 0.5496683,0 1.0940552,0.06434095 1.6331609,0.19302288 0.539106,0.12868192 1.062573,0.31923219 1.5704,0.57165089 0.507827,0.25241873 0.990256,0.56185553 1.44729,0.92831073 0.457033,0.3664552 0.879886,0.7828873 1.268561,1.2492963 0.388674,0.4664087 0.7357,0.9738323 1.041079,1.5222711 0.305379,0.5484386 0.563243,1.1273546 0.773592,1.7367473 0.210348,0.6093926 0.369141,1.2375531 0.476378,1.8844809 0.107233,0.6469279 0.16085,1.3001929 0.160852,1.9597949 -2e-6,0.659602 -0.05362,1.312866 -0.160852,1.959792 -0.107237,0.646928 -0.26603,1.275089 -0.476378,1.884481 -0.210349,0.609393 -0.468212,1.188309 -0.773591,1.736748 -0.30538,0.548439 -0.652406,1.055863 -1.04108,1.522273 -0.388675,0.466409 -0.811528,0.882841 -1.268561,1.249296 -0.457034,0.366455 -0.939463,0.675892 -1.44729,0.92831 -0.507827,0.252419 -1.031294,0.442969 -1.5704,0.57165 C 9.4653683,20.026808 8.9209814,20.091148 8.3713131,20.09115 7.8216443,20.091148 7.277257,20.026808 6.7381506,19.898127 6.1990438,19.769444 5.6755772,19.578894 5.1677499,19.326473 4.6599226,19.074057 4.1774931,18.76462 3.7204604,18.398163 3.263428,18.03171 2.8405747,17.615278 2.4519007,17.148869 2.0632265,16.682459 1.7161998,16.175035 1.4108204,15.626596 1.1054411,15.078157 0.8475771,14.499241 0.63722819,13.889848 0.42687929,13.280456 0.26808736,12.652295 0.16085242,12.005367 0.05361747,11.358441 0,10.705177 0,10.045575 0,9.385973 0.05361747,8.732707 0.16085242,8.0857792 0.26808736,7.4388518 0.42687929,6.8106918 0.63722819,6.2012992 0.8475771,5.5919065 1.1054412,5.0129905 1.4108205,4.4645519 1.7161999,3.9161131 2.0632265,3.4086895 2.4519007,2.9422808 2.8405747,2.4758718 3.263428,2.0594397 3.7204604,1.6929845 4.1774931,1.3265293 4.6599226,1.0170925 5.1677499,0.76467377 5.6755772,0.51225507 6.1990438,0.3217048 6.7381506,0.19302288 7.277257,0.06434095 7.8216443,0 8.3713131,0 Z"
                 style="fill:#ffcc00;fill-opacity:1;fill-rule:nonzero;stroke:none"
                 id="path6538"
                 inkscape:connector-curvature="0" />
            </g>
            <g
               transform="matrix(3.9701846,-0.48747745,0.48747745,3.9701846,894.67578,909.23828)"
               id="g6544">
              <path
                 d="M 29.5506,13.26418 C 31.404104,11.6775 32.721924,9.6977158 33.080399,7.2514997 33.328896,5.5629792 33.776993,3.4080284 33.381851,1.5993361 32.298264,0.98625439 31.088396,0.63999581 29.811312,0.63999581 25.189775,0.63795924 21.439999,5.1352482 21.439999,10.683536 c 0,2.266974 0.62734,4.358786 1.682411,6.041195 2.358633,-0.688442 4.552282,-1.857578 6.426153,-3.462588 l 0.002,0.002 z"
                 style="fill:#fcdc59;fill-opacity:1;fill-rule:nonzero;stroke:none"
                 id="path6542"
                 inkscape:connector-curvature="0" />
            </g>
            <g
               transform="matrix(3.9701846,-0.48747745,0.48747745,3.9701846,860.91797,879.71875)"
               id="g6548">
              <path
                 d="m 43.466412,18.85157 c 0,4.265093 -2.82914,7.721571 -6.318203,7.721571 -3.489064,0 -6.318207,-3.456478 -6.318207,-7.721571 0,-4.265093 2.827099,-7.721569 6.318207,-7.721569 3.4911,0 6.318203,3.456476 6.318203,7.721569 z"
                 style="fill:#da8100;fill-opacity:1;fill-rule:nonzero;stroke:none"
                 id="path6546"
                 inkscape:connector-curvature="0" />
            </g>
            <g
               transform="matrix(3.9701846,-0.48747745,0.48747745,3.9701846,849.30078,875.27344)"
               id="g6552">
              <path
                 d="m 46.519234,20.494184 c 0,4.161215 -2.739514,7.534182 -6.120629,7.534182 -3.381115,0 -6.118595,-3.372967 -6.118595,-7.534182 0,-4.161218 2.739514,-7.534183 6.118595,-7.534183 3.379074,0 6.120629,3.372965 6.120629,7.534183 z"
                 style="fill:#f0aa00;fill-opacity:1;fill-rule:nonzero;stroke:none"
                 id="path6550"
                 inkscape:connector-curvature="0" />
            </g>
            <g
               transform="matrix(3.9701846,-0.48747745,0.48747745,3.9701846,795.0625,809.91406)"
               id="g6556">
              <path
                 d="m 49.521206,42.295639 c 1.15284,0.812691 3.258903,1.387077 3.320015,-0.881935 0.01222,-0.417549 0.01629,-0.627342 0.0224,-1.044891 -0.232193,0.704742 -0.767876,0.963417 -1.393181,0.928787 -1.533714,-0.0835 -2.124397,-1.189499 -2.138657,-2.880051 -0.0041,-0.492912 -0.0081,-0.737327 -0.01833,-1.23024 -0.01018,-0.494941 -0.09166,-0.694549 -0.598823,-0.623268 -0.01222,-0.382919 -0.01833,-0.576416 -0.03463,-0.959335 1.05304,-0.384957 2.053108,-0.33812 2.093849,1.163025 0.01629,0.639557 0.02241,0.959335 0.02647,1.598892 0.0061,0.877869 0.252564,1.509285 0.979714,1.527618 1.00415,0.02444 1.010254,-1.450218 0.998039,-2.27716 -0.0041,-0.309594 -0.0081,-0.466431 -0.0163,-0.776032 0.582527,-0.03462 0.873794,-0.05295 1.456321,-0.08758 0.04685,1.900345 0.04481,2.85154 -0.0061,4.749848 0.33403,3.179474 -2.922837,3.4076 -4.813004,1.998115 0.05296,-0.482719 0.0774,-0.723068 0.122216,-1.207824 l -8e-6,0.002 z"
                 style="fill:#ea9c00;fill-opacity:1;fill-rule:nonzero;stroke:none"
                 id="path6554"
                 inkscape:connector-curvature="0" />
            </g>
            <g
               transform="matrix(3.9701846,-0.48747745,0.48747745,3.9701846,737.91406,851.0293)"
               id="g6560">
              <path
                 d="m 68.916702,24.786915 c -0.505142,0.07944 -0.883987,0.637523 -0.853439,1.248569 0.03055,0.611046 0.460327,1.067292 0.967483,1.01841 0.507172,-0.04888 0.900284,-0.606972 0.867692,-1.250606 -0.03259,-0.641598 -0.476609,-1.097844 -0.981736,-1.01841 v 0.002 z"
                 style="fill:#ea9c00;fill-opacity:1;fill-rule:nonzero;stroke:none"
                 id="path6558"
                 inkscape:connector-curvature="0" />
            </g>
            <g
               transform="matrix(3.9701846,-0.48747745,0.48747745,3.9701846,802.03906,819.16797)"
               id="g6564">
              <path
                 d="m 47.70121,39.145638 c 1.152832,0.81269 3.258904,1.387077 3.320015,-0.881936 0.01221,-0.417549 0.01629,-0.627342 0.0224,-1.044891 -0.232193,0.704739 -0.767883,0.963413 -1.393181,0.928791 -1.533722,-0.08351 -2.124405,-1.189495 -2.138664,-2.880058 -0.0041,-0.492905 -0.0081,-0.737328 -0.01833,-1.230236 -0.01018,-0.49495 -0.09165,-0.694554 -0.598824,-0.623265 -0.01222,-0.382927 -0.01832,-0.576419 -0.03462,-0.959339 1.053032,-0.384956 2.053108,-0.338112 2.093842,1.163021 0.0163,0.639553 0.02241,0.95934 0.02648,1.598896 0.0061,0.877869 0.252564,1.509285 0.979714,1.527619 1.004143,0.02444 1.010254,-1.450218 0.998031,-2.277165 -0.0041,-0.309593 -0.0081,-0.466427 -0.0163,-0.776027 l 1.456329,-0.08758 c 0.04685,1.900353 0.04481,2.85154 -0.0061,4.749855 0.33403,3.17947 -2.922828,3.407593 -4.812996,1.998116 0.05296,-0.482724 0.07739,-0.723076 0.122208,-1.207833 v 0.002 z"
                 style="fill:#ffcc00;fill-opacity:1;fill-rule:nonzero;stroke:none"
                 id="path6562"
                 inkscape:connector-curvature="0" />
            </g>
            <g
               transform="matrix(3.9701846,-0.48747745,0.48747745,3.9701846,744.89063,860.2832)"
               id="g6568">
              <path
                 d="m 67.096672,21.636921 c -0.505135,0.07943 -0.88398,0.637522 -0.853432,1.248568 0.03056,0.611043 0.460328,1.067293 0.967499,1.018409 0.507164,-0.04889 0.900261,-0.606973 0.867676,-1.250606 -0.03258,-0.641596 -0.476608,-1.097845 -0.981743,-1.018406 v 0.002 z"
                 style="fill:#ffcc00;fill-opacity:1;fill-rule:nonzero;stroke:none"
                 id="path6566"
                 inkscape:connector-curvature="0" />
            </g>
          </g>
        </g>
        <g
           id="g6574"
           transform="matrix(0.09130561,-0.34075717,0.34075717,0.09130561,290.15676,40.125104)">
          <path
             d="M 21.433243,0.02140959 C 17.261398,0.84296685 0.58761007,23.181847 0.58761007,23.181847 L 0,24.727789 c 0,0 30.163599,-3.354702 31.256897,-4.644455 C 34.207233,16.602756 24.863314,-0.65438783 21.433243,0.01919972 Z M 0.79937088,23.658878 C 6.3030381,16.624836 18.845009,6.3509417 21.555027,4.168951 c 2.420404,2.4690953 6.064432,9.754904 6.545715,13.047762 -3.465053,0.713345 -18.5005642,5.377672 -27.30137112,6.442165 z"
             style="fill:#ff2e00;fill-opacity:1;fill-rule:nonzero;stroke:none"
             id="path6576"
             inkscape:connector-curvature="0" />
        </g>
        <g
           id="g6578"
           transform="matrix(0.09130561,-0.34075717,0.34075717,0.09130561,286.19318,53.705497)">
          <path
             d="M 21.118912,4.724061 C 12.912141,-0.62931877 10.659609,-0.58956599 8.2678003,0.76644707 5.8758717,2.1224597 -2.9403119,14.772692 0.99959546,18.717056 4.9396248,22.66363 36.198513,25.475037 36.198513,25.475037 l 0.704556,-1.910342 c 0,0 -7.581698,-13.489462 -15.78851,-18.8428422 l 0.0044,0.00221 z M 6.4346418,17.327913 C 4.6127911,15.510328 9.1490536,7.9374151 11.218257,6.3252158 11.746114,6.0270705 32.77544,19.410521 35.710522,23.979895 23.972313,22.710009 8.1330404,18.836313 6.4346418,17.327913 Z"
             style="fill:#ff2e00;fill-opacity:1;fill-rule:nonzero;stroke:none"
             id="path6580"
             inkscape:connector-curvature="0" />
        </g>
        <g
           id="g6582"
           transform="matrix(0.09130561,-0.34075717,0.34075717,0.09130561,296.02134,44.179121)">
          <path
             d="m 3.1558309,0 h 1.7601046 c 1.7426949,0 3.1559124,1.4135017 3.1559124,3.1559124 v 5.1745548 c 0,1.7424408 -1.4132175,3.1559228 -3.1559124,3.1559228 H 3.1558309 C 1.4132985,11.48639 0,10.072908 0,8.3304167 V 3.1559124 C 0,1.4135017 1.4132985,0 3.1558309,0 Z"
             style="fill:#ff2e00;fill-opacity:1;fill-rule:nonzero;stroke:none"
             id="path6584"
             inkscape:connector-curvature="0" />
        </g>
        <g
           id="g6586"
           transform="matrix(0.35277777,0,0,0.35277777,303.09344,-15.811704)">
          <path
             d="M 149.22716,114.9184 6.2296133,114.48995 c -3.8052287,-0.011 -6.7248533,3.37451 -6.15285428,7.14005 l 2.21290688,14.59142 7.1665509,-0.0154 4.3198062,73.43231 c 0.231892,3.92889 3.482789,6.99867 7.418321,6.99867 H 135.32912 l 4.74824,-80.70271 6.75136,-0.0132 2.39844,-21.00487 v 0.002 z"
             style="fill:#115aa8;fill-opacity:1;fill-rule:nonzero;stroke:none"
             id="path6588"
             inkscape:connector-curvature="0" />
        </g>
        <g
           id="g6590"
           transform="matrix(0.35277777,0,0,0.35277777,246.50499,-18.236017)">
          <path
             d="M 298.17938,223.50923 H 210.57071 L 205.88004,123.31 h 104.08834 l -4.36618,93.23135 c -0.18332,3.8981 -3.45202,6.96562 -7.42282,6.96562 v 0.002 z"
             style="fill:#41bbd9;fill-opacity:1;fill-rule:nonzero;stroke:none"
             id="path6592"
             inkscape:connector-curvature="0" />
        </g>
        <g
           id="g6594"
           transform="matrix(0.09130561,-0.34075717,0.34075717,0.09130561,294.11035,58.680907)">
          <path
             d="M 115.57697,21.439997 2.5795085,21.740349 0,0 110.69395,0.42409122 c 3.63523,0.0131791 6.47978,3.13602148 6.15729,6.75790128 l -1.27427,14.2601785 v -0.0022 z"
             style="fill:#41bbd9;fill-opacity:1;fill-rule:nonzero;stroke:none"
             id="path6596"
             inkscape:connector-curvature="0" />
        </g>
        <g
           id="g6598"
           transform="matrix(0.35277777,0,0,0.35277777,252.24417,-42.548057)">
          <path
             d="m 185.00005,212.05814 107.77656,-0.29807 -104.35777,5.6956 z"
             style="fill:#115aa8;fill-opacity:1;fill-rule:nonzero;stroke:none"
             id="path6600"
             inkscape:connector-curvature="0" />
        </g>
        <g
           id="g6602"
           transform="matrix(0.09130561,-0.34075717,0.34075717,0.09130561,298.27375,43.36797)">
          <path
             d="M 0,0 H 2.9991293 V 21.47315 H 0 Z"
             style="fill:#ff2e00;fill-opacity:1;fill-rule:nonzero;stroke:none"
             id="path6604"
             inkscape:connector-curvature="0" />
        </g>
        <g
           id="g6606"
           transform="matrix(0.35277777,0,0,0.35277777,335.53521,32.191221)">
          <path
             d="M 0,0 H 3.7478075 V 80.715889 H 0 Z"
             style="fill:#ff2e00;fill-opacity:1;fill-rule:nonzero;stroke:none"
             id="path6608"
             inkscape:connector-curvature="0" />
        </g>
        <g
           id="g6610"
           transform="matrix(0.35277777,0,0,0.35277777,334.21367,25.264861)">
          <path
             d="M 0,0 H 3.7478075 V 19.535034 H 0 Z"
             style="fill:#ff2e00;fill-opacity:1;fill-rule:nonzero;stroke:none"
             id="path6612"
             inkscape:connector-curvature="0" />
        </g>
        <g
           id="g6614"
           transform="matrix(0.35277777,0,0,0.35277777,314.02782,18.896941)">
          <path
             d="m 111.20274,61.290001 2.6013,4.761436 4.76144,2.601303 -4.76144,2.601296 -2.6013,4.761452 -2.60129,-4.761452 -4.76145,-2.601296 4.76145,-2.601303 z"
             style="fill:#fcc505;fill-opacity:1;fill-rule:nonzero;stroke:none"
             id="path6616"
             inkscape:connector-curvature="0" />
        </g>
        <g
           id="g6618"
           transform="matrix(0.35277777,0,0,0.35277777,319.22268,33.781991)">
          <path
             d="m 107.52132,61.290001 1.30064,2.380691 2.38069,1.300637 -2.38069,1.300628 -1.30064,2.3807 -1.30063,-2.3807 -2.38069,-1.300628 2.38069,-1.300637 z"
             style="fill:#fcc505;fill-opacity:1;fill-rule:nonzero;stroke:none"
             id="path6620"
             inkscape:connector-curvature="0" />
        </g>
        <g
           id="g6622"
           transform="matrix(0.35277777,0,0,0.35277777,303.10377,2.1282848)">
          <path
             d="m 101.08189,5.7800007 2.57087,4.7158053 4.73102,2.586086 -4.73102,2.570875 -2.57087,4.731018 -2.586094,-4.731018 -4.715797,-2.570875 4.715797,-2.586086 z"
             style="fill:#fcc505;fill-opacity:1;fill-rule:nonzero;stroke:none"
             id="path6624"
             inkscape:connector-curvature="0" />
        </g>
        <g
           id="g6626"
           transform="matrix(0.35277777,0,0,0.35277777,319.28883,12.224139)">
          <path
             d="m 99.86779,5.7800007 2.1434,3.9316931 3.94438,2.1560892 -3.94438,2.143407 -2.1434,3.944376 -2.156097,-3.944376 -3.931687,-2.143407 3.931687,-2.1560892 z"
             style="fill:#fcc505;fill-opacity:1;fill-rule:nonzero;stroke:none"
             id="path6628"
             inkscape:connector-curvature="0" />
        </g>
        <g
           id="g6630"
           transform="matrix(0.35277777,0,0,0.35277777,262.08371,16.815588)">
          <path
             d="m 101.08189,5.7800007 2.57087,4.7158053 4.73102,2.586086 -4.73102,2.570875 -2.57087,4.731018 -2.586094,-4.731018 -4.715797,-2.570875 4.715797,-2.586086 z"
             style="fill:#fcc505;fill-opacity:1;fill-rule:nonzero;stroke:none"
             id="path6632"
             inkscape:connector-curvature="0" />
        </g>
        <g
           id="g6634"
           transform="matrix(0.35277777,0,0,0.35277777,289.27722,7.957561)">
          <path
             d="M 96.93454,5.7800007 98.045197,7.8173075 100.08908,8.9345398 98.045197,10.0452 96.93454,12.089079 95.817307,10.0452 93.779999,8.9345398 95.817307,7.8173075 Z"
             style="fill:#fcc505;fill-opacity:1;fill-rule:nonzero;stroke:none"
             id="path6636"
             inkscape:connector-curvature="0" />
        </g>
        <g
           id="g6638"
           transform="matrix(0.35277777,0,0,0.35277777,277.26314,48.212808)">
          <path
             d="m 101.08189,5.7800007 2.57087,4.7158053 4.73102,2.586086 -4.73102,2.570875 -2.57087,4.731018 -2.586094,-4.731018 -4.715797,-2.570875 4.715797,-2.586086 z"
             style="fill:#fcc505;fill-opacity:1;fill-rule:nonzero;stroke:none"
             id="path6640"
             inkscape:connector-curvature="0" />
        </g>
      </g>
    </g>
  </g>
</svg>
