<svg xmlns="http://www.w3.org/2000/svg" width="28.781" height="27.005" viewBox="0 0 28.781 27.005">
  <g id="Camada_1-2" transform="translate(0)">
    <path id="Caminho_798" data-name="Caminho 798" d="M20.8,0c.548.112,1.11.177,1.641.342a8.587,8.587,0,0,1,6.1,6.542A11.284,11.284,0,0,1,28.78,9,1.077,1.077,0,0,1,27.67,10.12a1.11,1.11,0,0,1-1.131-1.11,6.579,6.579,0,0,0-11.2-4.86,1.318,1.318,0,0,1-.9.463,1.211,1.211,0,0,1-.922-.4A6.643,6.643,0,0,0,9.856,2.347,6.406,6.406,0,0,0,2.71,6.5a6.637,6.637,0,0,0,1.3,7.02c3.145,3.6,6.318,7.169,9.479,10.751a1.109,1.109,0,0,0,1.776.039q4.844-5.49,9.681-10.986c.13-.147.246-.307.364-.464a1.128,1.128,0,0,1,1.609-.284,1.1,1.1,0,0,1,.23,1.591c-.471.617-.982,1.2-1.5,1.788q-4.327,4.915-8.666,9.821a3.36,3.36,0,0,1-5.192-.009Q6.956,20.3,2.133,14.807A8.574,8.574,0,0,1,.054,9.993.685.685,0,0,0,0,9.84V8.153c.076-.42.126-.847.232-1.26A8.639,8.639,0,0,1,6.346.341C6.876.177,7.437.112,7.984,0h1.63a.487.487,0,0,0,.124.051,8.69,8.69,0,0,1,4.486,1.789c.148.113.229.08.357-.017A8.645,8.645,0,0,1,18,.224c.388-.086.781-.15,1.171-.224H20.8Z" transform="translate(0 0)" />
    <path id="Caminho_799" data-name="Caminho 799" d="M125.915,127.386c.407-.81.8-1.564,1.166-2.329a1.207,1.207,0,0,1,1.225-.754c.693.019,1.387,0,2.08.005a1.124,1.124,0,1,1,0,2.248c-.431,0-.862.009-1.293,0a.315.315,0,0,0-.34.208q-.885,1.8-1.789,3.589a1.138,1.138,0,0,1-1.468.633,1.253,1.253,0,0,1-.658-.657q-1.625-3.262-3.258-6.52c-.046-.092-.094-.182-.158-.307a2.074,2.074,0,0,0-.124.189c-.357.71-.718,1.417-1.065,2.132a1.2,1.2,0,0,1-1.206.741c-.7-.017-1.406,0-2.109-.005a1.124,1.124,0,1,1,0-2.247c.431,0,.862-.011,1.293,0a.332.332,0,0,0,.36-.221c.581-1.182,1.18-2.355,1.763-3.537a1.15,1.15,0,0,1,2.15-.005q1.623,3.264,3.259,6.522C125.79,127.16,125.84,127.247,125.915,127.386Z" transform="translate(-109.267 -113.06)" />
  </g>
</svg>
