<?xml version="1.0" encoding="UTF-8" standalone="no"?>
<svg
   xmlns:dc="http://purl.org/dc/elements/1.1/"
   xmlns:cc="http://creativecommons.org/ns#"
   xmlns:rdf="http://www.w3.org/1999/02/22-rdf-syntax-ns#"
   xmlns:svg="http://www.w3.org/2000/svg"
   xmlns="http://www.w3.org/2000/svg"
   id="svg8"
   version="1.1"
   viewBox="0 0 210 210"
   height="210mm"
   width="210mm">
  <defs
     id="defs2" />
  <metadata
     id="metadata5">
    <rdf:RDF>
      <cc:Work
         rdf:about="">
        <dc:format>image/svg+xml</dc:format>
        <dc:type
           rdf:resource="http://purl.org/dc/dcmitype/StillImage" />
        <dc:title></dc:title>
      </cc:Work>
    </rdf:RDF>
  </metadata>
  <g
     transform="translate(0,-87)"
     id="layer1">
    <path
       id="path21"
       d="m 117.20501,264.64454 c 4.18804,-3.86645 53.74225,-59.63273 58.58297,-65.92697 4.20872,-5.47239 4.11024,-10.47674 -0.24499,-12.46125 -2.00782,-0.91483 -4.2834,-1.04846 -5.54352,-0.32574 -1.17564,0.67442 -15.0742,15.97051 -30.88566,33.99133 -15.81146,18.02081 -29.98435,33.64464 -31.49532,34.71959 -2.32808,1.65624 -3.1664,1.65624 -5.49447,0 -5.159843,-3.67095 -59.541522,-66.63047 -62.234269,-72.0508 -1.969272,-3.96395 -2.67654,-8.44571 -2.651665,-16.80242 0.03769,-12.60216 2.017137,-17.91012 9.741421,-26.11995 5.636775,-5.99116 10.416223,-8.49751 19.483273,-10.21701 10.0207,-1.90041 19.373597,0.43128 29.792244,7.42719 l 8.616226,5.78564 8.65199,-5.8096 c 10.70088,-7.18549 20.70564,-9.59018 30.65985,-7.36925 15.59006,3.47841 26.58541,15.39946 28.55237,30.95625 1.53912,12.17325 6.97491,16.57489 12.68168,10.26902 2.35688,-2.60439 2.47404,-3.8588 1.10597,-11.84535 -3.18104,-18.57087 -12.82625,-31.70622 -28.77178,-39.18294 -6.90604,-3.23817 -9.88351,-3.75397 -21.66931,-3.75397 -12.56054,0 -14.3713,0.36505 -22.43699,4.52666 l -8.77378,4.52666 -8.585483,-4.42792 c -16.624962,-8.57418 -38.178515,-6.73219 -53.82156,4.59957 -12.789095,9.26438 -21.089057,28.12981 -19.722493,44.82838 1.221945,14.93104 6.322453,23.64763 28.805804,49.22797 30.616511,34.8339 42.136549,47.16631 45.351295,48.5494 5.336177,2.29577 16.261047,0.6201 20.306407,-3.11465 z m 11.17141,-59.68043 6.43918,-12.82113 h 5.58223 c 5.3288,0 10.05947,-2.77163 10.05947,-5.89371 0,-0.77904 -0.6636,-2.65646 -1.47468,-4.17195 -1.25613,-2.34703 -3.05338,-2.75547 -12.12436,-2.75547 h -10.64963 l -3.8427,7.83514 c -2.11352,4.3093 -4.20022,7.83509 -4.63715,7.83509 -0.43666,0 -5.42905,-9.29528 -11.09355,-20.65622 -9.822295,-19.70009 -10.496559,-20.65627 -14.564754,-20.65627 -3.944897,0 -4.749889,0.96409 -10.704817,12.82113 l -6.439182,12.82113 h -6.346144 c -4.816276,0 -6.701663,0.66425 -7.820823,2.75547 -3.735667,6.98013 0.215368,10.06566 12.888219,10.06566 h 9.885718 l 3.842705,-7.83515 c 2.113514,-4.30935 4.200216,-7.83514 4.637144,-7.83514 0.437197,0 5.429052,9.29534 11.093554,20.65628 9.82229,19.70004 10.49656,20.65627 14.56475,20.65627 3.9449,0 4.74989,-0.96415 10.70482,-12.82113 z"
       style="fill:#000000;stroke-width:1.42457008" />
  </g>
</svg>
