<svg id="b" xmlns="http://www.w3.org/2000/svg" width="28.219" height="28.235" viewBox="0 0 28.219 28.235">
  <g id="c" transform="translate(0 0)">
    <g id="Grupo_102" data-name="Grupo 102">
      <path id="Caminho_220" data-name="Caminho 220" d="M5.953,28.23c-.258-.053-.517-.1-.775-.159A6.623,6.623,0,0,1,.072,22.637,6.491,6.491,0,0,1,0,21.622c-.006-3.05,0-6.1,0-9.15A6.575,6.575,0,0,1,2.711,6.989q3.66-2.807,7.335-5.6a6.6,6.6,0,0,1,8.122,0c.761.575,1.52,1.155,2.31,1.757.01-.091.024-.156.024-.221,0-.4-.007-.808,0-1.213A1.1,1.1,0,0,1,22.7,1.7q.019,1.888,0,3.775a1,1,0,0,1-.607.916,1.068,1.068,0,0,1-1.189-.13c-.711-.537-1.417-1.079-2.125-1.619-.65-.5-1.3-1-1.95-1.485a4.4,4.4,0,0,0-5.481.028q-3.667,2.8-7.334,5.6a4.4,4.4,0,0,0-1.809,3.658q-.013,4.547,0,9.095a4.412,4.412,0,0,0,3.663,4.418,4.344,4.344,0,0,0,.794.068q7.454.006,14.907,0a4.415,4.415,0,0,0,4.377-3.679,5.029,5.029,0,0,0,.065-.85q.007-4.52,0-9.04A4.439,4.439,0,0,0,24.3,8.829,1.108,1.108,0,1,1,25.686,7.1a6.571,6.571,0,0,1,2.48,4.388.823.823,0,0,0,.052.15V22.332a.484.484,0,0,0-.052.12,6.609,6.609,0,0,1-5.1,5.614c-.266.059-.534.11-.8.165Z" transform="translate(0 0.005)" />
      <path id="Caminho_221" data-name="Caminho 221" d="M193.4,232.165a1.378,1.378,0,1,1-1.361-1.365A1.353,1.353,0,0,1,193.4,232.165Z" transform="translate(-180.122 -218.055)" />
      <path id="Caminho_222" data-name="Caminho 222" d="M273.254,232.2a1.377,1.377,0,1,1-1.377-1.374A1.352,1.352,0,0,1,273.254,232.2Z" transform="translate(-255.563 -218.083)" />
      <path id="Caminho_223" data-name="Caminho 223" d="M192.014,310.69a1.376,1.376,0,1,1-1.364,1.387A1.347,1.347,0,0,1,192.014,310.69Z" transform="translate(-180.122 -293.533)" />
      <path id="Caminho_224" data-name="Caminho 224" d="M271.877,310.69a1.376,1.376,0,1,1-1.377,1.374A1.347,1.347,0,0,1,271.877,310.69Z" transform="translate(-255.563 -293.533)" />
    </g>
  </g>
</svg>
