<svg width="210mm" height="210mm" version="1.1" viewBox="0 0 210 210" xmlns="http://www.w3.org/2000/svg">
 <defs>
  <clipPath id="clipPath40068">
   <path d="m252 2368h35.57v57.001h-35.57z" clip-rule="evenodd"/>
  </clipPath>
  <clipPath id="clipPath40076">
   <path d="m0 0h36v58h-36z"/>
  </clipPath>
 </defs>
 <g transform="matrix(39.729 0 0 39.729 -6703 -4579.8)">
  <g transform="matrix(.088194 0 0 .088194 147.57 -93.437)">
   <g clip-path="url(#clipPath40068)">
    <g transform="translate(252,2368)">
     <g clip-path="url(#clipPath40076)">
      <g transform="matrix(4 0 0 4 0 -67.301)">
       <path d="m1.273 28.522c1.8045 0.96649 5.0105 1.3371 5.0105-1.5307v-1.3211c-0.33832 0.9024-1.1279 1.2888-2.0947 1.2888-2.3681 0.048458-3.3027-1.466-3.3027-3.8345v-1.7238c0-0.69271-0.11288-0.98268-0.88621-0.93456v-1.3691c1.6273-0.38689 3.1256-0.16123 3.1256 1.8525v2.1429c0 1.1761 0.38677 2.0138 1.4985 2.0138 1.5305 0 1.5305-1.8689 1.5305-2.9159v-0.98324h2.2234v5.7842c0 4.1888-4.0279 4.9462-7.2018 3.2224z" fill="#fff"/>
      </g>
      <g transform="matrix(4 0 0 4 -193.64 0)">
       <path d="m56.001 0h-0.20343c-0.71928 0-1.3022 0.58306-1.3022 1.3022v0.20344c0 0.71928 0.58295 1.3022 1.3022 1.3022h0.20343c0.71917 0 1.3022-0.58295 1.3022-1.3022v-0.20344c0-0.71917-0.58306-1.3022-1.3022-1.3022" fill="#fcc505"/>
      </g>
     </g>
    </g>
   </g>
  </g>
 </g>
</svg>
