<svg xmlns="http://www.w3.org/2000/svg" width="52.404" height="39.279" viewBox="0 0 52.404 39.279">
  <g id="b" transform="translate(0 0)">
    <g id="c" transform="translate(0 0)">
      <g id="Grupo_96" data-name="Grupo 96">
        <path id="Caminho_169" data-name="Caminho 169" d="M296.056,85.584c-.038.092-.082.183-.112.279a3.168,3.168,0,0,1-5.366,1.276c-1.515-1.593-2.986-3.228-4.475-4.846q-2.614-2.84-5.225-5.683a3.408,3.408,0,0,1-.241-.335,3.852,3.852,0,0,1-3.205.5,4.882,4.882,0,0,1-1.763-.962c-1.176-1.06-2.281-2.2-3.379-3.345a2.774,2.774,0,0,1-.143-3.761.877.877,0,0,1,1.338-.205c.267.17.53.343.75.487a4.209,4.209,0,0,1-.343-1.356,2.205,2.205,0,0,1,.592-1.233c.612-.64,1.406-.585,2.44-.012-.176-.27-.354-.538-.528-.809a.863.863,0,0,1,.177-1.3,2.72,2.72,0,0,1,3.6-.039,45.888,45.888,0,0,1,3.745,3.768,3.93,3.93,0,0,1,.3,4.7c.2.178.421.38.644.584q4.782,4.393,9.569,8.781a4.99,4.99,0,0,1,1.624,2.287v1.227ZM275.63,67.616l-.1.121c.14.188.277.377.421.562.994,1.276,2,2.544,2.974,3.836a1.28,1.28,0,0,1,.28.823c-.08.66-.764.868-1.385.454-1.388-.926-2.769-1.863-4.153-2.794-.15-.1-.3-.195-.455-.291l-.163.122a4.808,4.808,0,0,0,.577,1c.987,1.036,2.009,2.04,3.029,3.043a2.346,2.346,0,0,0,3.353.162.86.86,0,0,1,1.409.1q2.894,3.137,5.783,6.28,2.268,2.463,4.539,4.924a1.51,1.51,0,0,0,2.643-.692,1.55,1.55,0,0,0-.61-1.528q-5.5-5.048-10.991-10.1c-.683-.627-.707-.888-.135-1.628a2.282,2.282,0,0,0-.071-3.039c-1.085-1.154-2.216-2.266-3.359-3.362a3.085,3.085,0,0,0-.887-.413l-.078.148c.088.141.172.285.264.422q1.368,2.033,2.738,4.066c.364.541.373.967.034,1.288-.362.342-.747.316-1.279-.1q-1.453-1.129-2.9-2.26c-.488-.379-.979-.756-1.469-1.134Z" transform="translate(-243.652 -57.056)" />
        <path id="Caminho_170" data-name="Caminho 170" d="M234.549,0c.663.359.481,1.011.524,1.605.656.111,1.583-.226,1.616.9.016.567-.3.708-1.628.794,0,.257.009.522,0,.786a.816.816,0,1,1-1.631,0c-.01-.251,0-.5,0-.783-.678-.1-1.6.231-1.629-.9-.013-.562.288-.7,1.608-.79.075-.558-.158-1.25.53-1.608h.614Z" transform="translate(-208.036)" />
        <path id="Caminho_171" data-name="Caminho 171" d="M95.99,218.918a12.972,12.972,0,0,0-4.618-7.286,1.569,1.569,0,0,1-.414-.438.738.738,0,0,1,.208-1,.811.811,0,0,1,1.077.028,14.294,14.294,0,0,1,3.465,3.789,1.479,1.479,0,0,1,.208.35c.258.9.965,1,1.757,1.122,1.272.2,2.532.5,3.781.818a3.836,3.836,0,0,1,1.215.625,1.061,1.061,0,0,1,.361,1.4,12.551,12.551,0,0,1-4.989,5.056,14.141,14.141,0,0,1-4.7,1.265,75.8,75.8,0,0,1-11.73.611,57.053,57.053,0,0,1-10.254-1.016,10.176,10.176,0,0,1-6.225-4.159c-.361-.5-.693-1.011-1.03-1.522a1.083,1.083,0,0,1,.33-1.7,11.753,11.753,0,0,1,2.558-.962c1.052-.262,2.146-.358,3.215-.556a.8.8,0,0,0,.5-.346,14.277,14.277,0,0,1,9.977-7.438,13.858,13.858,0,0,1,7.879.632c.564.212.8.631.635,1.1s-.641.65-1.231.444a12.561,12.561,0,0,0-11.394,1.252,12.389,12.389,0,0,0-5.5,7.7c-.016.065-.022.131-.036.226a122.138,122.138,0,0,0,24.96.014ZM67.32,220.11a8.6,8.6,0,0,0,4.728,2.6,66.032,66.032,0,0,0,10.317.915,77,77,0,0,0,11.413-.7,9.572,9.572,0,0,0,5.579-2.5c.1-.1.189-.208.268-.3A119.523,119.523,0,0,1,67.32,220.11ZM97.168,217l.508,1.736,3.2-.721,0-.228Zm-31.031.778,0,.24,3.2.712c.166-.595.3-1.094.482-1.73Z" transform="translate(-57.287 -186.006)" />
        <path id="Caminho_172" data-name="Caminho 172" d="M22.944,68.331A6.3,6.3,0,0,1,17.5,74.4a2.069,2.069,0,0,1-.555.071,2,2,0,0,0-1.9.913Q10.338,80.538,5.589,85.65a3.153,3.153,0,0,1-4.117.643,3.2,3.2,0,0,1-.363-5.1q3.81-3.521,7.642-7.021c.967-.888,1.917-1.793,2.906-2.654a1.788,1.788,0,0,0,.666-1.5,6.272,6.272,0,0,1,6.216-6.155,4.367,4.367,0,0,1,4.4,4.463Zm-6.353,4.491A4.673,4.673,0,0,0,21.3,68.444,2.8,2.8,0,0,0,18.4,65.5a4.658,4.658,0,0,0-4.417,4.615,3.148,3.148,0,0,1-1.121,2.553c-2.8,2.54-5.582,5.109-8.369,7.668-.778.715-1.569,1.417-2.327,2.152A1.562,1.562,0,0,0,2.106,84.7,1.507,1.507,0,0,0,4.3,84.6c.18-.181.351-.372.524-.56q4.714-5.11,9.425-10.226a2.724,2.724,0,0,1,2.345-.992Z" transform="translate(-0.014 -57.321)" />
        <path id="Caminho_173" data-name="Caminho 173" d="M417.065,33.558c.089-.648-.228-1.5.815-1.6.578-.054.726.236.887,1.609.631.09,1.553-.238,1.583.888.015.564-.3.7-1.628.793,0,.257.009.522,0,.786a.816.816,0,1,1-1.632,0c-.01-.251,0-.5,0-.783-.677-.1-1.6.232-1.629-.9-.013-.564.293-.7,1.607-.79Z" transform="translate(-372.869 -28.675)" />
        <path id="Caminho_174" data-name="Caminho 174" d="M51.339,51.267c-.12,1.372-.259,1.632-.848,1.636-.616,0-.778-.294-.849-1.635-.257,0-.522.008-.785,0a.815.815,0,1,1-.013-1.63c.252-.011.505,0,.783,0,.117-.68-.216-1.633.95-1.625.545,0,.681.329.744,1.625.257,0,.522-.008.785,0a.815.815,0,1,1,.022,1.63c-.252.011-.506,0-.787,0Z" transform="translate(-43.106 -43.088)" />
        <path id="Caminho_175" data-name="Caminho 175" d="M282,256.909c-.14.166-.288.487-.525.578a1.048,1.048,0,0,1-.843-.1,5.352,5.352,0,0,1-.98-.958.751.751,0,0,1-.009-1.026.677.677,0,0,1,.946-.229,11.568,11.568,0,0,1,1.3,1.267c.07.074.057.226.111.467Z" transform="translate(-250.804 -228.915)" />
        <path id="Caminho_176" data-name="Caminho 176" d="M168.9,281.707c-.151-.121-.474-.258-.569-.49a1.03,1.03,0,0,1,.072-.843,5.041,5.041,0,0,1,.96-.979.741.741,0,0,1,.987-.008.681.681,0,0,1,.259.939,10.737,10.737,0,0,1-1.268,1.3C169.279,281.682,169.145,281.664,168.9,281.707Z" transform="translate(-151.023 -250.581)" />
        <path id="Caminho_177" data-name="Caminho 177" d="M320.854,279.21c.177.132.5.253.595.474a1.016,1.016,0,0,1-.021.841,3.334,3.334,0,0,1-1,1,1.155,1.155,0,0,1-.934-.017.633.633,0,0,1-.264-.925,9.718,9.718,0,0,1,1.236-1.255c.065-.061.191-.059.39-.116Z" transform="translate(-286.409 -250.588)" />
        <path id="Caminho_178" data-name="Caminho 178" d="M224.94,240.995c-.136,0-.272.006-.407,0a.816.816,0,1,1,.03-1.631c.254-.009.51-.008.764,0a.817.817,0,1,1,.021,1.632c-.135.006-.272,0-.408,0Z" transform="translate(-200.796 -214.819)" />
        <path id="Caminho_179" data-name="Caminho 179" d="M249.3,280.528c0,.855-.232,1.209-.8,1.22-.594.012-.838-.346-.838-1.232,0-.861.227-1.208.8-1.219.595-.012.839.346.838,1.231Z" transform="translate(-222.274 -250.666)" />
      </g>
    </g>
  </g>
</svg>
