<?xml version="1.0" encoding="UTF-8" standalone="no"?>
<svg
   xmlns:dc="http://purl.org/dc/elements/1.1/"
   xmlns:cc="http://creativecommons.org/ns#"
   xmlns:rdf="http://www.w3.org/1999/02/22-rdf-syntax-ns#"
   xmlns:svg="http://www.w3.org/2000/svg"
   xmlns="http://www.w3.org/2000/svg"
   xmlns:sodipodi="http://sodipodi.sourceforge.net/DTD/sodipodi-0.dtd"
   xmlns:inkscape="http://www.inkscape.org/namespaces/inkscape"
   id="svg2736"
   version="1.1"
   viewBox="0 0 210 297"
   height="297mm"
   width="210mm"
   sodipodi:docname="bem_estar.svg"
   inkscape:version="0.92.4 (5da689c313, 2019-01-14)">
  <sodipodi:namedview
     pagecolor="#ffffff"
     bordercolor="#666666"
     borderopacity="1"
     objecttolerance="10"
     gridtolerance="10"
     guidetolerance="10"
     inkscape:pageopacity="0"
     inkscape:pageshadow="2"
     inkscape:window-width="1920"
     inkscape:window-height="934"
     id="namedview17"
     showgrid="false"
     inkscape:zoom="0.4204826"
     inkscape:cx="429.08582"
     inkscape:cy="519.12528"
     inkscape:window-x="0"
     inkscape:window-y="0"
     inkscape:window-maximized="1"
     inkscape:current-layer="svg2736" />
  <defs
     id="defs2730" />
  <metadata
     id="metadata2733">
    <rdf:RDF>
      <cc:Work
         rdf:about="">
        <dc:format>image/svg+xml</dc:format>
        <dc:type
           rdf:resource="http://purl.org/dc/dcmitype/StillImage" />
        <dc:title></dc:title>
      </cc:Work>
    </rdf:RDF>
  </metadata>
  <g
     id="g5184"
     transform="matrix(5.0374408,0,0,5.0374408,10.272638,40.357139)">
    <path
       d="M 0,33.311069 C 0.24720344,33.144585 0.47254533,32.922604 0.74413282,32.820866 2.7293277,32.080093 4.7237716,31.364544 6.7140112,30.638065 7.2773657,30.43206 7.3849926,30.273144 7.3858333,29.680357 c 8.406e-4,-2.070128 -8.412e-4,-4.140259 8.406e-4,-6.210388 0.00336,-3.330538 2.6906501,-6.016157 6.0211691,-6.022043 0.824852,-0.0017 1.650546,0.0017 2.475397,-8.4e-4 0.649959,-0.0017 0.859327,-0.244682 0.9123,-0.874466 0.04961,-0.5869 -0.116036,-0.903054 -0.678549,-1.216683 -1.760694,-0.980412 -2.604045,-2.573789 -2.714192,-4.600195 -0.628099,-0.05129 -1.174638,-0.286724 -1.57319,-0.8038358 -0.311947,-0.4044399 -0.438912,-0.8610125 -0.41705,-1.3705568 0.04288,-1.0005913 0.780286,-1.7203436 2.015463,-1.9179392 0,-0.4380736 0,-0.8837147 0,-1.3285151 0.005,-2.7369091 2.133181,-5.09376251 4.817103,-5.33508133378 C 21.098898,-0.25664011 23.640717,1.660458 24.081314,4.4469762 c 0.114349,0.7247972 0.08745,1.4722977 0.126965,2.2349324 0.607078,0.045405 1.144367,0.2741122 1.538715,0.7727256 0.30522,0.3859415 0.449841,0.8240161 0.438911,1.3217883 -0.0227,1.0510407 -0.724792,1.7649075 -2.00033,1.9995005 -0.05045,1.498361 -0.575126,2.808379 -1.685859,3.833353 -0.414528,0.382579 -0.915661,0.681075 -1.405863,0.969479 -0.211889,0.124444 -0.285881,0.237957 -0.286724,0.474229 -0.0025,1.314223 0.07063,1.371399 1.395775,1.399987 1.141842,0.02438 2.311437,-0.03616 3.417127,0.19087 2.662901,0.546539 4.584191,3.047174 4.590079,5.768949 0.0042,2.083584 0,4.168005 0.0017,6.251589 0,0.618015 0.103424,0.759274 0.698729,0.976208 1.976787,0.721432 3.953571,1.442028 5.929519,2.16346 0.70966,0.258976 0.831581,0.453212 0.744973,1.181373 -0.254773,2.144119 -2.421586,3.582783 -4.492547,2.95216 -0.998905,-0.304382 -1.970058,-0.699577 -2.965599,-1.01741 -0.301855,-0.09669 -0.655006,-0.13958 -0.964428,-0.08828 -2.049099,0.340535 -4.09231,0.713864 -6.137203,1.077103 -0.03952,0.0067 -0.07736,0.02271 -0.205162,0.06222 1.756487,0.279995 3.397783,0.723118 5.116438,0.62558 0.708819,-0.04036 1.44034,-0.07399 2.131498,0.05297 1.535353,0.28252 2.388794,1.670738 2.084416,3.233002 -0.01177,0.06223 -0.0017,0.12949 -0.0017,0.243843 0.933319,-0.613808 1.335235,-1.461365 1.435295,-2.508202 0.02102,-0.219455 0.211887,-0.494411 0.403595,-0.602878 0.158077,-0.08997 0.487682,-0.04204 0.642395,0.07484 0.156391,0.118557 0.263179,0.39603 0.267379,0.607078 0.03952,1.94064 -1.44622,3.740868 -3.411237,4.172215 -0.09165,0.02018 -0.17994,0.05886 -0.269066,0.08913 H 6.2944404 C 6.2212858,42.928513 6.1506567,42.888996 6.0749822,42.869656 4.3958488,42.432423 3.2952049,41.391476 2.8192961,39.719051 2.5687294,38.83786 2.6528122,37.957508 2.9529879,37.071274 2.8344309,37.038479 2.7444627,37.014095 2.6553347,36.988033 1.4630406,36.643288 0.6381883,35.89579 0.19254936,34.735439 0.11771592,34.547092 0.06390293,34.346973 0,34.150219 Z m 12.756201,1.89103 c 1.399978,0.244686 2.756235,0.482639 4.114174,0.718075 0.997221,0.172371 1.980989,0.470867 3.012685,0.169006 0.452368,-0.132851 0.930798,-0.174892 1.398297,-0.258133 1.177162,-0.20937 2.354322,-0.417896 3.560907,-0.632309 0,-0.907257 0,-1.785927 0,-2.664593 0,-2.083583 -0.0017,-4.16801 8.41e-4,-6.251592 0,-0.498614 0.248886,-0.778611 0.673506,-0.776928 0.420414,0.0025 0.660889,0.284202 0.666775,0.784496 0.0017,0.176575 0,0.352308 0,0.526362 h 2.673832 c 0,-1.204913 0.06054,-2.382079 -0.01345,-3.550837 -0.123604,-1.941484 -1.125028,-3.322971 -2.904222,-4.115034 -0.947611,-0.421257 -1.964175,-0.361559 -2.970646,-0.367443 -0.257294,-0.0017 -0.377531,0.07063 -0.494408,0.31279 -0.750858,1.54965 -1.989399,2.393007 -3.725708,2.371986 -1.698473,-0.02018 -2.900017,-0.866058 -3.639104,-2.3846 -0.04708,-0.0967 -0.08913,-0.195074 -0.130329,-0.285883 -0.591941,0 -1.151932,-0.02522 -1.709403,0.0042 -2.357682,0.123604 -4.1873225,1.762385 -4.4631146,4.107466 -0.1311684,1.118307 -0.059699,2.261002 -0.078198,3.392759 -0.00336,0.174893 0,0.35063 0,0.525521 h 2.6889686 c 0,-0.253929 -0.01429,-0.488524 0.0034,-0.721432 0.02859,-0.363241 0.314471,-0.606237 0.677708,-0.600355 0.343057,0.0059 0.613804,0.243 0.653323,0.583538 0.01429,0.124443 0.005,0.251406 0.005,0.377533 0,2.755409 0,5.510816 0,8.265379 v 0.469185 l -8.39e-4,8.39e-4 z m 12.736864,3.637443 c -0.893803,-0.162281 -1.782557,-0.328765 -2.673834,-0.485157 -4.844849,-0.850925 -9.6897,-1.701843 -14.5362329,-2.543518 -0.194231,-0.03363 -0.417892,-0.02691 -0.603715,0.03447 -0.9509763,0.316154 -1.8960671,0.651645 -2.8386354,0.99218 -0.1345325,0.04877 -0.2926078,0.13285 -0.3623967,0.247207 -0.3514662,0.575127 -0.5238362,1.204911 -0.4153691,1.8801 0.2631793,1.642987 1.4588366,2.653668 3.1421738,2.654515 5.9539033,0.0034 11.9078063,0.0017 17.8617093,0.0017 0.135368,0 0.271589,0 0.427141,0 v -2.780636 l -8.41e-4,-8.43e-4 z M 20.131945,6.9341574 c -0.133692,0.1698475 -0.199276,0.2606578 -0.27327,0.3447413 -0.493565,0.5599938 -1.105688,0.807199 -1.858231,0.7752481 -0.753381,-0.031952 -1.508443,-0.00673 -2.262667,-0.00673 h -0.958544 c 0,0.993023 -0.04036,1.9297114 0.0084,2.8613532 0.108466,2.091989 1.674929,3.663506 3.775319,3.840919 1.873365,0.158077 3.736639,-1.155303 4.109968,-3.090899 0.223659,-1.160348 0.150507,-2.3778727 0.214409,-3.6458475 C 21.727827,8.1895162 20.823097,7.91036 20.132776,6.9349939 l -8.39e-4,-8.392e-4 z m 2.726804,-0.2850418 c -0.037,-0.6667805 -0.02691,-1.3520599 -0.121921,-2.0213619 -0.286722,-2.0079074 -2.408972,-3.5491531 -4.390804,-3.2582251 -2.511552,0.3682846 -3.959459,2.4737286 -3.512979,5.3359229 0.930797,0 1.866637,-0.034475 2.799115,0.011771 0.626419,0.031111 1.087191,-0.1563945 1.503403,-0.6255793 0.887073,-1.0031133 1.125868,-1.0073176 2.002012,-0.011772 0.450682,0.512908 0.950976,0.7542271 1.722016,0.5684032 z M 1.4294076,34.017368 c 0.2572933,1.270497 1.5294666,2.012955 2.7722101,1.59338 1.9666968,-0.663418 3.922462,-1.358787 5.8740253,-2.065086 0.703772,-0.254772 1.150252,-0.775246 1.282261,-1.527794 0.04036,-0.232069 0.05297,-0.470863 0.05466,-0.707138 0.0059,-1.029179 0.0025,-2.059198 0.0025,-3.091742 H 8.7286188 c 0,0.516276 0,1.003954 0,1.490797 0,1.169598 -0.4405937,1.803587 -1.5454406,2.210551 -0.8879147,0.327085 -1.7800332,0.644922 -2.6696296,0.968637 -1.0300141,0.375008 -2.0591877,0.752545 -3.083316,1.126713 l -8.41e-4,0.0017 z M 26.187592,28.208897 c 0,1.193142 -0.02691,2.339195 0.0084,3.484409 0.02691,0.871101 0.464136,1.531158 1.294876,1.833858 1.975945,0.721432 3.955254,1.431935 5.950537,2.098713 1.219204,0.406968 2.482124,-0.359031 2.724285,-1.595897 -0.108471,-0.04456 -0.219459,-0.09502 -0.333809,-0.137059 -1.832164,-0.6693 -3.665168,-1.335239 -5.495655,-2.007064 -0.999742,-0.366602 -1.463039,-1.035906 -1.464721,-2.095358 0,-0.525517 0,-1.051037 0,-1.581604 h -2.683083 l -8.35e-4,2e-6 z m 0.686113,13.407077 c 0.935001,0 1.839733,0.02859 2.741939,-0.0092 0.716387,-0.03027 1.257042,-0.633992 1.266289,-1.317589 0.0084,-0.660057 -0.506176,-1.291519 -1.201544,-1.33104 -0.92659,-0.05213 -1.858228,-0.01261 -2.805843,-0.01261 v 2.670486 h -8.41e-4 z M 21.101419,18.781485 C 19.737597,18.371159 19.342407,17.389067 19.47526,16.126976 h -1.362143 c 0.144623,1.299929 -0.282516,2.245863 -1.617752,2.657871 0.551582,0.887079 1.323464,1.335243 2.30555,1.333561 0.979563,-0.0017 1.751446,-0.448164 2.299663,-1.336923 z M 13.409526,8.0558281 c -0.401075,0.07063 -0.641551,0.2867241 -0.637348,0.6659393 0.0042,0.3741694 0.231228,0.6028757 0.637348,0.6499634 z M 24.182215,9.3767757 C 24.604309,9.3137131 24.8347,9.0833254 24.825447,8.7074728 24.816198,8.3383474 24.593378,8.1029139 24.182215,8.0709629 Z M 11.394059,34.942284 v -0.5457 c -0.243839,0.13874 -0.456568,0.259819 -0.755063,0.430507 z M 26.945173,34.810276 C 26.660975,34.653038 26.447401,34.535324 26.214495,34.40583 v 0.548226 c 0.243839,-0.04793 0.452366,-0.08913 0.730678,-0.144623 z"
       style="fill:#115aa8;fill-opacity:1;fill-rule:nonzero;stroke:none"
       id="path5186"
       inkscape:connector-curvature="0" />
  </g>
  <g
     id="g5188"
     transform="matrix(5.0374408,0,0,5.0374408,-825.27884,-378.57234)">
    <path
       d="m 184.66702,105.30196 c -0.70462,0 -0.99049,-0.1875 -0.99974,-0.65584 -0.0101,-0.48769 0.28252,-0.68613 1.01067,-0.68613 0.7021,0 0.99135,0.18918 1.00059,0.65501 0.0101,0.48516 -0.28756,0.68696 -1.01152,0.68696 z"
       style="fill:#115aa8;fill-opacity:1;fill-rule:nonzero;stroke:none"
       id="path5190"
       inkscape:connector-curvature="0" />
  </g>
  <g
     id="g5192"
     transform="matrix(5.0374408,0,0,5.0374408,-1106.9599,-378.01088)">
    <path
       d="m 240.55139,105.18733 c -0.13957,0 -0.28335,0.0235 -0.41621,-0.004 -0.35651,-0.0757 -0.55915,-0.30354 -0.54906,-0.67686 0.0101,-0.37249 0.21693,-0.60036 0.58185,-0.64576 0.24721,-0.0303 0.50114,-0.016 0.75087,-0.007 0.41704,0.0151 0.68443,0.29177 0.67602,0.68444 -0.008,0.37333 -0.27075,0.6323 -0.66761,0.65332 -0.12529,0.007 -0.25058,8.4e-4 -0.37586,8.4e-4 v -0.006 8.5e-4 z"
       style="fill:#115aa8;fill-opacity:1;fill-rule:nonzero;stroke:none"
       id="path5194"
       inkscape:connector-curvature="0" />
  </g>
</svg>
