<svg xmlns="http://www.w3.org/2000/svg" width="31.471" height="35.967" viewBox="0 0 31.471 35.967">
  <g id="b" transform="translate(0)">
    <g id="c" transform="translate(0 0)">
      <g id="Grupo_98" data-name="Grupo 98">
        <path id="Caminho_194" data-name="Caminho 194" d="M0,27.871a3.292,3.292,0,0,1,.623-.41c1.661-.62,3.33-1.219,5-1.827.471-.172.561-.305.562-.8q0-2.6,0-5.2A5.039,5.039,0,0,1,11.22,14.6c.69,0,1.381,0,2.071,0,.544,0,.719-.2.763-.732a.915.915,0,0,0-.568-1.018A4.38,4.38,0,0,1,11.215,9,1.758,1.758,0,0,1,9.9,8.324,1.691,1.691,0,0,1,9.55,7.177a1.75,1.75,0,0,1,1.687-1.6V4.46a4.488,4.488,0,0,1,8.915-.743,18.2,18.2,0,0,1,.106,1.87,1.731,1.731,0,0,1,1.288.647,1.666,1.666,0,0,1,.367,1.106c-.019.879-.606,1.477-1.674,1.673a4.395,4.395,0,0,1-1.411,3.208,6.77,6.77,0,0,1-1.176.811.4.4,0,0,0-.24.4c0,1.1.059,1.148,1.168,1.171a16.02,16.02,0,0,1,2.859.16,4.954,4.954,0,0,1,3.841,4.827c0,1.744,0,3.488,0,5.231,0,.517.087.635.585.817l4.962,1.81c.594.217.7.379.623.989a2.951,2.951,0,0,1-3.759,2.47c-.836-.255-1.649-.585-2.482-.851a1.79,1.79,0,0,0-.807-.074c-1.715.285-3.424.6-5.136.9-.033.006-.065.019-.172.052a20.077,20.077,0,0,0,4.281.523,7.587,7.587,0,0,1,1.784.044A2.194,2.194,0,0,1,26.9,34.206a1.334,1.334,0,0,0,0,.2,2.63,2.63,0,0,0,1.2-2.1.753.753,0,0,1,.338-.5.6.6,0,0,1,.538.063.722.722,0,0,1,.224.508,3.624,3.624,0,0,1-2.854,3.491,2.163,2.163,0,0,0-.225.075H5.267a1.415,1.415,0,0,0-.184-.075,3.591,3.591,0,0,1-2.724-2.636,3.652,3.652,0,0,1,.112-2.216l-.249-.07A2.983,2.983,0,0,1,.161,29.062C.1,28.9.053,28.737,0,28.573Zm10.674,1.582c1.171.2,2.306.4,3.443.6a5.416,5.416,0,0,0,2.521.141,10.952,10.952,0,0,1,1.17-.216l2.98-.529V27.22q0-2.615,0-5.231c0-.417.208-.652.564-.65s.553.238.558.656c0,.148,0,.295,0,.44h2.237c0-1.008.051-1.993-.011-2.971a3.827,3.827,0,0,0-2.43-3.443,6.024,6.024,0,0,0-2.486-.307.384.384,0,0,0-.414.262,3.225,3.225,0,0,1-3.118,1.985,3.247,3.247,0,0,1-3.045-2c-.039-.081-.075-.163-.109-.239-.5,0-.964-.021-1.43,0a3.848,3.848,0,0,0-3.735,3.437c-.11.936-.05,1.892-.065,2.839,0,.146,0,.293,0,.44h2.25c0-.212-.012-.409,0-.6a.537.537,0,0,1,.567-.5.545.545,0,0,1,.547.488,2.78,2.78,0,0,1,0,.316v7.309ZM21.332,32.5c-.748-.136-1.492-.275-2.237-.406q-6.081-1.068-12.164-2.128a1.085,1.085,0,0,0-.505.029c-.8.265-1.587.545-2.375.83a.606.606,0,0,0-.3.207A2.271,2.271,0,0,0,3.4,32.6a2.515,2.515,0,0,0,2.629,2.221q7.473,0,14.946,0h.357V32.5ZM16.846,5.8c-.112.142-.167.218-.229.288a1.852,1.852,0,0,1-1.555.649c-.63-.027-1.262-.006-1.893-.006h-.8c0,.831-.034,1.615.007,2.394a3.362,3.362,0,0,0,3.159,3.214,3.269,3.269,0,0,0,3.439-2.586A22.456,22.456,0,0,0,19.152,6.7a2.157,2.157,0,0,1-2.3-.9Zm2.282-.239c-.031-.558-.023-1.131-.1-1.691a3.368,3.368,0,0,0-3.674-2.726c-2.1.308-3.313,2.07-2.94,4.465.779,0,1.562-.029,2.342.01a1.448,1.448,0,0,0,1.258-.523c.742-.839.942-.843,1.675-.01a1.319,1.319,0,0,0,1.441.476ZM1.2,28.462a1.765,1.765,0,0,0,2.32,1.333c1.646-.555,3.282-1.137,4.915-1.728A1.583,1.583,0,0,0,9.5,26.788,3.614,3.614,0,0,0,9.55,26.2c0-.861,0-1.723,0-2.587H7.3v1.247a1.722,1.722,0,0,1-1.293,1.85c-.743.274-1.49.54-2.234.811q-1.293.471-2.58.943ZM21.913,23.6c0,1-.023,1.957.007,2.916A1.582,1.582,0,0,0,23,28.051c1.653.6,3.31,1.2,4.979,1.756a1.754,1.754,0,0,0,2.28-1.335c-.091-.037-.184-.08-.279-.115q-2.3-.84-4.6-1.679a1.691,1.691,0,0,1-1.226-1.753V23.6H21.914Zm.574,11.219c.782,0,1.539.024,2.294-.008a1.119,1.119,0,0,0,1.06-1.1A1.1,1.1,0,0,0,24.836,32.6c-.775-.044-1.555-.011-2.348-.011V34.82Zm-4.83-19.108A1.84,1.84,0,0,1,16.3,13.491h-1.14A1.836,1.836,0,0,1,13.8,15.715a2.22,2.22,0,0,0,3.854,0ZM11.221,6.737c-.336.059-.537.24-.533.557a.528.528,0,0,0,.533.544Zm9.014,1.105c.353-.053.546-.246.538-.56a.519.519,0,0,0-.538-.533ZM9.534,29.236v-.457l-.632.36Zm13.013-.11-.611-.338v.459l.611-.121Z" transform="translate(0 0.023)" />
        <path id="Caminho_195" data-name="Caminho 195" d="M184.5,105.083c-.59,0-.829-.157-.837-.549-.008-.408.236-.574.846-.574.588,0,.83.158.837.548C185.359,104.914,185.11,105.083,184.5,105.083Z" transform="translate(-170.744 -96.644)" />
        <path id="Caminho_196" data-name="Caminho 196" d="M240.394,104.968a1.742,1.742,0,0,1-.348,0,.523.523,0,0,1-.459-.566.512.512,0,0,1,.487-.54,3.983,3.983,0,0,1,.628-.006.56.56,0,1,1,.007,1.119c-.1.006-.21,0-.315,0v0Z" transform="translate(-222.729 -96.534)" />
      </g>
    </g>
  </g>
</svg>
