<?xml version="1.0" encoding="UTF-8" standalone="no"?>
<svg
   xmlns:dc="http://purl.org/dc/elements/1.1/"
   xmlns:cc="http://creativecommons.org/ns#"
   xmlns:rdf="http://www.w3.org/1999/02/22-rdf-syntax-ns#"
   xmlns:svg="http://www.w3.org/2000/svg"
   xmlns="http://www.w3.org/2000/svg"
   id="svg8"
   version="1.1"
   viewBox="0 0 210 210"
   height="210mm"
   width="210mm">
  <defs
     id="defs2" />
  <metadata
     id="metadata5">
    <rdf:RDF>
      <cc:Work
         rdf:about="">
        <dc:format>image/svg+xml</dc:format>
        <dc:type
           rdf:resource="http://purl.org/dc/dcmitype/StillImage" />
        <dc:title></dc:title>
      </cc:Work>
    </rdf:RDF>
  </metadata>
  <g
     transform="translate(0,-87)"
     id="layer1">
    <path
       d="m 103.85057,139.64436 c -10.423498,0.0238 -20.438559,5.1953 -26.508261,15.20556 -10.776716,17.77313 -2.927775,42.07489 15.669163,48.51536 9.157838,3.17734 27.120658,3.20694 38.090968,-10.54203 9.38244,-13.18607 8.58731,-30.01546 -2.5131,-42.45954 -7.18548,-7.22499 -16.10215,-10.73904 -24.73877,-10.71935 z m 1.30406,14.46129 c 14.9658,0.60185 23.53979,17.27688 13.93725,29.79878 -6.47196,8.27301 -17.35293,9.13911 -26.031882,2.07267 -12.706999,-10.34609 -4.538532,-31.87145 12.094632,-31.87145 z m 53.46242,47.52151 c 4.17378,-11.08052 8.87155,-23.13807 7.85493,-33.30966 -3.24941,-32.51144 -33.52696,-56.20592 -65.57339,-53.91738 -20.170263,1.68187 -38.740197,13.50473 -48.471818,31.6622 -10.622799,19.82026 -11.944453,34.29712 -0.727111,56.1736 23.125138,43.43262 39.706091,65.81242 54.888639,65.84917 15.24129,0.0369 31.34706,-21.68359 52.02875,-66.45793 z M 87.415222,282.71439 C 77.981289,277.57161 49.313078,238.60087 36.905168,214.05247 19.311828,179.24498 22.457695,149.97354 46.652633,123.35484 63.501924,104.81765 80.387845,97.345621 105.54513,97.294903 c 23.63031,-0.04763 42.60312,8.617277 58.9857,26.938857 19.14397,21.40979 24.6119,47.87187 15.34279,74.2515 -9.32542,26.5398 -44.10548,77.38726 -57.80633,84.51122 -9.5738,4.97802 -25.236781,4.85051 -34.652068,-0.28209 z"
       id="path39" />
  </g>
</svg>
