<svg id="Camada_1-2" xmlns="http://www.w3.org/2000/svg" width="20.066" height="24" viewBox="0 0 20.066 24">
  <path id="Caminho_812" data-name="Caminho 812" d="M9.523,24c-.277-.069-.559-.123-.831-.211A4.3,4.3,0,0,1,6.55,22.274a66.123,66.123,0,0,1-4.173-5.9A18.782,18.782,0,0,1,.343,12.021a8.37,8.37,0,0,1,.673-6.351A10.066,10.066,0,0,1,7.467.326,9.5,9.5,0,0,1,10.9.046a9.658,9.658,0,0,1,5.389,2.145,10.048,10.048,0,0,1,3.647,6.186,8.713,8.713,0,0,1-.925,5.521,41.134,41.134,0,0,1-3.843,6.25q-.825,1.137-1.706,2.232a4.221,4.221,0,0,1-2.8,1.58.5.5,0,0,0-.107.042H9.522Zm.521-22.117-.009-.058a17.469,17.469,0,0,0-2.022.334A8,8,0,0,0,2.089,8.292a5.615,5.615,0,0,0-.116,2.5,10.2,10.2,0,0,0,.9,2.473,44.454,44.454,0,0,0,5.286,7.985,2.488,2.488,0,0,0,3.849-.072c.778-1.006,1.544-2.022,2.281-3.058a32.41,32.41,0,0,0,3.125-5.261,7,7,0,0,0,.656-4.219,8.209,8.209,0,0,0-8.025-6.759Z" transform="translate(0.002 -0.003)" />
  <path id="Caminho_813" data-name="Caminho 813" d="M118.79,121.916a3.98,3.98,0,0,1-3.97-3.928,3.984,3.984,0,1,1,3.97,3.928Zm.007-6.089a2.128,2.128,0,0,0-2.1,2.087,2.105,2.105,0,1,0,4.21-.02,2.124,2.124,0,0,0-2.113-2.067Z" transform="translate(-108.714 -107.9)" />
</svg>
