<?xml version="1.0" encoding="UTF-8" standalone="no"?>
<svg
   xmlns:dc="http://purl.org/dc/elements/1.1/"
   xmlns:cc="http://creativecommons.org/ns#"
   xmlns:rdf="http://www.w3.org/1999/02/22-rdf-syntax-ns#"
   xmlns:svg="http://www.w3.org/2000/svg"
   xmlns="http://www.w3.org/2000/svg"
   viewBox="0 0 210 210"
   version="1.1"
   height="210mm"
   width="210mm"
   id="svg318">
  <defs
     id="defs2730" />
  <metadata
     id="metadata2733">
    <rdf:RDF>
      <cc:Work
         rdf:about="">
        <dc:format>image/svg+xml</dc:format>
        <dc:type
           rdf:resource="http://purl.org/dc/dcmitype/StillImage" />
        <dc:title></dc:title>
      </cc:Work>
    </rdf:RDF>
  </metadata>
  <g
     transform="matrix(0.6967112,0,0,0.75474352,31.845321,-7.0794154)"
     id="g59">
    <g
       transform="matrix(6.1302748,0,0,6.1302748,0.84782369,85.987492)"
       id="g745">
      <path
         d="M 30.197287,20.3915 H 3.7204258 C 3.6591001,20.370272 3.5995431,20.337839 3.5370381,20.329584 2.8494806,20.235237 2.2468359,19.948069 1.7273345,19.499916 0.6004715,18.526957 0.08509815,17.263287 0.00726143,15.800901 -0.03873298,14.933495 0.22367108,14.217633 1.0138315,13.757099 c 0.060147,-0.03479 0.1126273,-0.137983 0.1138067,-0.209924 0.00826,-0.738268 0.00531,-1.476538 0.00531,-2.209501 -0.79723646,-0.142111 -1.12686311,-0.534833 -1.12804245,-1.315558 0,-0.2099231 0.00648639,-0.4198468 -0.00117935,-0.6291802 C -0.06703723,7.455863 0.77147639,5.9191771 2.1330292,4.626616 4.07305,2.7844801 6.4511971,1.7584505 8.9803009,1.0419987 11.316581,0.3797968 13.707702,0.07847434 16.134201,0.01537942 c 2.650576,-0.06958131 5.271668,0.1550838 7.852661,0.76421512 2.510235,0.59262046 4.89192,1.49481876 6.966978,3.07337156 1.021311,0.7765977 1.918791,1.678796 2.454211,2.8628576 0.250614,0.5537018 0.385059,1.1598849 0.571987,1.7424817 v 1.9889626 c -0.201672,0.50476 -0.540142,0.841463 -1.129227,0.877433 0,0.754191 -0.0024,1.490692 0.0041,2.226602 0,0.06604 0.03833,0.165109 0.08904,0.191644 0.551933,0.291887 0.834385,0.786032 1.036057,1.344451 v 1.193497 c -0.02241,0.07076 -0.05248,0.140341 -0.06723,0.213461 -0.285991,1.445286 -0.922245,2.676521 -2.253723,3.413021 -0.441074,0.244126 -0.971779,0.326679 -1.461798,0.483532 l -3e-6,5.91e-4 z M 32.880886,10.165997 C 32.837841,9.5315084 32.845505,8.9211979 32.746441,8.328577 32.559513,7.2105594 31.949791,6.302464 31.145479,5.5335312 28.900597,3.3877144 26.081964,2.4513152 23.08407,1.7448878 23.504507,2.4123967 23.752169,3.0710604 23.775757,3.805202 23.788729,4.2197413 23.612419,4.4898114 23.268639,4.5281401 22.928398,4.5664692 22.665995,4.3005266 22.636509,3.8724246 22.581671,3.0740085 22.266195,2.3958855 21.661192,1.8775637 21.415888,1.6676404 21.118105,1.4347198 20.817371,1.3904943 19.978268,1.2666632 19.125603,1.234821 18.277653,1.1693673 c -0.04422,-0.00354 -0.09081,0.01887 -0.163338,0.03538 0.615027,0.6433322 0.981215,1.3751156 1.101507,2.2165775 0.03656,0.2553287 0.03892,0.5354228 -0.0283,0.780726 C 19.122072,4.4385095 18.88325,4.5593921 18.630281,4.5216533 18.323647,4.4756589 18.145565,4.282836 18.119621,3.9608753 18.044142,3.0232961 17.659678,2.2620296 16.89546,1.6788437 15.895968,0.91639763 14.805664,1.2625352 13.693542,1.3179644 c 0.135033,0.1833881 0.244713,0.3207817 0.342599,0.465841 0.435179,0.6468703 0.678713,1.3586046 0.692276,2.1393308 0.0059,0.3408304 -0.227614,0.586134 -0.535423,0.6091314 C 13.91231,4.5534954 13.662878,4.3376756 13.603322,4.0210218 13.585042,3.9231362 13.566172,3.8252509 13.556148,3.7267756 13.473004,2.8882618 13.083821,2.2166252 12.409825,1.7242489 12.261228,1.6157492 12.017694,1.5526544 11.837843,1.5839069 10.161406,1.8722565 8.5209389,2.2997689 6.947103,2.9548948 5.301918,3.6395042 3.7764368,4.5075011 2.5481505,5.8307257 1.4112629,7.0560641 0.98610938,8.5054789 1.1671387,10.167174 H 32.880886 v -0.0012 z m -20.528842,3.481424 c -0.112628,0.12501 -0.222896,0.246483 -0.331985,0.368545 -0.624463,0.701708 -1.244209,1.407547 -1.873978,2.103949 C 9.7905083,16.513227 9.4667778,16.5091 9.109437,16.116966 8.7444296,15.717169 8.3982925,15.299682 8.0226707,14.910498 7.9224272,14.806126 7.7467046,14.720034 7.6045938,14.719445 c -1.8904887,-0.01238 -3.7815662,-0.01003 -5.6720551,-0.0071 -0.4510991,5.89e-4 -0.7123239,0.176313 -0.731783,0.628001 -0.020639,0.485891 0.020639,0.99183 0.1397522,1.462388 0.3142953,1.24244 1.3515283,2.443011 3.0374003,2.433575 8.4140308,-0.04481 16.8286498,-0.02064 25.2432698,-0.02064 0.132675,0 0.265352,0.0024 0.398027,-0.0059 0.847359,-0.05307 1.507202,-0.436949 2.004885,-1.121557 0.530117,-0.729422 0.776005,-1.548478 0.813156,-2.438882 0.02595,-0.625643 -0.274784,-0.937578 -0.903378,-0.937578 -1.824443,0 -3.648889,0.0047 -5.473335,-0.0059 -0.245893,-0.0012 -0.411001,0.07017 -0.566086,0.257686 -0.324318,0.390953 -0.667509,0.766575 -1.008928,1.142786 -0.368546,0.406873 -0.690506,0.409822 -1.060232,0.0024 -0.460535,-0.507119 -0.910454,-1.023672 -1.36627,-1.534917 -0.276556,-0.310166 -0.554882,-0.617975 -0.836155,-0.931091 -2.256674,2.868756 -6.885598,3.000251 -9.270234,0.0053 l -5.84e-4,-5.91e-4 z m 0.820824,-0.925196 c 1.875157,2.696571 5.925025,2.549741 7.630355,-0.0059 -0.371493,-0.418668 -0.738268,-0.84618 -1.122734,-1.256003 -0.07725,-0.08255 -0.224076,-0.139752 -0.339062,-0.140342 -1.569708,-0.0088 -3.138827,-0.0083 -4.708531,-5.9e-4 -0.106141,0 -0.242945,0.04835 -0.313118,0.123242 -0.391541,0.418667 -0.767752,0.852666 -1.14691,1.279588 v 10e-7 z M 12.860341,11.34475 H 6.398716 c 1.0979695,1.233594 2.159379,2.425912 3.2325821,3.631201 1.0844069,-1.21944 2.1405099,-2.40704 3.2290439,-3.631201 z m 11.493297,3.632969 c 1.092663,-1.229464 2.150533,-2.421192 3.238479,-3.644762 h -6.480495 c 1.097381,1.233595 2.157612,2.425323 3.242607,3.644762 z M 6.825047,13.548945 C 6.3102636,12.971657 5.8043246,12.472205 5.3815303,11.909658 5.0171127,11.424947 4.6013947,11.247456 4.005825,11.302884 c -0.5654947,0.05248 -1.1398353,0.0112 -1.7200722,0.0112 v 2.234857 h 4.539886 l -5.918e-4,-10e-7 z m 24.867647,0.0065 v -2.240754 c -0.822592,0 -1.626313,-0.0065 -2.429447,0.0083 -0.0973,0.0018 -0.209925,0.104372 -0.285403,0.187516 -0.563726,0.621513 -1.120374,1.249515 -1.677027,1.877515 -0.03833,0.04364 -0.06191,0.100245 -0.103191,0.167467 h 4.495068 v 1e-6 z"
         id="path743" />
    </g>
    <g
       transform="matrix(6.1302748,0,0,6.1302748,-547.33002,-1618.1132)"
       id="g749">
      <path
         d="m 106.97375,288.17114 c 0.006,0.30902 -0.24884,0.57434 -0.55429,0.57849 -0.31312,0.004 -0.56609,-0.24237 -0.5708,-0.55725 -0.005,-0.31427 0.24118,-0.57672 0.54839,-0.58496 0.29601,-0.008 0.5708,0.26062 0.5767,0.56372 z"
         id="path747" />
    </g>
    <g
       transform="matrix(6.1302748,0,0,6.1302748,-2195.6323,-1618.3856)"
       id="g753">
      <path
         d="m 375.24005,288.7912 c -0.31134,-0.0218 -0.53363,-0.2854 -0.51242,-0.60797 0.0207,-0.31018 0.30368,-0.55899 0.60031,-0.52716 0.306,0.0324 0.54779,0.31488 0.52478,0.61328 -0.0236,0.29953 -0.30896,0.54306 -0.61267,0.52185 z"
         id="path751" />
    </g>
    <g
       transform="matrix(6.1302748,0,0,6.1302748,-2665.6515,-1617.7707)"
       id="g757">
      <path
         d="m 452.5249,288.12851 c -10e-4,0.31723 -0.25299,0.57022 -0.5643,0.56726 -0.30191,-0.003 -0.56549,-0.27362 -0.56137,-0.57669 0.004,-0.30429 0.27359,-0.57318 0.5708,-0.56964 0.30484,0.004 0.55603,0.26593 0.55429,0.57907 z"
         id="path755" />
    </g>
    <g
       transform="matrix(6.1302748,0,0,6.1302748,-2017.5015,-1500.4206)"
       id="g761">
      <path
         d="m 346.79755,268.96732 c 0.008,0.32019 -0.22702,0.5708 -0.54486,0.58142 -0.31488,0.0106 -0.57731,-0.2341 -0.58493,-0.54486 -0.007,-0.2966 0.25589,-0.5785 0.55191,-0.59263 0.29895,-0.0142 0.57022,0.24708 0.57788,0.55607 z"
         id="path759" />
    </g>
    <g
       transform="matrix(6.1302748,0,0,6.1302748,-3018.2228,-1618.4794)"
       id="g765">
      <path
         d="m 509.48315,288.80664 c -0.29721,10e-4 -0.57257,-0.27066 -0.57318,-0.56607 -6.1e-4,-0.29837 0.26828,-0.56845 0.56845,-0.5708 0.31134,-0.002 0.5596,0.24707 0.56195,0.56488 0.002,0.31726 -0.24472,0.57022 -0.55722,0.57141 z"
         id="path763" />
    </g>
    <g
       transform="matrix(6.1302748,0,0,6.1302748,-1194.8677,-1500.5666)"
       id="g769">
      <path
         d="m 212.60455,269.04132 c -0.0218,0.30603 -0.29248,0.54367 -0.60382,0.53009 -0.31311,-0.0141 -0.54072,-0.2724 -0.52421,-0.59436 0.0159,-0.30899 0.29364,-0.56314 0.59025,-0.54016 0.29839,0.023 0.55841,0.31549 0.53778,0.60443 z"
         id="path767" />
    </g>
    <g
       transform="matrix(6.1302748,0,0,6.1302748,-369.33579,-1500.4751)"
       id="g773">
      <path
         d="m 77.941437,268.99112 c 0.0012,0.31607 -0.242943,0.56253 -0.560189,0.56665 -0.307212,0.004 -0.570205,-0.25412 -0.571388,-0.56195 -0.0018,-0.2901 0.278321,-0.57373 0.569039,-0.57608 0.300132,-0.002 0.56195,0.263 0.563133,0.57138 z"
         id="path771" />
    </g>
    <g
       transform="matrix(6.1302748,0,0,6.1302748,-194.01563,-1618.2394)"
       id="g777">
      <path
         d="m 49.342491,288.22983 c -0.02005,0.30664 -0.300144,0.55844 -0.598514,0.53894 -0.312527,-0.0206 -0.547806,-0.28244 -0.533654,-0.59613 0.01356,-0.30545 0.294247,-0.56491 0.589081,-0.54309 0.296017,0.0218 0.562546,0.31549 0.543678,0.60028 z"
         id="path775" />
    </g>
    <g
       transform="matrix(6.1302748,0,0,6.1302748,-1017.1639,-1619.1321)"
       id="g781">
      <path
         d="m 183.06361,287.77945 c 0.31606,0.003 0.5596,0.25888 0.55194,0.57965 -0.008,0.30603 -0.24591,0.54483 -0.5484,0.55075 -0.30133,0.006 -0.57553,-0.26181 -0.57728,-0.56372 -0.002,-0.30252 0.26887,-0.57022 0.57432,-0.56668 z"
         id="path779" />
    </g>
    <g
       transform="matrix(6.1302748,0,0,6.1302748,-1841.9559,-1618.1615)"
       id="g785">
      <path
         d="m 317.02911,288.16599 c 0.0147,-0.30661 0.29367,-0.56724 0.58731,-0.54957 0.29187,0.0177 0.5608,0.31077 0.54841,0.59794 -0.0124,0.29541 -0.29603,0.55252 -0.59852,0.54248 -0.30722,-0.01 -0.55252,-0.27948 -0.5372,-0.5914 z"
         id="path783" />
    </g>
    <g
       transform="matrix(6.1302748,0,0,6.1302748,-2842.6079,-1500.4769)"
       id="g789">
      <path
         d="m 481.39618,268.99432 c 0,0.29837 -0.26773,0.56083 -0.57495,0.56375 -0.31372,0.004 -0.56314,-0.24707 -0.56137,-0.56314 0.002,-0.30661 0.26535,-0.57492 0.56314,-0.57492 0.28894,0 0.57257,0.28421 0.57257,0.57431 z"
         id="path787" />
    </g>
    <g
       transform="matrix(6.1302748,0,0,6.1302748,-1369.8605,-1619.1362)"
       id="g793">
      <path
         d="m 241.15421,288.35315 c -0.006,0.31073 -0.27421,0.56842 -0.58082,0.55722 -0.28424,-0.01 -0.54898,-0.27655 -0.5549,-0.55899 -0.006,-0.29544 0.27066,-0.5708 0.57376,-0.57141 0.31196,-6.1e-4 0.56785,0.26065 0.56196,0.57318 z"
         id="path791" />
    </g>
  </g>
</svg>
