<svg id="b" xmlns="http://www.w3.org/2000/svg" width="33.98" height="20.388" viewBox="0 0 33.98 20.388">
  <g id="c" transform="translate(0 0)">
    <g id="Grupo_124" data-name="Grupo 124">
      <path id="Caminho_348" data-name="Caminho 348" d="M30.2,20.392H3.72a.988.988,0,0,0-.183-.062,3.447,3.447,0,0,1-1.81-.83,5.009,5.009,0,0,1-1.72-3.7,2.035,2.035,0,0,1,1.007-2.044.286.286,0,0,0,.114-.21c.008-.738.005-1.477.005-2.21A1.173,1.173,0,0,1,0,10.022c0-.21.006-.42,0-.629A6.078,6.078,0,0,1,2.133,4.627,15.91,15.91,0,0,1,8.98,1.042,28.851,28.851,0,0,1,16.134.015,30.541,30.541,0,0,1,23.987.78a18.137,18.137,0,0,1,6.967,3.073,7.594,7.594,0,0,1,2.454,2.863,16.139,16.139,0,0,1,.572,1.742v1.989a1.235,1.235,0,0,1-1.129.877c0,.754,0,1.491,0,2.227a.249.249,0,0,0,.089.192,2.264,2.264,0,0,1,1.036,1.344v1.193a2.083,2.083,0,0,0-.067.213,4.652,4.652,0,0,1-2.254,3.413,8.062,8.062,0,0,1-1.462.484Zm2.684-10.226c-.043-.634-.035-1.245-.134-1.837a5.009,5.009,0,0,0-1.6-2.8C28.9,3.388,26.082,2.451,23.084,1.745a4.034,4.034,0,0,1,.692,2.06c.013.415-.163.685-.507.723s-.6-.228-.632-.656a2.778,2.778,0,0,0-.975-1.995,1.879,1.879,0,0,0-.844-.487c-.839-.124-1.692-.156-2.54-.221a.673.673,0,0,0-.163.035,3.943,3.943,0,0,1,1.1,2.217,1.974,1.974,0,0,1-.028.781.477.477,0,0,1-.557.32.561.561,0,0,1-.511-.561A3.032,3.032,0,0,0,16.9,1.679c-1-.762-2.09-.416-3.2-.361.135.183.245.321.343.466a3.893,3.893,0,0,1,.692,2.139.575.575,0,0,1-.535.609.581.581,0,0,1-.59-.511c-.018-.1-.037-.2-.047-.294a2.72,2.72,0,0,0-1.146-2,.834.834,0,0,0-.572-.14A22.651,22.651,0,0,0,6.947,2.955a12.215,12.215,0,0,0-4.4,2.876,5.234,5.234,0,0,0-1.381,4.336H32.881ZM12.352,13.647l-.332.369c-.624.7-1.244,1.408-1.874,2.1a.6.6,0,0,1-1.037,0c-.365-.4-.711-.817-1.087-1.206a.651.651,0,0,0-.418-.191c-1.89-.012-3.782-.01-5.672-.007-.451,0-.712.176-.732.628a5.144,5.144,0,0,0,.14,1.462,3.09,3.09,0,0,0,3.037,2.434c8.414-.045,16.829-.021,25.243-.021.133,0,.265,0,.4-.006a2.572,2.572,0,0,0,2-1.122,4.346,4.346,0,0,0,.813-2.439.794.794,0,0,0-.9-.938c-1.824,0-3.649,0-5.473-.006a.655.655,0,0,0-.566.258c-.324.391-.668.767-1.009,1.143a.613.613,0,0,1-1.06,0c-.461-.507-.91-1.024-1.366-1.535-.277-.31-.555-.618-.836-.931a5.984,5.984,0,0,1-9.27.005Zm.821-.925a4.679,4.679,0,0,0,7.63-.006c-.371-.419-.738-.846-1.123-1.256a.515.515,0,0,0-.339-.14q-2.355-.013-4.709,0a.471.471,0,0,0-.313.123c-.392.419-.768.853-1.147,1.28Zm-.313-1.377H6.4l3.233,3.631,3.229-3.631Zm11.493,3.633,3.238-3.645h-6.48l3.243,3.645ZM6.825,13.549C6.31,12.972,5.8,12.472,5.382,11.91A1.393,1.393,0,0,0,4.006,11.3c-.565.052-1.14.011-1.72.011v2.235h4.54Zm24.868.006V11.315c-.823,0-1.626-.006-2.429.008a.5.5,0,0,0-.285.188c-.564.622-1.12,1.25-1.677,1.878a1.3,1.3,0,0,0-.1.167h4.5Z" transform="translate(0 -0.003)"/>
      <path id="Caminho_349" data-name="Caminho 349" d="M106.974,288.171a.573.573,0,0,1-.554.578.561.561,0,0,1-.571-.557.572.572,0,0,1,.548-.585A.59.59,0,0,1,106.974,288.171Z" transform="translate(-99.607 -270.648)"/>
      <path id="Caminho_350" data-name="Caminho 350" d="M375.24,288.791a.554.554,0,0,1-.512-.608.567.567,0,0,1,.6-.527.593.593,0,0,1,.525.613A.587.587,0,0,1,375.24,288.791Z" transform="translate(-352.63 -270.691)"/>
      <path id="Caminho_351" data-name="Caminho 351" d="M452.525,288.129a.562.562,0,0,1-.564.567.573.573,0,0,1,.009-1.146.573.573,0,0,1,.554.579Z" transform="translate(-424.781 -270.594)"/>
      <path id="Caminho_352" data-name="Caminho 352" d="M346.8,268.967a.555.555,0,0,1-.545.581.562.562,0,0,1-.585-.545.605.605,0,0,1,.552-.593A.574.574,0,0,1,346.8,268.967Z" transform="translate(-325.285 -252.583)"/>
      <path id="Caminho_353" data-name="Caminho 353" d="M509.483,288.807a.568.568,0,1,1,0-1.137.568.568,0,0,1,0,1.136Z" transform="translate(-478.901 -270.707)"/>
      <path id="Caminho_354" data-name="Caminho 354" d="M212.6,269.041a.58.58,0,0,1-.6.53.549.549,0,0,1-.524-.594.573.573,0,0,1,.59-.54A.6.6,0,0,1,212.6,269.041Z" transform="translate(-199.006 -252.607)"/>
      <path id="Caminho_355" data-name="Caminho 355" d="M77.941,268.991a.558.558,0,0,1-.56.567A.572.572,0,0,1,76.81,269a.61.61,0,0,1,.569-.576.578.578,0,0,1,.563.571Z" transform="translate(-72.281 -252.592)"/>
      <path id="Caminho_356" data-name="Caminho 356" d="M49.342,288.23a.585.585,0,0,1-.6.539.568.568,0,0,1-.534-.6.577.577,0,0,1,.589-.543.61.61,0,0,1,.544.6Z" transform="translate(-45.367 -270.668)"/>
      <path id="Caminho_357" data-name="Caminho 357" d="M183.064,287.779a.565.565,0,0,1,0,1.13.565.565,0,1,1,0-1.13Z" transform="translate(-171.729 -270.81)"/>
      <path id="Caminho_358" data-name="Caminho 358" d="M317.029,288.166a.585.585,0,0,1,.587-.55.616.616,0,0,1,.548.6.6.6,0,0,1-.6.542.564.564,0,0,1-.537-.591Z" transform="translate(-298.334 -270.656)"/>
      <path id="Caminho_359" data-name="Caminho 359" d="M481.4,268.994a.587.587,0,0,1-.575.564.554.554,0,0,1-.561-.563.587.587,0,0,1,.563-.575.612.612,0,0,1,.573.574Z" transform="translate(-451.94 -252.592)"/>
      <path id="Caminho_360" data-name="Caminho 360" d="M241.154,288.353a.573.573,0,0,1-.581.557.6.6,0,0,1-.555-.559.592.592,0,0,1,.574-.571A.565.565,0,0,1,241.154,288.353Z" transform="translate(-225.865 -270.811)"/>
    </g>
  </g>
</svg>
