<?xml version="1.0" encoding="UTF-8" standalone="no"?>
<svg
   xmlns:dc="http://purl.org/dc/elements/1.1/"
   xmlns:cc="http://creativecommons.org/ns#"
   xmlns:rdf="http://www.w3.org/1999/02/22-rdf-syntax-ns#"
   xmlns:svg="http://www.w3.org/2000/svg"
   xmlns="http://www.w3.org/2000/svg"
   id="svg8"
   version="1.1"
   viewBox="0 0 210 210"
   height="210mm"
   width="210mm">
  <defs
     id="defs2" />
  <metadata
     id="metadata5">
    <rdf:RDF>
      <cc:Work
         rdf:about="">
        <dc:format>image/svg+xml</dc:format>
        <dc:type
           rdf:resource="http://purl.org/dc/dcmitype/StillImage" />
        <dc:title></dc:title>
      </cc:Work>
    </rdf:RDF>
  </metadata>
  <g
     transform="translate(0,-87)"
     id="layer1">
    <path
       id="path53"
       d="M 97.220052,239.22648 C 19.742546,199.7669 20.870205,200.54001 21.157379,187.07872 c 0.137467,-6.44367 2.764411,-12.88891 14.384721,-35.29305 7.819097,-15.07534 15.754043,-28.94722 17.633213,-30.82639 13.732637,-14.28655 34.860008,0.41372 33.08783,19.48168 -0.889174,9.56715 -0.583587,12.17624 1.724898,14.72708 4.551425,5.02927 11.290076,3.94462 16.299919,-2.62364 8.53654,-11.19198 23.75667,-11.45538 33.90818,-0.58682 5.5225,5.91258 44.30139,69.20404 48.37476,78.95296 3.47083,8.3069 3.05025,15.8283 -1.31398,23.49748 -4.37107,7.68121 -15.65483,14.35615 -24.2686,14.35615 -4.17035,0 -21.86541,-8.19642 -63.768268,-29.53769 z m 70.640658,14.28543 c 4.38985,-2.00016 7.7972,-7.89399 7.7972,-13.48716 0,-1.90804 -2.67339,-7.87002 -5.94087,-13.24887 l -5.94087,-9.77973 -5.69799,2.71718 c -4.67884,2.23119 -6.16155,2.33247 -8.28969,0.56628 -3.86643,-3.20886 -3.14256,-7.76131 1.85975,-11.69613 4.01809,-3.16063 4.24174,-3.89332 2.29744,-7.52628 -2.09472,-3.91401 -2.30716,-3.95174 -7.71939,-1.37083 -4.56657,2.17765 -6.03052,2.26793 -8.15707,0.50304 -3.82899,-3.17777 -3.15641,-7.75042 1.70211,-11.57212 3.60874,-2.83864 4,-3.92646 2.45237,-6.81825 -2.02847,-3.79022 -5.09559,-4.42165 -7.89243,-1.62481 -0.99876,0.99876 -3.59793,1.56379 -5.77593,1.25563 -6.10352,-0.86357 -6.26976,-8.36686 -0.2896,-13.07086 l 4.69241,-3.69105 -4.69331,-4.03701 c -2.58132,-2.22036 -5.74629,-4.03702 -7.03328,-4.03702 -1.28698,0 -5.68222,3.39022 -9.76721,7.53383 -6.47481,6.56773 -8.33408,7.53382 -14.499086,7.53382 -8.63769,0 -19.507992,-5.7489 -22.759524,-12.03667 -2.761675,-5.3405 -3.069125,-15.29553 -0.614057,-19.88287 2.806843,-5.24463 -0.841804,-10.24421 -7.0164,-9.61426 -4.722843,0.48184 -6.029243,2.38317 -19.560411,28.46825 -11.801658,22.75096 -14.166274,28.51393 -12.70833,30.97238 1.867863,3.14967 14.639117,10.10947 82.416378,44.91348 22.37338,11.48886 42.11421,20.88883 43.86852,20.88883 1.7543,0 5.02548,-0.83646 7.26927,-1.8588 z M 62.811117,189.67141 c -8.397244,-4.85536 -10.748332,-8.47037 -7.810815,-12.00987 3.035295,-3.6573 8.121987,-3.27754 16.021203,1.19611 5.456897,3.09047 6.69673,4.71265 6.69673,8.76192 0,4.06954 -0.757827,5.04731 -4.185456,5.4002 -2.302001,0.23701 -7.12675,-1.26976 -10.721662,-3.34836 z"
       style="fill:#000000;stroke-width:1.67418265" />
  </g>
</svg>
