<svg id="Camada_1-2" xmlns="http://www.w3.org/2000/svg" width="25.378" height="23" viewBox="0 0 25.378 23">
  <path id="Caminho_810" data-name="Caminho 810" d="M0,10.712A3.254,3.254,0,0,1,.409,9.137c.6-1.1,1.146-2.227,1.717-3.342Q3.137,3.822,4.152,1.85A3.277,3.277,0,0,1,5.706.3,3.117,3.117,0,0,1,9.64,1.36a3.1,3.1,0,0,1,.239,3.257,1.045,1.045,0,0,0,.415,1.4,1.955,1.955,0,0,0,1.053.43,1.007,1.007,0,0,0,.965-.57,3.105,3.105,0,0,1,3.647-1.59,3.868,3.868,0,0,1,2.381,1.735c.957,1.639,1.964,3.249,2.95,4.871.942,1.551,1.89,3.1,2.823,4.655a16.378,16.378,0,0,1,.96,1.756,4.076,4.076,0,0,1-1.111,4.609,4.019,4.019,0,0,1-4.216.8c-1.255-.475-2.424-1.175-3.631-1.777-.221-.11-.438-.226-.658-.338q-2.447-1.252-4.894-2.506Q8.7,17.132,6.832,16.166q-1.93-1-3.86-1.993c-.393-.2-.778-.427-1.176-.621A3.142,3.142,0,0,1,0,10.712ZM16.735,7.519c-.115-.184-.221-.349-.324-.516a1.306,1.306,0,0,0-2.319.021,3.16,3.16,0,0,1-3.837,1.349A3.77,3.77,0,0,1,7.79,6.121a3.1,3.1,0,0,1,.159-2.39A1.108,1.108,0,0,0,7.96,2.659a.966.966,0,0,0-.927-.523,1,1,0,0,0-.944.6Q5.327,4.193,4.571,5.649q-1.153,2.234-2.3,4.472a1.043,1.043,0,0,0,.4,1.484c.732.425,1.49.8,2.242,1.195q1.928,1,3.861,1.995l3.7,1.909q1.918.988,3.837,1.976c1.149.589,2.3,1.181,3.454,1.756a3.66,3.66,0,0,0,.957.356,2.065,2.065,0,0,0,2.186-3.126c-.334-.567-.668-1.134-1.01-1.7-.145-.239-.31-.465-.465-.7a9.131,9.131,0,0,1-1.056.608,1.07,1.07,0,0,1-1.337-.522,1.109,1.109,0,0,1,.433-1.39c.281-.173.563-.343.854-.52-.2-.345-.381-.672-.578-.991-.064-.1-.141-.152-.291-.047a4.05,4.05,0,0,1-.915.519,1.036,1.036,0,0,1-1.319-.579,1.049,1.049,0,0,1,.439-1.333c.277-.182.563-.347.861-.529-.2-.348-.385-.686-.6-1.005-.035-.053-.218-.06-.3-.02-.228.114-.432.274-.655.4a1.092,1.092,0,0,1-1.5-.345,1.073,1.073,0,0,1,.346-1.433c.282-.195.582-.362.909-.562Z" transform="translate(0 0.006)" />
  <path id="Caminho_811" data-name="Caminho 811" d="M96.3,167.881c-.345-.151-.7-.291-1.033-.457-.459-.226-.909-.471-1.361-.71a1.068,1.068,0,0,1-.483-1.275,1.1,1.1,0,0,1,1.464-.613c.622.319,1.246.633,1.863.963a1.094,1.094,0,0,1,.616,1.023,1.013,1.013,0,0,1-.659.925,1.669,1.669,0,0,1-.369.087l-.037.056Z" transform="translate(-88.407 -156)" />
</svg>
