<?xml version="1.0" encoding="iso-8859-1"?>
<!-- Uploaded to: SVG Repo, www.svgrepo.com, Generator: SVG Repo Mixer Tools -->
<svg fill="#000000" height="800px" width="800px" version="1.1" id="Layer_1" xmlns="http://www.w3.org/2000/svg" xmlns:xlink="http://www.w3.org/1999/xlink" 
	 viewBox="0 0 512 512" xml:space="preserve">
<g>
	<g>
		<path d="M297.996,270.56c-1.334-3.337-4.53-5.555-8.123-5.643l-100.658-2.447c-2.451-0.069-4.832,0.891-6.57,2.628l-45.419,45.419
			c-12.53,12.529-16.636,31.358-10.458,47.967c4.609,12.391,14.358,22.14,26.749,26.749c5.133,1.908,10.476,2.835,15.781,2.835
			c11.862,0,23.528-4.637,32.186-13.294l94.525-94.525C298.549,277.707,299.33,273.897,297.996,270.56z M188.778,362.07
			c-7.576,7.576-18.956,10.058-29,6.322c-7.491-2.786-13.385-8.68-16.171-16.171c-3.735-10.041-1.253-21.425,6.323-29l42.696-42.696
			l75.852,1.845L188.778,362.07z"/>
	</g>
</g>
<g>
	<g>
		<path d="M509.368,114.997L397.003,2.632c-3.508-3.508-9.197-3.508-12.704,0c-3.508,3.508-3.508,9.197,0,12.704l24.054,24.054
			l-64.199,64.199c-3.508,3.508-3.508,9.197,0,12.704c3.508,3.508,9.197,3.508,12.704,0l64.199-64.199l38.849,38.849l-91.73,91.73
			l-38.849-38.849l6.358-6.358c3.508-3.508,3.508-9.197,0-12.704c-3.508-3.51-9.197-3.508-12.704,0l-6.358,6.358l-50.494-50.494
			c-3.508-3.508-9.197-3.508-12.704,0c-3.508,3.508-3.508,9.197,0,12.704l21.409,21.409L101.407,288.166
			c-19.783,19.781-26.263,49.507-16.511,75.727l4.016,10.798l-30.972,30.971c-1.685,1.684-2.632,3.969-2.632,6.352
			c0,2.382,0.946,4.668,2.632,6.352l11.494,11.494L2.631,496.664c-3.508,3.508-3.508,9.197,0,12.704
			c1.754,1.754,4.053,2.632,6.352,2.632c2.299,0,4.598-0.877,6.352-2.632l66.802-66.802l11.494,11.494
			c1.754,1.754,4.053,2.632,6.352,2.632c2.299,0,4.598-0.877,6.352-2.632l30.971-30.971l10.798,4.016
			c26.22,9.751,55.946,3.27,75.728-16.512L357.88,276.545c3.508-3.508,3.508-9.197,0-12.704c-3.508-3.508-9.197-3.508-12.704,0
			L211.129,397.89c-14.827,14.826-37.106,19.686-56.761,12.375l-14.367-5.343l-13.456-13.456c-3.508-3.508-9.197-3.508-12.704,0
			c-3.508,3.508-3.508,9.197,0,12.704l8.49,8.49l-22.346,22.346l-11.492-11.492c-0.001-0.001-0.002-0.002-0.002-0.002
			s-0.002-0.001-0.004-0.002l-11.492-11.492l28.698-28.698c2.485-2.484,3.293-6.19,2.069-9.483l-6.026-16.204
			c-7.31-19.653-2.452-41.932,12.375-56.76l173.428-173.428l97.018,97.018l-18.205,18.205c-3.508,3.508-3.508,9.197,0,12.704
			c3.508,3.508,9.197,3.508,12.704,0l18.205-18.205l21.409,21.409c1.754,1.754,4.053,2.632,6.352,2.632s4.598-0.877,6.352-2.632
			c3.508-3.508,3.508-9.197,0-12.704L380.88,195.38l91.73-91.73l24.055,24.055c1.754,1.754,4.053,2.632,6.352,2.632
			c2.299,0,4.598-0.877,6.352-2.632C512.877,124.194,512.877,118.506,509.368,114.997z"/>
	</g>
</g>
</svg>