<svg id="Camada_1-2" xmlns="http://www.w3.org/2000/svg" width="23.536" height="23.536" viewBox="0 0 23.536 23.536">
  <g id="Grupo_703" data-name="Grupo 703">
    <path id="Caminho_814" data-name="Caminho 814" d="M12.6,0c.43.062.863.107,1.289.189A11.728,11.728,0,0,1,21.331,4.87a.924.924,0,1,1-1.511,1.063A9.948,9.948,0,0,0,2.062,9.719a9.936,9.936,0,0,0,17.733,7.92.927.927,0,1,1,1.525,1.047,11.452,11.452,0,0,1-1.973,2.107,11.881,11.881,0,0,1-5.959,2.64c-.263.039-.527.069-.791.1H10.942c-.378-.051-.758-.09-1.133-.155A11.561,11.561,0,0,1,3.768,20.4,11.531,11.531,0,0,1,.135,13.566c-.048-.308-.09-.616-.135-.924V10.895c.051-.361.091-.724.153-1.083A11.567,11.567,0,0,1,3.221,3.675,11.532,11.532,0,0,1,9.971.135c.308-.047.616-.09.924-.135Z" />
    <path id="Caminho_815" data-name="Caminho 815" d="M248.581,184.059c-.024.046-.051.091-.073.137a.916.916,0,0,1-1.492.291,15.582,15.582,0,0,1-1.2-1.207,11.226,11.226,0,0,1-.761-1.156l.049-.043h-.274q-4.008,0-8.017,0a.918.918,0,0,1-.248-1.806,1.2,1.2,0,0,1,.317-.03h8.237a6.043,6.043,0,0,1,1.968-2.461.892.892,0,0,1,1.4.3c.03.06.061.12.092.179v.46c-.169.222-.324.456-.511.662-.257.283-.541.542-.81.814a1.3,1.3,0,0,0,0,1.92c.269.273.553.531.81.814.187.205.342.44.511.662v.46Z" transform="translate(-225.044 -169.395)" />
    <path id="Caminho_816" data-name="Caminho 816" d="M126.887,120.76a6.225,6.225,0,0,1,4.543,1.864.923.923,0,1,1-1.3,1.309,4.3,4.3,0,0,0-3.012-1.319,4.363,4.363,0,0,0-.727,8.677,4.206,4.206,0,0,0,3.673-1.215.967.967,0,0,1,.973-.313.915.915,0,0,1,.421,1.535,5.967,5.967,0,0,1-3.7,1.839,6.2,6.2,0,0,1-1.776-12.276c.353-.059.713-.081.909-.1Z" transform="translate(-115.262 -115.209)" />
  </g>
</svg>
