<?xml version="1.0" encoding="UTF-8" standalone="no"?>
<svg
   xmlns:dc="http://purl.org/dc/elements/1.1/"
   xmlns:cc="http://creativecommons.org/ns#"
   xmlns:rdf="http://www.w3.org/1999/02/22-rdf-syntax-ns#"
   xmlns:svg="http://www.w3.org/2000/svg"
   xmlns="http://www.w3.org/2000/svg"
   xmlns:sodipodi="http://sodipodi.sourceforge.net/DTD/sodipodi-0.dtd"
   xmlns:inkscape="http://www.inkscape.org/namespaces/inkscape"
   id="svg2736"
   version="1.1"
   viewBox="0 0 210 297"
   height="297mm"
   width="210mm"
   sodipodi:docname="alvo.svg"
   inkscape:version="0.92.4 (5da689c313, 2019-01-14)">
  <sodipodi:namedview
     pagecolor="#ffffff"
     bordercolor="#666666"
     borderopacity="1"
     objecttolerance="10"
     gridtolerance="10"
     guidetolerance="10"
     inkscape:pageopacity="0"
     inkscape:pageshadow="2"
     inkscape:window-width="1920"
     inkscape:window-height="934"
     id="namedview17"
     showgrid="false"
     inkscape:zoom="0.91022117"
     inkscape:cx="397.67323"
     inkscape:cy="568.3945"
     inkscape:window-x="0"
     inkscape:window-y="0"
     inkscape:window-maximized="1"
     inkscape:current-layer="svg2736" />
  <defs
     id="defs2730" />
  <metadata
     id="metadata2733">
    <rdf:RDF>
      <cc:Work
         rdf:about="">
        <dc:format>image/svg+xml</dc:format>
        <dc:type
           rdf:resource="http://purl.org/dc/dcmitype/StillImage" />
        <dc:title></dc:title>
      </cc:Work>
    </rdf:RDF>
  </metadata>
  <g
     id="g391">
    <path
       inkscape:connector-curvature="0"
       id="circle328"
       d="m 104.9584,108.7071 a 46.040849,46.040849 0 0 0 -46.040501,46.04051 46.040849,46.040849 0 0 0 46.040501,46.04112 46.040849,46.040849 0 0 0 36.28966,-17.73505 l -8.01422,-8.01422 a 34.833165,34.833165 0 0 1 -28.27544,14.54187 34.833165,34.833165 0 0 1 -34.833099,-34.83372 34.833165,34.833165 0 0 1 34.833099,-34.8331 34.833165,34.833165 0 0 1 27.19333,13.0753 l 7.96359,-7.96358 A 46.040849,46.040849 0 0 0 104.9584,108.7071 Z" />
    <path
       inkscape:connector-curvature="0"
       id="path352"
       d="m 104.9584,65.627861 a 89.120382,89.120382 0 0 0 -89.120367,89.120369 89.120382,89.120382 0 0 0 89.120367,89.11974 89.120382,89.120382 0 0 0 66.80371,-30.29962 l -8.14238,-8.14238 A 77.562459,77.562459 0 0 1 104.9584,232.31049 77.562459,77.562459 0 0 1 27.396135,154.74823 77.562459,77.562459 0 0 1 104.9584,77.185342 77.562459,77.562459 0 0 1 162.39135,102.7502 l 8.16675,-8.166752 A 89.120382,89.120382 0 0 0 104.9584,65.627861 Z" />
    <path
       inkscape:connector-curvature="0"
       id="rect334"
       d="m 191.61199,124.14292 -26.25001,25.68801 H 98.301973 v 12.30763 h 70.562637 l 22.74738,22.26103 8.67373,-8.86253 -20.40375,-19.9674 v -2.59681 l 20.40375,-19.96741 z" />
  </g>
</svg>
