<svg xmlns="http://www.w3.org/2000/svg" width="20.355" height="26.471" viewBox="0 0 20.355 26.471">
  <g id="b" transform="translate(0)">
    <g id="c" transform="translate(0 0)">
      <g id="Grupo_103" data-name="Grupo 103">
        <path id="Caminho_225" data-name="Caminho 225" d="M19.071,319.858a1.159,1.159,0,0,1-.784-1.273,2.631,2.631,0,0,0-.032-.385,7.273,7.273,0,0,0-6.208-6.614,10.856,10.856,0,0,0-4.708.212,7.16,7.16,0,0,0-5.118,5.61,5.013,5.013,0,0,0-.138,1.176,1.2,1.2,0,0,1-.791,1.273H.775A1.325,1.325,0,0,1,0,319.083v-1.034c.085-.472.139-.953.262-1.414a9.292,9.292,0,0,1,6.535-6.85,8.277,8.277,0,0,1,2.7-.369c.8.016,1.6-.01,2.4.054a8.886,8.886,0,0,1,4.836,1.926,9.194,9.194,0,0,1,3.445,5.554,11.95,11.95,0,0,1,.182,1.921,1.038,1.038,0,0,1-.766.988h-.517Z" transform="translate(0 -293.387)" />
        <path id="Caminho_226" data-name="Caminho 226" d="M73.834,6.991A6.977,6.977,0,1,1,66.9,0a6.973,6.973,0,0,1,6.932,6.991ZM66.864,2.067a4.912,4.912,0,1,0,4.9,4.926,4.937,4.937,0,0,0-4.9-4.926Z" transform="translate(-56.779 0)" />
      </g>
    </g>
  </g>
</svg>
