<svg xmlns="http://www.w3.org/2000/svg" width="40.785" height="37.024" viewBox="0 0 40.785 37.024">
  <g id="Grupo_709" data-name="Grupo 709" transform="translate(-270.041 -62.186)">
    <g id="b" transform="translate(279 62.186)">
      <g id="c" transform="translate(0)">
        <path id="Caminho_312" data-name="Caminho 312" d="M18.016,0A14.189,14.189,0,0,1,18.9,1.147,127.79,127.79,0,0,1,27.75,17.46a24.923,24.923,0,0,1,1.969,5.972,10.752,10.752,0,0,1-1.449,7.344A11.946,11.946,0,0,1,16.682,37,12.229,12.229,0,0,1,5.86,28.242a1.033,1.033,0,1,1,1.964-.6,10.06,10.06,0,0,0,7.589,7.081,10.221,10.221,0,0,0,12.219-8.064,11.767,11.767,0,0,0-1-6.488A102.131,102.131,0,0,0,19.506,6.122c-.6-1.026-1.219-2.037-1.852-3.092a1.147,1.147,0,0,0-.183.177A126.236,126.236,0,0,0,9.058,18.947c-.154.358-.284.726-.429,1.088-.3.736-.816,1.025-1.411.786a1.029,1.029,0,0,1-.508-1.53c1.153-2.529,2.217-5.108,3.532-7.55C12.2,8.1,14.346,4.552,16.425.973A8.266,8.266,0,0,1,17.2,0Z" transform="translate(-5.373)" fill="#fff"/>
        <path id="Caminho_313" data-name="Caminho 313" d="M160.965,322.993a8.186,8.186,0,0,1-6.827,7.739,10.286,10.286,0,0,1-1.213.1,1.021,1.021,0,1,1-.05-2.035,6.115,6.115,0,0,0,5.893-4.843,7.347,7.347,0,0,0,.154-1.208c.046-.695.441-1.111,1.072-1.088a1.009,1.009,0,0,1,.972,1.131v.2Z" transform="translate(-140.573 -297.887)" fill="#fff"/>
        <path id="Caminho_314" data-name="Caminho 314" d="M2.037,308.89a1,1,0,0,1-1.054,1,1.019,1.019,0,0,1,.044-2.037A1,1,0,0,1,2.037,308.89Z" transform="translate(0 -285.1)" fill="#fff"/>
      </g>
    </g>
    <path id="Caminho_321" data-name="Caminho 321" d="M234.549,0c.663.359.481,1.011.524,1.605.656.111,1.583-.226,1.616.9.016.567-.3.708-1.628.794,0,.257.009.522,0,.786a.816.816,0,1,1-1.631,0c-.01-.251,0-.5,0-.783-.678-.1-1.6.231-1.629-.9-.013-.562.288-.7,1.608-.79.075-.558-.158-1.25.53-1.608h.614Z" transform="translate(38.245 75.791)" fill="#fff"/>
    <path id="Caminho_322" data-name="Caminho 322" d="M234.549,0c.663.359.481,1.011.524,1.605.656.111,1.583-.226,1.616.9.016.567-.3.708-1.628.794,0,.257.009.522,0,.786a.816.816,0,1,1-1.631,0c-.01-.251,0-.5,0-.783-.678-.1-1.6.231-1.629-.9-.013-.562.288-.7,1.608-.79.075-.558-.158-1.25.53-1.608h.614Z" transform="translate(74.138 94.303)" fill="#fff"/>
  </g>
</svg>
