<svg xmlns="http://www.w3.org/2000/svg" width="21.779" height="32.669" viewBox="0 0 21.779 32.669">
  <g id="b" transform="translate(0.251 0.25)">
    <g id="c" transform="translate(0)">
      <path id="Caminho_312" data-name="Caminho 312" d="M16.414,0a12.329,12.329,0,0,1,.765,1,111.032,111.032,0,0,1,7.692,14.174,21.655,21.655,0,0,1,1.711,5.189,9.342,9.342,0,0,1-1.259,6.381,10.38,10.38,0,0,1-10.068,5.41,10.625,10.625,0,0,1-9.4-7.612.9.9,0,1,1,1.706-.519,8.741,8.741,0,0,0,6.594,6.153,8.881,8.881,0,0,0,10.616-7.006,10.224,10.224,0,0,0-.867-5.638A88.737,88.737,0,0,0,17.709,5.319c-.518-.892-1.059-1.77-1.609-2.687a1,1,0,0,0-.159.154,109.681,109.681,0,0,0-7.31,13.675c-.134.311-.247.631-.373.945-.257.64-.709.891-1.226.683a.894.894,0,0,1-.441-1.329c1-2.2,1.926-4.438,3.069-6.56,1.7-3.165,3.565-6.246,5.371-9.355A7.182,7.182,0,0,1,15.706,0Z" transform="translate(-5.429)" stroke="#fff" stroke-width="0.5"/>
      <path id="Caminho_313" data-name="Caminho 313" d="M159.762,322.818a7.113,7.113,0,0,1-5.932,6.724,8.935,8.935,0,0,1-1.054.087.887.887,0,1,1-.044-1.768,5.313,5.313,0,0,0,5.12-4.208,6.383,6.383,0,0,0,.134-1.049c.04-.6.383-.965.931-.945a.877.877,0,0,1,.844.983v.177Z" transform="translate(-142.044 -301.005)" stroke="#fff" stroke-width="0.5"/>
      <path id="Caminho_314" data-name="Caminho 314" d="M1.77,308.754a.87.87,0,0,1-.916.866.885.885,0,0,1,.039-1.77A.868.868,0,0,1,1.77,308.754Z" transform="translate(0 -288.083)" stroke="#fff" stroke-width="0.5"/>
    </g>
  </g>
</svg>
